<svg xmlns="http://www.w3.org/2000/svg" viewBox="0 0 181 136"><style>.st0{fill:#fff}</style><path class="st0" d="M111 21.3c.2-.1.2-.4.3-.5.1-.1.1-.1.1-.3s-.2-.2-.2-.3V20c0-.1.1-.1.2-.1s.3 0 .3-.2.1-.2-.1-.3c-.2-.1-.5 0-.6 0-.2 0-.2.2-.3.2h-1.4s-.1 0-.1.1c0 0 0 .1-.1.2 0 .1 0 .2-.1.1s-.1-.1-.1-.2 0-.2-.1-.2c-.1-.1-.1-.3-.2-.2s-.3.1-.4.3-.1.3-.3.3c-.2.1-.3.2-.4.4-.1.2 0 .5-.1.7s-.5.5-.7.7c-.2.1-.6.2-.5-.1s.7-.6.8-.8c.1-.2.1-.1 0-.3s-.2-.1-.3-.2c-.1-.1-.3-.2-.2-.3 0-.1.2-.2.2-.4 0-.1.1-.2.2-.3.1-.1.1-.2.1-.3.1-.1.1-.1.2-.1s.2 0 .2-.1v-.4c0-.1.2-.2.2-.3s.1-.1 0-.3-.3-.1-.4-.2.2-.1.2-.3v-.2c-.1-.1-.2-.3-.3-.3-.1 0-.1.1-.2.1s0 .1-.1 0-.1-.2-.1-.3c.1-.1.1-.1.3-.1h.6c.1 0 .2 0 .2-.1s.1-.1 0-.2-.2-.3-.3-.3h-.4c-.1 0-.2-.2-.3-.2h-.3c-.1 0-.3 0-.4-.1-.1-.1 0-.2-.1-.3l-.3-.3c-.1-.1-.3 0-.3-.2s.1-.3 0-.5-.3-.4-.5-.4-.3.2-.4.3-.1.3-.2.4c-.1.1-.3 0-.5 0-.1 0-.1-.2-.1-.3 0-.1 0-.1-.1-.2s-.1-.2-.3-.2h-.8c-.2 0-.1 0-.1.1-.1.1 0 .2-.1.3s-.2.2-.3.2c-.1.1-.1.1-.2 0-.1 0-.1 0-.1-.1s.2-.1.2-.2.1-.2-.1-.3c-.2-.1-.6-.1-.8 0-.2 0-.2.2-.3.2-.1 0-.1-.2-.2-.2s-.1.1-.3.2-.7 0-.8 0c-.2 0-.1 0-.1-.1-.1-.1 0-.2-.1-.3-.1 0-.1.1-.2.2 0 .1 0 .2-.1.2h-.4c-.1 0-.1.2-.3.2h-.6c-.2 0-.1-.2-.3-.2-.1 0-.2.2-.3.2h-.2c-.1 0-.1-.2-.3-.2h-.4c-.1 0-.1.1-.2.2s-.1 0-.3 0H95c-.2 0-.2.2-.3.4s-.5.4-.6.6-.1.2-.1.4.2.1.2.3c0 .2.1.4-.1.5-.1.1-.4.1-.5.2-.2.1-.3 0-.5 0-.1 0-.1-.2-.2-.2s-.3.2-.3.3c-.1.1.1.1.1.2s-.1.1-.1.1c-.1 0-.1 0-.2.1s-.4.2-.6.1c-.1 0-.1 0-.2.1s0 .1 0 .2l-.1.1c-.1.1 0 .4 0 .5 0 .2-.2.3-.3.4-.1.1-.2 0-.3.1-.1.1-.3.3-.4.3-.2.1-.3 0-.4.2-.2.1-.5.4-.6.6-.1.2-.1.3-.3.4-.1.1-.3 0-.4 0-.1 0-.2.1-.3.2-.1 0-.2 0-.3.1-.1.2 0 .5-.1.6-.1.2-.2.2-.2.3-.1.1 0 .1-.1.3-.1.1-.5.4-.6.5-.1.1-.1.3-.2.3s-.1-.2-.3-.2c-.1 0-.3-.1-.4 0-.1.1-.3.2-.4.3s0 .2-.1.3c-.1.1-.5.4-.6.6s.1.2.1.3v.2c0 .1-.2.1-.2.2-.1.1 0 .2-.1.3-.2.1-.5 0-.7 0-.2.1-.5.3-.6.5-.1.2 0 .3-.1.4l-.2.2c-.1.1 0 .1-.1.2s-.3.3-.4.3h-.2c-.4.3-.7.6-1 .9-.1.1 0 .2 0 .2 0 .1-.2.1-.2.2-.1.1 0 .2 0 .3l-.3.3c-.1.1-.3.2-.4.4s0 .1-.1.3c-.1.1-.5.4-.6.6-.1.1 0 .2-.1.3-.1.1-.2.2-.2.3v.2c0 .1 0 .1-.1.1h-.2c-.1 0-.2.2-.3.3 0 .1-.2.2-.3.3-.1.1-.3 0-.3.1s0 .4-.1.5c0 .1-.1.1-.2.2v.3c0 .1-.2.1-.2.3v.4c0 .1-.2.2-.2.3-.1.1 0 .1 0 .3s-.2.3-.2.4c-.1.2-.2.2-.3.3-.1.1-.1-.1-.2.1-.2.1-.6.5-.8.7-.1.2 0 .3-.1.5s-.4.3-.4.5.2.3.1.5-.5.5-.6.6c-.1.2 0 .2-.1.3l-.1.1c-.1.1-.1.3 0 .4.1.1.1.3 0 .4-.1.1-.1.1-.1.2v.4c0 .1 0 .1.1.1s.1.1.2.1.3 0 .4-.1 0-.2.1-.3c.1-.1.3-.1.4-.2.1-.1 0-.2 0-.3.1-.1.2-.2.2-.3v-.4c0-.1.1-.1.2-.2s0-.2.1-.3c.1-.1.2-.2.2-.4s.2-.2.2-.3v-.2c0-.1.2-.3.3-.4.2 0 .3-.2.3-.3.1-.1 0-.3.1-.3s.2.2.3.3.1.2.1.3c.1.1.2.2.2.3v.2c0 .1-.2.4-.3.3s-.4-.2-.5-.1c-.1.2-.1.3 0 .5 0 .2 0 .1.2.1h.8c.2 0 .1 0 .2-.1s.3-.2.4-.4.2 0 .2 0c0-.1.1-.6 0-.8-.1-.2-.4-.1-.4-.3 0-.2.1-.2.2-.3 0-.1-.1-.3 0-.4.1-.1.2-.4.1-.5-.1-.1-.2 0-.3 0-.1 0 0 .1-.1.1h-.1c-.1 0-.1-.1 0-.1 0-.1.1-.1.2-.1s0 .1 0 0c.1-.1 0-.2 0-.3 0-.1-.3-.1-.2-.3.1-.1.4-.2.5-.3s.1.1.1.2 0 .2.1.2h.3c.1 0 .2-.1.2-.2s0-.1-.1-.2-.1 0-.2 0-.1 0-.1-.1v-.5c0-.1.1 0 .2-.1s0-.2 0-.3c.1-.1.2-.1.2-.3.1-.1-.1-.3 0-.5s.5-.4.6-.6c.1-.2 0-.2.1-.4 0-.2.1-.2.2-.3s.1 0 .2 0l.3-.3c.1-.1-.1-.3.1-.5s.4 0 .4.1v.2c.1.1 0 .1.1.1h.5c.2 0 .2.2.3.3 0 .1 0 .2.1.2s.1.1.3 0l.3-.3c0-.1.2-.3.2-.4s.1-.1 0-.3c-.1-.1-.4-.2-.5-.1s-.2.2-.3.2c-.1 0-.2-.2-.1-.3.1-.1.3-.2.4-.4s0-.5.1-.6v-.5c.1-.1 0-.1.2-.1s.5.1.6 0c.2-.1.3-.2.4-.3.1-.1-.1-.3.1-.5s.5-.4.6-.6c.1-.1.1-.3.2-.4.1-.1.3 0 .3.1.1.1-.1.2-.2.3v.4c0 .1 0 .1.2.2.1 0 .1.1.2 0s.4-.3.5-.5c.1-.1.1-.2.1-.3.1-.1.1-.1.1-.2s.1-.3 0-.4l-.4-.4c-.1-.1 0-.1 0-.1.6-.5 1.2-1.1 1.8-1.5.1-.1.3-.1.4-.2.1-.1 0-.1 0-.2l.3-.3h.2c.1 0 .1.2.2.2h.3c.1 0 0 .1 0 .1l.1.1s.1 0 .1-.1-.1-.1-.1-.1-.1.1-.1-.1v-.5c0-.1-.2-.1-.2-.3.1-.1.4-.1.5-.1.1 0 .2-.1.3-.2.1 0 .1.1.2 0s.2-.3.3-.4c.1-.1.1-.3.3-.5l.4-.4c.1-.1.3 0 .4 0s.2-.2.3-.2h.3c.2 0 .3.4.4.6 0 .1.1.4.3.3.2 0 .4-.2.5 0 .1.2.1.1 0 .3-.1.2-.4.4-.5.5s-.3 0-.5 0c-.1.1-.3.2-.3.3-.1.1 0 0 0 .1s-.1.2-.2.2-.2-.1-.3 0c-.1 0-.3.2-.3.3-.1.1 0 .1 0 .2-.3.3-.4.4-.4.5-.1.1 0 .1-.1.2l-.3.3c-.1.1-.1-.1-.3.1-.1.1-.1.5-.2.7 0 .2-.2.3-.4.4-.2.1-.3-.1-.4 0-.1.1-.1.3-.1.5s.3.1.2.3c-.1.2-.4.4-.5.5-.2.1-.3 0-.4 0-.2.1-.1.2-.2.3-.1.1-.2.2-.3.2s-.2.2-.3.3c-.1.1-.2 0-.3.1-.2.1-.4.4-.6.5-.2.1-.2 0-.3.1-.2.1-.3.3-.5.4s-.3.2-.4.3c-.1.2-.2.2-.4.3s-.1-.1-.2-.2h-.3c-.1.1-.1.2-.1.3 0 .1 0 .1-.1.1s-.1 0-.1-.1v-.6c0-.1 0-.2-.1-.2-.1-.1-.1-.1-.2 0-.1 0-.3.2-.3.3 0 .1.1.2.2.3s0 .1 0 .2.2.2.2.3v.2c0 .1-.2.1-.2.3-.1.1.2.2.2.4s-.5.5-.6.6 0 .2-.1.3-.2.2-.2.3c-.1.1 0 .1 0 .3l-.4.4c-.1.2 0 .3-.1.5s-.3.3-.4.5c-.1.2 0 .3 0 .4-.1.1-.2.2-.2.3-.1.1.1.1 0 .3-.1.1-.2.2-.4.3-.2.1-.2.2-.4.5s-.8.8-1 1c-.2.3 0 .5-.1.7 0 .2.2.1.2.3 0 .2.1.3 0 .5-.1.1-.2 0-.3-.1s-.7 0-.8-.1c0-.1-.1.3 0 .4s.4.3.3.5c0 .2-.2.3-.3.3s-.3-.1-.5 0-.1.2-.1.3c0 .1.2.2.2.3v.2c0 .1-.2.1-.2.3 0 .1 0 .2-.1.3-.1 0-.1-.1-.2-.1s-.1-.1-.3 0c-.2.1-.3.4-.4.6-.1.2-.3.3-.4.4-.1.2 0 .3-.1.5s-.3 0-.4.1c-.1.1 0 .2-.1.3-.1.1-.1.1-.2.1s-.2 0-.2.2-.2.3-.2.5l-.3.6c0 .2 0 .2-.1.3l-.2.2v.6c0 .2.2.2.2.3v.2c0 .1.2.1.2.3-.1.1-.2.3-.3.3-.2 0-.3-.3-.5-.4-.2-.1-.4-.1-.5.1-.1.1 0 .3-.1.4 0 .1-.2.1-.2.3 0 .1.2.1.4.1.1 0 .2 0 .3.2v.6c0 .2-.1.1-.2.1s-.2.1-.3.2c0 .1 0 .2-.1.2h-.2c-.1 0-.1-.2-.3-.2s-.4 0-.5-.1c-.1-.1.2-.1.1-.2s-.1-.2-.2-.2c0-.1-.1-.1-.2-.1s-.1.1-.2.2h-.2c-.1.1-.4.2-.3.4 0 .2.1.2.2.5.1.2.5.5.6.7.1.2.1.3-.1.3h-1c-.2 0-.1-.3-.3-.2-.2.1-.1.6-.2.7l-.2.2c-.1.1 0 .1-.1.2s-.1.1-.3.2c-.1 0-.2.2-.2.3 0 .1-.2.2-.2.3s.2.3.3.3c.1.1.1.1.2 0 .1 0 .1-.2.2-.2s.1 0 .1.2c0 .1 0 .3-.1.4s-.2.6-.4.6-.3-.1-.4 0-.1.1-.2.3c-.1.2 0 .8-.1 1s-.2.3-.3.4-.3 0-.3.1.1.1.1.3c0 .1-.1.3-.2.3s-.3 0-.4.1c-.1.1 0 .1-.1.2s-.2.2-.2.3v.2c0 .1.2.1.2.2s-.2.2-.2.3c0 .1 0 .2-.1.3s-.1-.2-.2-.2-.3.2-.3.3 0 .5-.1.6c0 .1 0 .1-.1.1s0 .1-.1 0-.2-.2-.2-.3v-.3c0-.1.2-.1.2-.3 0-.1 0-.5.1-.6s.2-.2.2-.3c0-.1-.1-.1-.1-.2s.2-.1.2-.3v-.4c0-.1.2-.2.2-.3s0-.1.1-.3.3-.3.4-.4-.1-.1-.1-.2v-.1c0-.1.1 0 .2-.2 0-.1.2-.3.3-.5.1-.1 0-.3.1-.5s.3-.3.4-.5 0-.5.1-.7c.1-.2.5-.4.6-.7.1-.2-.3-.3-.3-.5s0-.1.1-.1c.1-.1.2 0 .3 0 .1 0 .2-.1.3-.2 0-.1.1-.2.2-.3.1-.1.1-.3.2-.4s.2-.2.1-.3-.3-.3-.4-.5c-.1-.2-.1-.2.1-.3s.6 0 .7-.1c.1-.2-.2-.1-.1-.3s0-.2 0-.3.2-.2.3-.3c.1-.1.2 0 .3 0s.3-.2.3-.3c.1-.1.2-.3.2-.4s0-.2.1-.3c.1-.1.2-.1.2-.3v-.4c0-.1.2-.2.2-.3s0-.1.1-.2.2-.2.2-.3c.1-.1 0-.3.1-.4.1-.1.2-.3.3-.5.1-.2.3-.3.4-.4.1-.1.1-.1 0-.3s-.2-.1-.2-.3c0-.2.1-.6 0-.7s-.4-.1-.5 0-.1.3-.2.4-.2.1-.2.3-.2.2-.2.4c-.1.1 0 .3 0 .4-.1.1-.2.2-.2.3-.1.1 0 .1-.1.3-.1.1-.5.4-.6.6s0 .1-.1.2 0 .1-.1.2l-.4.4c-.1.1-.1.1 0 .3 0 .1.2.1.2.3v.4c0 .1 0 .1-.1.1h-.4c-.1 0-.1 0-.2.1s0 .3 0 .4l-.3.3c-.1.1-.2.3-.2.4 0 .1-.1.1-.2.2s0 .1-.1.1h-.1c-.1 0-.1-.1 0-.1h-.3c.1 0 0 .1 0 0 .1-.1.1-.2 0-.3-.1-.1-.2-.1-.2-.3V45c0-.1.2-.1.2-.3 0-.1-.2-.1-.2-.3s.2-.1.2-.3c0-.2.1-.5 0-.7-.1-.2-.3-.4-.5-.5-.2-.1-.1-.1-.3 0-.2.1-.1.4-.2.6-.1.1-.3.3-.2.5 0 .2-.2.1-.2.1s-.1.5 0 .6c0 .1.2.2.2.3 0 .1-.2.1-.2.2v.4c0 .1.2.1.3.1.1 0 .1.2 0 .2-.1.1-.2 0-.3 0-.1 0-.1 0-.2.1s0 .1.1.2l.1.1V48.2c0 .1-.2.1-.2.3 0 .1.1.1.2.3s0 .3 0 .4c0 .1-.2.2-.2.3v.3c0 .1 0 .2-.1.2s-.1 0-.2-.1-.2-.1-.2-.3V49c0-.1-.2-.2-.2-.3 0-.1.1-.1.2-.3 0-.2 0-.5.1-.7 0-.2.1-.1.2-.3v-.8-.7c0-.1.2-.2.2-.3 0-.5.1-1 .1-1.5 0-.1.2-.1.2-.1s.1-.3 0-.4c-.1 0-.2-.1-.2-.2v-.2c.1-.1.2-.2.3-.4.1-.2.4-.4.5-.6.1-.1.2 0 .3-.1.1-.1.3-.2.3-.3.1-.7.1-1.4.2-2.1 0-.1.2-.1.2-.3 0-.2.2-.4.3-.5.1-.1-.1-.3.1-.4.1-.1.2-.4.1-.5-.1-.2-.1-.2-.1-.4 0-.1.2-.2.2-.3v-.2c0-.1.2-.2.2-.2v-.2c0-.1-.2-.1-.2-.3 0-.1 0-.3.2-.3s.2 0 .2-.2v-.8c0-.2.1-.1.2-.2 0-.1 0-.3.1-.3s.1.2.3.2c.1 0 .2 0 .3-.1s0-.3 0-.5c0-.1-.2-.1-.2-.3v-.6c0-.2.2-.2.2-.3 0-.1-.1-.1-.2-.2 0-.1-.1-.2 0-.3s.1-.1.2-.3v-.5c0-.1.1-.1.2-.2s0-.3 0-.4c0-.1.1-.2.2-.3v-.2c0-.1.2-.1.2-.3v-.4c0-.2.2-.1.2-.4s-.1-.8 0-1c0-.2.2-.2.2-.4s.1-.4.1-.6c.1-.2.1-.3.2-.5s0-.3 0-.5c0-.1-.2-.1-.2-.3 0-.1.1-.1.2-.3 0-.1-.1-.3 0-.4s.2-.2.2-.3-.2-.3-.2-.4c0-.1.1-.1.1-.2s-.1-.3 0-.4c0-.1.1-.2.2-.3v-.2c0-.1.2-.1.2-.3 0-.1-.1-.3 0-.4 0-.1.2-.1.2-.3 0-.1 0-.3-.1-.4 0-.1-.2-.1-.2-.3 0-.1.2-.1.1-.3 0-.2 0-.5.1-.6s.1-.3.2-.5 0-.1 0-.3c0-.1-.2-.1-.2-.2s.1-.2.2-.3c0-.1-.1-.3 0-.4 0-.1.2-.2.2-.3v-.4c0-.1.2-.1.2-.3-.1-.1-.3-.2-.2-.4s.2-.1.2-.4c0-.2-.1-.8-.1-1s-.7-.4-.7-.6v-.8c0-.2 0-.1.1-.1.1-.1 0 0 .2-.1.1-.1.2-.2.3-.4.1-.2.5-.5.6-.6.1-.1 0-.2.1-.3 0-.1 0-.1.1-.1s.1-.1.1-.2-.3-.1-.2-.2c.1-.2.5-.1.7-.2.2-.1.3-.4.4-.6.1-.2.2-.4.2-.5v-.3c0-.1.1-.1.1-.2v-.2s.2-.1.2-.3c0-.1-.2-.1-.2-.3v-.4c0-.1.2-.2.2-.3v-.2c0-.1.2-.1.2-.3 0-.1 0-.4.1-.5.1-.1.2 0 .3-.1.1-.1.3-.2.3-.3s-.1-.1-.2-.3c-.1-.1.1-.1-.1-.2-.2 0-.1-.2-.5-.2h-1.5s-.1 0-.1.1l-.2.2h-.4l-.4.4c-.1.1-.1 0-.1-.1-.1-.1 0-.1 0-.2s-.3-.1-.4-.2 0-.1 0-.2-.2-.1-.2-.3v-.6c0-.2.2-.2.2-.3v-.2c0-.1-.2-.1-.2-.2v-.3c0-.1 0-.2-.2-.3h-.6c-.1 0-.1 0-.1-.1V5c0-.1-.1-.3-.2-.3h-.3c-.1 0-.2.2-.3.2h-.4c-.1 0-.1.1-.3.2-.1 0-.4 0-.5.1l-.4.4c-.1.1-.1 0-.2 0-.1.1-.1.2-.3.2-.1.1-.1 0-.3.1-.1.1-.4.5-.6.6-.2.1-.2-.2-.1-.3 0-.1.2-.1.2-.3v-.8c-.1-.2-.2-.3-.3-.4-.1-.1-.1.1-.3-.1-.1-.1-.3-.2-.4-.2s-.1-.2-.3-.2c-.2 0-.3 0-.4.1l-.6.3c-.1.1-.1 0-.2.1-.1 0-.1.2-.2.2-.4.1-.4-.1-.5-.1h-.4c-.1 0-.1-.2-.3-.2s-.1-.1-.2.1c-.1.1-.4.3-.4.5-.1.2.2.1.1.3-.1.2-.3.4-.5.5-.2 0-.2-.1-.3-.3-.1-.1 0-.4-.1-.5-.1-.1-.1.1-.3.2s-.3 0-.4 0c-.1 0-.1-.2-.3-.2h-.4c-.1 0-.1-.2-.3-.2h-.9c-.2 0-.2-.2-.3-.2-.6 0-1.6-.1-2 0-.4.1-.4.2-.6.1-.2-.1 0-.3-.2-.3h-1c-.3 0-.2-.2-.3-.2-.1-.1-.1 0-.3-.1-.2-.1-.5-.5-.7-.6s-.1.1-.2.1c-.2 0-.2-.3-.4-.1-.2.2-.6.5-.8.9-.1.3 0 .8 0 1 0 .3.2.2.2.3v.2c0 .1.2.2.2.2v.2c0 .1.2.1.2.2v.2l-.3.3c-.1.1-.2-.1-.3.1-.1.1 0 .2-.2.4s-.4.3-.5.4c-.1.2.2.1.1.3s-.1.1-.2.2c0 .2-.1.5-.4.5s-.5.1-.7 0c-.2-.1-.3-.3-.6-.4-.2 0-.2.2-.3.3l-.2.2c-.1.1-.1.2 0 .3.1.1.3.4.4.6s.1.1 0 .1c-.2.1-.7 0-.9.1-.2 0-.1.1-.3.2-.2.1-.5.2-.6.4-.1.2.1.4-.1.5-.2.1-.4 0-.6.1-.2.1-.4.4-.5.6-.1.1 0 0 0 .1s0 .2.2.2h.4l.4-.4c.1-.1.1 0 .2.1 0 .1.1.1 0 .2s-.2.3-.2.4c0 .1-.1.1-.1.2v.6c0 .2.1.6 0 .7 0 .2-.1.1-.1.2v.2c0 .1-.1.1-.2 0s0-.3-.1-.4-.3.1-.3.1H48.7c-.1 0-.3.2-.4.4-.1.2-.6.6-.7.8-.1.2 0 .3 0 .5s.2.2.2.3 0 .2.1.2c.1.1.2.2.1.3-.1.1-.1 0-.2.1s-.3.3-.3.5c.1.2.4.3.4.5s.1.4.1.5c0 .2-.2.2-.3.3-.1.1-.1 0-.2.1s-.3.2-.3.4.1.4-.1.5-.2 0-.3-.1c-.1-.1 0-.4-.1-.6s-.2-.2-.2-.3c-.1-.1 0-.2-.1-.3s-.2-.4-.4-.4-.3.3-.3.5-.1.3-.2.4c0 .2-.2.3-.2.5 0 .1-.1.2-.2.3s0 .1 0 .2-.2.1-.2.3v.4c0 .1-.1.2-.2.3v.2c0 .1-.1.2-.2.3 0 .1 0 .2-.1.3-.1.1-.2 0-.3.1-.1.1 0 .3 0 .4 0 .1-.1.2-.2.2s-.2.1-.2.2 0 .1-.1.2c0 .1-.1.1-.1.2v.2c0 .1-.2.2-.2.2v.2c-.3.3-.6.6-.8.9v.2c0 .1-.1.2-.2.2v.2c0 .1-.2.1-.2.3v.4c0 .1-.2.2-.2.3 0 .1-.1.3-.2.4s0 .1-.1.3c-.1.1-.1.3-.3.3-.2 0-.3.1-.3.3 0 .2.2.2.2.3 0 .1-.1.2-.2.2v.2l-.3.3c-.1.1-.2 0-.3.1-.1.1 0 .1-.1.2v.3c0 .1.2.1.2.2s-.1.2-.2.3c-.1.1-.3.1-.4.1-.1.1 0 .2 0 .2 0 .1-.2.2-.2.2v.2c0 .1-.2.2-.2.3v.4c0 .1-.2.2-.2.3 0 .1 0 .2-.1.3s-.1-.1-.2 0-.3.2-.3.4v.8c0 .2-.1.1-.2.2s-.2 0-.4 0c-.1.1-.2.2-.3.2-.1 0-.2.1-.3.1-.1.1 0 .1 0 .2s-.2.2-.2.3c-.1.7.1 1.6-.1 2.2-.2.6-.6.5-.9 1v.2c0 .1-.2.1-.2.2-.1.1 0 .1-.1.2s-.2.3-.3.4-.2.3-.2.5c0 .1 0 .1-.1.3-.1.1-.2.1-.3.3-.1.1-.3-.1-.3.2s0 .8-.1 1c0 .2-.2.2-.2.3v.2c0 .1.2.1.2.3-.1.1-.3.1-.4.1s-.2.2-.3.3-.1.2 0 .3c0 .1.1.1.2.2v.6c0 .1.1.1.1.2.1.1.2 0 .3.1v.4c0 .1-.2.2-.2.2v.2c-.1.1-.2.2-.2.3 0 .1 0 .2-.1.3s-.1.3-.2.4c-.1.1-.2.3-.2.4 0 .1 0 .1-.1.2l-.2.2c-.1.1-.1 0-.2-.1v-.2c0-.1.2-.1.2-.2s.1-.3 0-.4-.2-.1-.3-.1c-.1 0-.2.1-.3.2h-.3l-.3.3c-.1.1-.2.3-.3.4-.1.1 0 .3 0 .4-.1.1-.2.2-.2.3v.2c0 .1-.2.2-.2.2v.2c0 .1-.2.1-.2.3v.4c0 .1-.3.3-.3.4 0 .1-.2.3-.2.4s-.2.3-.3.4c-.1.1-.2.3-.3.4s0 .3-.1.4-.2.1-.2.2 0 .1-.1.2-.2.2-.2.3c0 .2-.2.2-.2.4s-.1.4-.2.5c-.1.1-.2.3-.3.4-.1.1 0 .1-.1.2s-.2.1-.2.2c-.1.1 0 .1 0 .2s-.2.1-.2.2-.1.3 0 .4c.1.2.3.5.5.5.2.1.3-.2.4 0 .1.1 0 .3 0 .4 0 .1-.2.1-.2.2v.2l-.3.3c-.1.1-.1 0-.3 0s-.1-.2-.3-.2c-.1 0-.2.2-.3.3-.1.1-.2.3-.2.4-.1.1 0 .1-.1.2s-.2.1-.2.2c-.1.1 0 .1 0 .2-.1.1-.2.1-.2.2-.1.1 0 .1-.1.2s-.3.4-.4.5c-.1.1 0 .1-.1.2 0 .1 0 .2-.1.3-.1.1-.2.1-.2.3 0 .1-.2.2-.2.3-.1.1 0 .1 0 .2-.1.1-.2.1-.2.2-.1.1 0 .3-.1.4-.1.1-.2.3-.3.4-.1.2-.3.4-.4.6s0 .1-.1.2 0 .2-.1.3c0 .1-.2 0-.2.2s0 .8-.1 1c0 .2-.2.2-.2.3-.1.1 0 .1 0 .2-.1.1-.2.1-.2.3s0 .3-.1.4c-.1.1-.2.3-.3.4-.1.1-.2.2-.2.4-.1.2-.2.3-.3.4 0 .2-.2.2-.2.3v.6c0 .2.2.1.2.3 0 .1-.2.1-.2.3 0 .2 0 .4-.1.6 0 .2-.2.1-.2.3v.4c0 .1.2.2.2.3 0 .1 0 .4-.1.5-.1.1-.1 0-.3 0-.1 0-.2-.2-.2-.2-.1 0-.3 0-.3.1-.1.5 0 .9-.1 1.4 0 .1-.2.2-.2.3v.2c0 .1-.2.1-.2.2s0 .1-.1.2-.2.1-.2.3v.4c0 .1-.2.1-.2.2-.1.4-.1.8-.2 1.2 0 .1-.1.1-.2.2v.4c0 .1-.2.2-.2.3v.2c0 .2 0 .7-.1.9 0 .2-.2.2-.2.3-.1.1 0 .3 0 .4 0 .1-.2.2-.2.3-.1.1 0 .1-.1.2s-.2.2-.2.4-.2.3-.2.5c0 .1-.2.2-.2.4v.4c0 .1.2.2.2.3v.2c0 .1-.2.2-.2.2v.2c0 .1-.2.2-.2.2 0 .1 0 .1-.1.2 0 .1-.2.2-.2.3v.4c0 .1-.2.1-.2.2-.1.4-.1.8-.2 1.3 0 .1-.1.1-.2.2v.4c0 .1-.2.2-.2.3 0 .1 0 .1-.1.2 0 .1-.2.1-.2.3v.4c0 .1.2.1.2.3 0 .1-.2.1-.2.3 0 .1 0 .3-.1.4s-.3.5-.4.6 0 .3 0 .5.2.1.2.3c0 .1-.2.1-.2.3 0 .1 0 .3-.1.5s-.2.3-.3.5-.2.2-.2.4-.2.2-.2.3c0 .1.1.1.1.3v.6c0 .2-.2.2-.2.3v.2c0 .1-.2.2-.2.3v.2c0 .1-.2.1-.2.3 0 .2.1.3.2.5s-.1.5-.2.6-.2.3-.3.5c-.1.1 0 .3-.1.4 0 .1-.2.1-.2.3s-.3.9-.3 1.1v.4c0 .1-.2.2-.2.3 0 .1 0 .1-.1.2s-.2.1-.2.3c0 .1-.1.3-.2.4-.1.1-.1.2 0 .3 0 .1.1.1.2.2v.4c0 .1-.2.2-.2.3v.2c0 .1-.2.2-.2.2v.2c0 .1-.2.2-.2.2v.2c0 .1.2.1.2.3 0 .2 0 .3-.1.5s-.2.5-.4.6c-.1.1 0 .2-.1.3-.1.1-.2.1-.2.2v.2c0 .1.2.1.2.3v.4c-.1.1-.2.2-.2.4 0 .1-.2.2-.2.3 0 .1.1.1.1.2v.7c0 .2-.1.1-.2.2v.2c0 .1-.2.1-.2.2v.2c0 .1-.2 0-.2.3s0 1-.1 1.2c0 .2-.1.1-.2.2s0 .2-.1.3c-.1.1-.2.1-.2.3 0 .1-.2.4-.4.4s-.1-.2-.1-.3.2-.1.2-.2v-.2c0-.1-.2-.2-.2-.3v-.2c0-.1.2-.1.2-.2.1-.4 0-.8.1-1.3l.1-.1c.1-.1.3-.4.4-.6.1-.1 0-.3 0-.4 0-.1.2-.1.2-.3.1-.6 0-1.2.1-1.8 0-.1.2-.1.2-.3v-.6c0-.2.2-.1.2-.3 0-.2.2-.2.2-.4s.1-.3 0-.5-.1-.4 0-.7c.1-.3 0-1 .1-1.3.1-.3.2-.2.2-.3.1-.1 0-.1 0-.2s.2-.2.2-.3v-.2c0-.1.2-.1.2-.3.1-.6 0-1.3.1-1.9 0-.1.2-.1.2-.3 0-.2 0-.6.1-.9.1-.2.3-.5.4-.7.1-.2 0-.5.1-.7 0-.2 0-.1-.1-.2s-.2 0-.3-.2v-.4c0-.1.2-.2.2-.3v-.2s0-.1.1-.1.4-.2.5-.3l.1-.1c-.2-.2-.1-.5 0-.7s0-.3.1-.5c.1-.1.2-.2.2-.3.1-.1 0-.1 0-.2l.2-.2v-.2c0-.1.2-.1.2-.3 0-.2.1-.3 0-.5s-.1-.5 0-.7c.1-.2-.1-.2-.2-.3-.1-.1-.3-.1-.3-.2v-.3c0-.1.2-.1.2-.2.1-.1 0-.1.1-.2s.2-.3.3-.4l.3-.3c.1-.1.1.1.3 0s.2-.4.3-.5c.1-.1.1-.2 0-.3s-.5 0-.6-.2c-.1-.2 0-.3.2-.3s.6 0 .7-.1c.1-.1.1-.2 0-.2-.3-.4-.6-.7-.9-1.1h-.1l-.3.3c-.1.1 0 .2-.1.3-.1.1-.2.2-.2.4s-.2.1-.2.4-.1 1-.1 1.3-.2.2-.2.4-.1.2-.2.4c-.1.1 0 .1-.1.3-.1.1-.2.1-.2.3v.6c0 .2.2.1.2.3s-.3.5-.4.6l-.1.1v.2c0 .1.2.1.1.2l-.4.4c-.1.1 0 .1 0 .3 0 .1.2.1.2.3 0 .1-.2.2-.2.4 0 .1-.1.2-.2.3l-.1.1c0 .4 0 .8-.1 1.2 0 .1 0 .2-.1.2l-.3.3c-.1.1-.1 0-.2.1s-.3.2-.3.3c0 .1.2.2.2.3v.3c0 .1-.1.2-.3.3s-.4.3-.4.5.3.4.4.5c.1.2 0 .3 0 .5 0 .1-.2.1-.2.3 0 .1.2.1.2.3 0 .1 0 .1-.1.3l-.4.4c-.1.2 0 .6 0 .7 0 .2 0 .2-.1.3 0 .1-.1.1-.2.2s0 .2 0 .2c0 .1-.2.1-.2.3v.4c0 .1.2.2.2.3v.3c0 .2-.2.3-.2.4s-.2.1-.2.3c0 .1 0 .3-.1.4 0 .1-.1.1-.2.2s.1.4.1.5c.1.1 0 .2 0 .3 0 .1-.2.1-.2.2v.2c0 .1-.2.1-.2.2v.2c0 .1.2.1.2.3v.4c0 .1-.1 0-.1.1s-.2.4-.3.5l-.1.1c0 .1-.1.2-.2.3-.1.1 0 .1 0 .2s.2.2.2.3v.2c0 .1-.2.1-.2.2s0 .1-.1.2l-.3.3c-.1.1-.1 0-.2 0-.1.1-.2.2-.1.3.1.1.2.3.2.4 0 .1.2.2.2.3v.4c0 .1-.2.1-.2.2v.2c-.1.1-.2 0-.2.3 0 .2 0 .9-.1 1.2-.1.2-.2.3-.2.5s-.1.1-.1.2v.1c0 .1.1.1.1.2v.6c0 .1-.4.1-.4.2v.2c0 .1-.2.1-.2.2v.4c0 .1.2.1.2.3-.1.1-.2.3-.3.4-.1.1-.2.3-.2.4v.2c0 .1-.1.1-.2.1s0 .1 0 .2-.3.1-.3.2v.2c0 .1.2.1.2.2v.4c0 .1-.2.1-.2.2v.2c0 .1.1.1.1.2s.1.1 0 .3-.3.3-.4.5c-.1.1-.2.3-.3.4-.1.1 0 .2-.1.4-.1.1-.2.1-.2.3v.8c0 .2-.2.1-.2.3-.1.1 0 .2-.1.4-.1.1-.3.4-.4.5-.1.1-.1 0-.1.1v.2c0 .1.1.1.1.2v.3c0 .1-.2.1-.2.2v.3c0 .1.2.1.2.2-.1.1-.2.2-.2.3 0 .1-.2.1-.2.2v1.3l.1.1c0 .1-.1.1-.1.1l-.1.2s-.2.1-.2.2v.3c0 .1.2.1.2.2v.2c0 .1-.2.2-.2.3 0 .1-.2.2-.2.3 0 .1.1.1.1.2v.4c0 .1-.2.1-.2.2v.4c0 .1.2.1.2.2v.2c0 .1-.2.1-.2.2v.4c0 .2.2.1.2.2s-.2 0-.2.3v1.1c0 .1.1.1.1.2v.2c0 .1-.2.1-.2.2v.4c0 .1-.2.1-.2.2s.2.1.2.3.1.3 0 .4c-.1.1-.2.3-.3.4l-.3.3c-.1.1-.2-.1-.3 0-.1.1-.2.4-.3.5-.1.1 0 .1-.1.2s0 .2-.1.4c0 .1-.1.3 0 .4.1.2.3.3.4.5.1.2-.2.3-.2.4v.3c0 .1-.1.2-.2.2s-.2-.1-.4 0c-.1.1-.4.1-.5.3-.1.2-.1.3 0 .5s.3.3.4.5 0 .4 0 .6c0 .2.2.2.2.3v.4c-.1.1-.2.3-.3.3-.2.1-.4.1-.3.3.1.3.4.3.6.5.2.2.6.7.8.8.2.1.3.2.5.3.2.1.3 0 .5.1s.4.3.6.4.3.2.5.3c.1.1.3 0 .4.1s.2.2.3.2c.1.1.1 0 .2 0s0 .2.3.2c.2 0 1 .1 1.3 0s.1-.1.3-.2h.7c.2 0 .1-.1.3-.2.1 0 .4 0 .5-.1.1 0 .1-.1.2-.2h.4c.1 0 .2-.2.3-.2h.4c.1 0 .2-.2.3-.2h.4c.1 0 .2-.2.3-.2h.4c.1 0 .1-.1.3-.2s.5 0 .7-.1c.2 0 .1-.1.3-.2s.4 0 .5-.1c.1 0 .1-.1.2-.2h.4c.1 0 .2-.2.3-.2h.4c.1-.1.1-.3.3-.4s.3 0 .4 0c.2 0 .1-.2.3-.2.2 0 .6 0 .8.1.2 0 .2.2.3.2.2 0 .4.1.6 0 .2-.1.3-.2.4-.3s-.1-.1.1-.2c.2-.2.6-.6.8-.7.3-.1.6 0 .8 0 .2 0 .1 0 .2-.1s0-.2 0-.2c.1-.1 0-.1.1-.1h.5c.1 0 .5.1.6 0 .2-.1.3-.3.4-.4.1-.1.2 0 .3-.1s.3-.3.5-.4c.1-.1.1 0 .3 0 .1 0 .2-.1.3-.2.1 0 .3.1.4 0 .1 0 .2-.1.3-.1.2 0 .5.1.6 0s.1.1.1-.1v-.9c0-.2.2-.1.2-.2.1-.1 0-.1.1-.2 0-.1.1-.1.2-.2s0-.3.1-.4 0-.1.1-.1h.2c.1 0 .1-.1.3-.2.1 0 .3.1.4 0 .1 0 .3-.2.4-.3.2 0 .3-.1.5-.2s.3 0 .4 0c.1 0 .2-.1.3-.2.1 0 .3.1.4 0 .1 0 .2-.1.3-.2.1 0 .3.1.4 0 .4-.3.8-.5 1.2-.9v-.2c0-.1.2 0 .2-.2v-1c0-.2 0 0 .1-.1s.2-.1.2-.2.1-.2.2-.3c.1-.1 0-.1 0-.2s-.2-.1-.2-.3v-1c0-.2.2-.1.2-.2v-.5c0-.1-.2-.1-.2-.2s.2-.1.1-.2c0-.1-.1-.1-.2-.2v-.3c0-.1.1-.1.1-.1.1-.1.1-.1.1-.2s-.2-.1-.2-.2v-.2c0-.1.2-.1.2-.2v-.3c0-.1.2-.1.2-.2s-.2-.1-.2-.2v-.3c0-.1.1-.1.2-.1v-.2c0-.1-.2-.1-.2-.2v-.2c0-.1.2-.1.2-.2v-.5c0-.1-.2-.1-.2-.2.1-.1.3-.3.3-.5.1-.1.1-.3 0-.4-.1-.1-.2-.2-.2-.3 0-.2.2-.1.2-.3v-.8c0-.2.2-.1.2-.3v-.4c0-.1-.2-.1-.2-.2v-.2c.1-.1.2-.2.2-.3 0-.1.2-.2.2-.4s.2-.1.2-.3v-.4c0-.1-.2-.1-.2-.2v-.2c0-.1.2-.1.2-.2v-.2c0-.1.2-.1.2-.2v-.2c0-.1 0 0-.1-.1s-.1-.3 0-.4c.1-.1.1-.1.1-.2v-.4c0-.1.2-.1.2-.2s-.2-.1-.2-.2v-.4c0-.1.2-.1.2-.2v-.4c0-.1.2-.1.2-.2v-.4c0-.1-.2-.1-.1-.3.1-.2.3-.5.4-.6.1-.2 0-.3.1-.5.1-.1.2-.2.2-.3v-.4c0-.1-.2-.1-.2-.3.1-.1.2-.3.2-.4 0-.1.2-.2.2-.3.1-.5 0-.9.1-1.4v-.1s.1 0 .1-.1c.1-.1.2-.4.3-.5s0 0 .1-.2.2-.2.2-.4c.1-.1 0-.3 0-.4 0-.1.2-.2.2-.3v-.2c0-.1.6.1.6 0V99c0-.1.1-.1.1-.2s.2-.4.3-.5c.1-.1 0-.3.1-.5 0-.1.1-.1.1-.2.1-.1.1-.2.1-.3 0-.1.2-.2.2-.2v-.2c0-.1.2-.1.2-.3v-.4c0-.1 0 0 .1-.2.1-.1.1-.3 0-.5-.1-.1-.1-.3 0-.5.1-.1.1-.1.1-.2s.2-.2.2-.4c0-.1-.1-.2-.2-.3v-.2c0-.1 0-.1-.1-.1s-.3 0-.3.2v.6c0 .2-.1.1-.2.2s-.1.3-.2.4c-.1.1-.1.3-.2.4 0 .1 0 .1-.1.1s-.1 0-.1-.1v-.4c0-.1.2-.1.2-.3.1-1.1.1-2.2.2-3.4 0-.1.2-.2.2-.3v-.3c0-.1-.2-.1-.2-.3v-.4c0-.1.2-.2.2-.3.1-.5 0-.9.1-1.4l.1-.1c.1-.1.3-.4.4-.6.1-.2.1-.3 0-.5s-.2-.1-.2-.3c0-.2 0-.8.1-1.1 0-.3.2-.1.2-.4 0-.2 0-.8.1-1s.2-.2.2-.3c0-.1-.1-.1-.1-.2s-.1-.3.1-.4.5.1.6 0c.2 0 .1-.2.2-.3.1-.1.2-.2.2-.3 0-.1-.1-.1-.2-.3s0-.5 0-.6c0-.2.2-.2.2-.3v-.3c0-.1-.2-.2-.2-.3 0-.1.1-.3.2-.4.1-.1 0-.3 0-.5s-.2-.2-.1-.3c.1-.1.1-.3.2-.4l.3-.3c.1-.1.3 0 .4-.2s0-.3 0-.4c0-.1-.2-.2-.2-.3 0-.1.2-.2.2-.2.1-.5 0-.9.1-1.4l.1-.1c.1-.1.1-.2.2-.4s.7-.6.8-.9c.1-.2-.1-.1-.1-.4v-.8c0-.2-.2-.1-.2-.3v-.8c0-.2 0-.1.1-.2 0-.1.1-.1.2-.2 0-.1 0-.2.1-.2 0-.1.2-.1.2-.2v-.2c.1-.1.2 0 .2-.3s.1-1 .1-1.3c0-.3.2-.2.2-.3.1-.5 0-.9.1-1.4 0-.1.1 0 .1-.1.1-.1.2-.4.3-.5.1-.1 0 0 .1-.2 0-.2.2-.2.2-.4s.1-1 .1-1.3c0-.2.2-.2.2-.3.1-.5.1-.9.1-1.4 0-.1.2-.2.2-.3s0-.2.1-.3l.3-.3c.1-.1.2 0 .3-.1.1-.1 0-.5.2-.6.2-.1.1.2.3.2.2 0 .3-.1.3-.3 0-.2.2-.2.2-.3v-.4c0-.1-.2-.1-.2-.3s.2-.2.2-.3v-.4c0-.1.1 0 .2-.3.1-.2 0-.9.1-1.1.1-.2.2-.3.4-.3.2-.1.6 0 .7-.1.1-.2.1-.3.1-.5s-.1-.1-.2-.3 0-.3 0-.4c0-.1.1-.1.2-.1s.2 0 .3-.1c0-.1.1-.3 0-.4 0-.1-.1-.1-.1-.2s-.1-.2 0-.3c.1-.1.3-.5.4-.6.1-.1.1-.1.1-.3s-.2-.1-.2-.3v-.4c0-.1.2-.1.2-.3s0-.1.1-.2.2-.1.2-.3c.1-.2.1-.8.1-1s.2-.2.3-.4 0-.3.1-.5.3-.4.5-.7c.1-.3.1-.8.2-1s.2-.2.3-.4c.2-.9.2-1.8.4-2.6 0-.1.2-.2.3-.3.1-.5.1-.9.2-1.4 0-.1.2-.1.3-.3.1-.2 0-.6.1-.8.1-.2.2-.2.3-.3.1-.2 0-.4.1-.5 0-.1 0-.1.1-.2 0-.1.2-.1.2-.2.1-.6.1-1.1.1-1.7 0 0 0-.1-.1-.1s-.2-.2-.2-.3 0-.2.2-.1.6.1.7 0l.2-.2c.1-.1 0-.3 0-.4s.1-.1.2-.2 0-.3-.1-.3h-.5c-.1 0-.1 0-.1-.1s0-.1.1-.2c0-.1.1-.1.1-.2s.2-.2.4-.2c.1 0 .3-.2.4-.3.1-.1 0-.1 0-.2l.3-.3c.1-.1.3.1.4-.1.1-.2 0-.8.1-1 .1-.2.2-.1.2-.3s.2-.2.3-.3c.1-.1 0-.3 0-.4.1-.1.2-.1.3-.2.1-.1-.1-.3 0-.4.1-.1.2-.1.3-.2.1-.1-.1-.2 0-.4s.2-.1.3-.2-.1-.2 0-.3c.1-.1.2-.1.3-.2 0-.1-.1-.2 0-.3s.2-.1.3-.2c.1-.1-.1-.1 0-.3.1-.2.5-.2.7.1.1.3.1.8.2 1.1s.2.1.3.3v.5c0 .1-.2.1-.3.2.3.3.3.3.3.4-.1.1-.2 0-.2.1-.1.1-.2.3-.3.3-.1.1-.1.1-.1.2v.3c0 .1.2.1.2.2v.8c0 .2.2.1.2.2 0 .6-.1 1.2-.1 1.8 0 .1-.2.1-.2.3v.9c0 .2-.2.1-.2.3v.5c0 .1-.2.1-.2.2v.4c0 .1-.2.1-.2.3s-.1.4-.2.5c-.1.2-.3.2-.3.4-.2.7-.2 1.3-.3 2 0 0 .1.1.2.1s.1 0 .2.1.4.6.5.7c.1.2 0 .2 0 .3 0 .1.1.2.1.4s-.1.5-.1.7c-.1.2-.2.1-.3.3-.1.1-.1.3-.1.5-.1.1-.2.1-.3.3-.1.1 0 .3-.1.5-.1.1-.2.1-.3.3-.1.2-.1.5-.1.6 0 .2-.2.2-.2.3-.2.7-.2 1.4-.4 2.1v.1c0 .1.2.1.1.3 0 .2.1.4.1.7 0 .4-.1 1.1-.2 1.6 0 .1-.2.1-.2.2s-.1.1 0 .3.4.5.5.8.1.4.2.6c0 .2-.1.5 0 .7s.1.2.1.3l-.3 2.4c0 .1-.2.1-.2.2-.1.1.1.1-.1.3-.1.1-.6.5-.8.6-.2.1-.2.1-.1.2 0 .2.3.3.3.5.1.1 0 .2 0 .3.1.1.3.3.3.4 0 .7-.1 1.3-.2 2 0 .1-.1.1-.2.2 0 .1 0 .1-.1.2l-.3.3c-.1.1-.4.3-.5.4-.1.1-.3 0-.4.1s0 .1 0 .3c0 .1.2.2.2.4 0 .1.1.2.2.3s0 .3.1.4.1 0 .2 0 .1-.2.1-.3c0-.1.1-.1.1-.1.1 0 .1 0 .1.1s-.1.3 0 .4c.1.2.3.4.4.5.1.1 0 .2 0 .3s.2.2.2.3v.4c0 .1.2.2.2.3v.6c0 .1-.2.1-.2.2 0 2.9-.1 5.8-.1 8.7 0 0 0 .1.1.1 0 0 .1.1.1.2v1.6c0 .1.2.2.2.3v2.4c0 .1.2.1.2.3v1c0 .2.2.2.2.4v.6c0 .2.2.2.2.3s.1.4.2.6.1.3.2.5 0 .1 0 .3c0 .1-.2.1-.2.3v.4c0 .1.2.2.2.3 0 1 0 2-.1 3 0 .1-.2.1-.2.3 0 .2 0 .5-.1.6 0 .2-.1.1-.2.2 0 .2-.1.5-.1.7 0 .2-.1.1-.2.2s-.1.1 0 .2.2.3.4.4c.2 0 .4.1.6.2.2.1.4.1.6.1s.1-.1.2-.2.2-.2.4-.1.4.4.5.6c.1.1 0 .1.1.2s.2.3.3.3c.2 0 .2-.2.3-.3s0-.2.1-.3l.3-.3c.1-.1.1.1.3 0l.5-.5c.1-.1 0-.1.1-.3l.5-.5c.2-.1.1-.1.3 0 .2.1.3.3.4.4s.1 0 .3.1c.1.1.3.2.5.3s.4.5.6.6c.2.1.3.1.5.1s.2-.2.3-.2h.2c.1 0 .1-.2.3-.2h.4c.1 0 .1.2.3.2.1 0 .2-.1.3-.2h.4c.1 0 .2-.2.3-.2s.3-.1.4-.2c.1-.1.1 0 .2 0s.1-.2.3-.2h1.7c0-.3.2-.5.4-.6.2-.1.3 0 .5 0 .2-.1.3-.3.4-.4.2-.1.1.2.3.2.5 0 1.1.1 1.6.1.1 0 .2-.2.3-.2h.4c.1 0 .2-.1.3-.2h.1s-.1 0-.1-.1-.1-.4 0-.6c.1-.2.2-.3.4-.4s.4-.1.5-.2 0 0 0-.1 0 .1 0 0 0-.4-.1-.5c0-.1-.3-.2-.3-.3 0-.1.2-.2.4-.2s.5.3.5.4c.1.1.1.2 0 .3 0 .1-.2.1-.2.2.1 0 .1 0 .2-.1s.3-.1.4-.2c.1 0 .3-.2.3-.3 0-.1-.1-.1-.2-.3V91c0-.1 0-.1-.1-.1 0-.1-.1-.1-.1-.2s0-.1 0 0c-.1 0-.2.3-.3.3s-.2.1-.4 0c-.1 0-.2-.2-.3-.3s-.1 0-.2 0v0s0 .2-.1.2 0 .1-.1 0c-.1 0-.1-.1-.1-.2s.1-.1.2-.1 0-.1 0-.2l.3-.3v-.4l-.3-.3c-.1-.1 0-.1 0-.2h-.1.1s-.2 0-.2-.1-.1 0 0-.1c0-.1.1-.1.2-.1s0 .2.2.2c.2.1.5-.1.7 0 .2.1.3.3.5.4.1.1 0 .2.1.2s.2 0 .3.1c.1.1.1.1.2.1h.4l.4-.4c.1-.1.1.1.3 0 .1-.1.3-.2.3-.4.1-.2.1-.6 0-.8 0-.2-.2-.2-.2-.3v-.4c0-.1.2-.1.2-.3 0-.1 0-.2.1-.3.1-.1.4 0 .5-.1s.1-.1 0-.2-.2 0-.3 0c-.1 0-.2-.2-.2-.3.1-.1 0-.1.1-.1s.1.3.2.2.1-.2.2-.4.3-.3.4-.4 0-.2.1-.3c.1-.1.3-.1.4-.1.1-.1.3-.2.3-.3 0-.1 0-.2-.1-.3-.1-.1-.3 0-.3-.1v-.1c0-.5 0-1 .1-1.5 0-.1.1-.1.1-.1.1 0 .1 0 .1.1s-.1.3 0 .4c.1.1.2.3.3.3s.3.2.4.2l.1.1c.1.1.1 0 .1 0 .1 0 .2-.1.3-.2.1-.1.2-.3.2-.4.1-.1.1-.1.1-.2s.2-.2.2-.4c.1-.1 0-.3 0-.4 0-.1.2-.2.2-.3v-.2-.1c0-.2 0-.4.1-.7.1-.3.3-.5.3-.9 0-.8.1-1.4.7-1.9.1-.7.4-1.4.4-2.1s.1-1.2.5-1.8c.1-.1.2-.2.3-.4.1-.2.2-.4.3-.7.1-.2.4-.4.5-.7.1-.7.3-1.2.9-1.7.1-.1.2-.2.2-.4s0-.6.1-.7c.1-.1.1-.2.1-.3v-.2c0-.1 0-.4.1-.6.1-.6.4-1 .8-1.3.1-.1 0-.2.1-.3s.2-.4.2-.5c0-.1 0-.1.1-.2v-.2c.2-.8.6-1.2 1.4-1.6v-.1s.2-.1.2-.2v-.4c0-.1.2-.1.2-.3 0-.1.1-.1 0-.3-.1-.1-.4-.3-.3-.4 0-.2-.1-.1.1-.1.2-.1.6.1.8 0s.6-.5.8-.7c.2-.2 0-.3.1-.5s.2-.1.2-.3.1.6.1.5c0-.1 0-.2-.1-.3-.1-.1-.1.1-.2-.1-.1-.1-.2-.4-.3-.5s0-.1 0-.3-.2-.1-.2-.3.3-.1.4-.2 0-.1.1-.2l.2-.2c0-.1.2-.3.2-.4l.1-.1c.1-.1 0-.3.1-.4.1-.1.2-.2.2-.4 0-.1.1-.2.2-.3.1-.1 0-.1.1-.2s.2-.1.2-.3 0-.5.1-.7c.1-.2.5-.4.6-.6.1-.2.1 0 .1-.2 0-.1-.2-.4-.2-.5s0-.1-.1-.1c0-.1 0-.1-.1-.1s0-.1-.1 0c-.2.2-.3.5-.3.6 0 .1-.1.1-.1.1 0 .1 0 0-.1 0s-.1.1-.2.2h-.1-.1c-.1.1-.2.2-.2.3v.5c.1.1.3.1.3.3 0 .2-.2.2-.2.4s-.2.4-.5.5c-.2.1-.3.4-.4.6-.1.2-.1.3-.2.5-.1.1-.1.3-.1.4 0 .1-.1.2-.2.3v.3c-.1.1-.3.3-.4.5-.1.1.1.1.1.3 0 .1-.2.1-.2.2s-.1.1 0 .3c.1.1.4.1.5.2.1.1.1 0 .1.1v.6c-.1.1-.2.1-.3.1-.1 0-.1-.2-.3-.2h-.8c-.2 0-.1 0-.1-.1-.1-.1 0-.5 0-.6 0-.2.2-.2.2-.3v-.4c0-.1.2-.2.2-.3s0-.2.1-.2.2-.1.2-.2v-.3c0-.1-.1-.2-.1-.4-.1-.1-.2-.1-.2-.3-.1-.1-.1-.5-.1-.7.1-.2.2-.2.2-.3v-.5c0-.2.1-.4.3-.4.2 0 .4 0 .5-.1.1-.1.1-.3.1-.4 0-.2-.3-.2-.3-.3 0-.1-.2-.1 0-.3.2-.2.5-.2.7 0 0 0 .1 0 .1-.1 0 0 .1-.2.2-.2s.3-.1.4-.2c.1-.1 0-.2.1-.3v-.2-.2c0-.1.1-.2.2-.3.1-.1.1-.5-.1-.6-.1-.1-.1 0-.2-.2s.1-.5.3-.5c.2 0 .4 0 .5-.1.2 0 .2 0 .3-.1l.4-.4c.1-.2 0-.2 0-.4.1-.2.2-.2.3-.4 0-.3-.1-.9-.1-1.2.1-.3.2-.2.4-.2s.4.3.4.4-.2.4-.2.6c0 .2-.2.3-.2.4v.1c0 .1 0 0 0 0 .1 0 .1 0 .1.1v.4c0 .1-.1.1-.1.1-.1 0 0-.1-.1-.1s0-.2 0-.1-.2.1-.2.3v.6c0 .1-.1.1-.1.2v.1c0 .1-.1.1-.1.1v.3c0 .1-.1 0-.1.1v.3s0 .1.1.1.3.1.4 0c.1-.1.2-.3.3-.4.1-.1.2-.4.3-.5.1-.2 0-.3.1-.4.1-.1.2-.1.2-.3.1-.2 0-.5.1-.6.1-.2.4-.3.4-.5.1-.2.1-.4-.1-.5s-.3.3-.5.3-.1-.2-.1-.3c0-.1.2-.2.2-.3v-.2c0-.1.2-.1.2-.3v-.6c0-.1 0-.1-.1-.1-.1-.1 0 0-.1 0h-.3c-.1 0-.2-.2-.2-.3s.2-.1.2-.3.1-.5.2-.6c.1-.1 0 0 .1-.2s.2-.2.4-.3.3-.2.3-.3c.1-.1 0-.2.1-.3.1-.1.3 0 .4 0 .1 0 .1 0 .2-.1v-.4c0-.1-.2-.1-.2-.3v-.4c0-.1.2-.2.2-.3v-.4c0-.1-.1-.1-.2-.2 0-.1 0-.1.1-.1h.2c.1 0 .1.2.2.1.1 0 .3-.2.3-.3s0-.2.1-.3c.1-.1.2-.2.2-.3v-.4c0-.1.1-.1.2-.3.1-.1 0-.3.1-.5.1-.1.2-.3.2-.5l.3-.3c.1-.1 0 0 .2-.1.1-.1.5-.3.6-.5.1-.2.1-.3.2-.4s0 0 .1-.2c0-.2-.1-.6.1-.8s.3-.4.5-.4.3.3.4.4c.2.1.3-.1.3-.2s0-.1.1-.2c0-.1.2-.1.1-.2s-.3-.2-.3-.4.3-.3.4-.4c.1-.1 0-.1.1-.2s.3-.5.5-.6c.2-.1.1.1.2.2s0 .2 0 .3c0 .1.1.1.2.2s.2 0 .3-.1V39c0-.1.2-.2.2-.2.1-.1 0-.2 0-.2.1-.1.1-.1.2-.1s.3-.1.2-.2v-.5c0-.1 0-.1-.1-.1h-.2c-.1 0-.2.1-.2.2-.1 0-.1 0-.1.1s0 .1-.1.1h-.1s-.1-.1 0-.1c0-.1.1-.1.2-.1s-.1.1 0 0 0-.4 0-.5.2-.2.2-.3c0-.1 0-.2.1-.3s.3-.1.4-.2c0-.1-.2-.1-.1-.3.1-.1.2 0 .3-.1.1-.1.1-.2.1-.3s.2-.2.2-.3v-.4c0-.1.2-.2.2-.3v-.2c.1-.1.2-.1.2-.3.1-.1-.1-.3.1-.4s.2-.4.3-.5c.1-.1.3.1.4 0 .1-.1.3-.2.3-.3.1-.2.2-.3.3-.4.1-.1 0-.3 0-.4.1-.1.2-.2.2-.3.1-.1 0-.1 0-.2.1-.1.2-.1.2-.3v-1c0-.2.2-.2.2-.3s0-.5.1-.5.1.4.3.4c.2 0 .4.1.5-.1.1-.2 0-.4.1-.6 0-.2.1-.1.2-.2s.2 0 .3-.2v-.8c0-.2 0-.1.1-.1s0-.1.1 0l.3.3c0 .1 0 .4.1.5s.2.1.3 0l.3-.3c.1-.1.2-.3.2-.4.1-.1-.2-.1-.1-.3.1-.1.3-.1.4-.2.1-.1 0-.1.1-.2s.2-.1.2-.3c0-.1.1-.3.2-.3s.2-.1.3-.2 0-.1.1-.2.2-.3.2-.4c0-.1 0-.1.1-.2s.2 0 .3-.1.4-.2.5-.3c.1-.1-.1-.1.1-.3l.8-.8c.2-.2.1-.2.2-.4s.3-.2.5-.3c.2-.1.3-.2.4-.3.1-.1 0-.2.1-.3l.9-.9c.1-.1 0-.2 0-.2.3-.3.8-.8 1.1-1 .7.1.9.4 1.1.2zm-18-3.1c-.2 0-.2-.2-.1-.3.1-.1.2-.2.4-.3.1-.1.4-.1.5.1s.1.4 0 .5c-.2.1-.6 0-.8 0zM75.7 8.1c.1.1.1 0 0 0 .1.2.1.4.1.5 0 .1-.1.1-.1.1-.1 0-.1 0-.1-.1v-.4c0-.1.1-.1.1-.1zM72 22c0-.1-.1-.2 0-.3s.3-.2.4-.1c.1.1.2.3.2.5s-.1.2-.2.3c-.1.1-.3.2-.4.1-.1-.1-.1-.2-.1-.3 0 0 .1 0 .1-.2zm-1-2.6c0-.1.1-.1.1-.1v-.1l.1-.1v.1s.1-.1.1 0 0 .1-.1.2 0 0 0 .1v.3c0 .1 0 .1-.1.1s-.1-.1-.1-.1v-.4zm-.2.5c.1.1.1.2.1.3s-.1.2-.1.3c0 .1-.1.1-.1.1s-.1-.1-.1-.2-.1-.2-.1-.4c-.1-.1.2-.1.3-.1zm-2.9 2.2c-.1 0 0 0 0 0v-.2h.2c.1 0 .1 0 .1.1v.1s-.2.1-.3 0zm2.4.6c-.1 0-.2-.1-.3-.1-.1 0-.2 0-.3.2-.1.1-.3.2-.4.1s-.2-.1-.2-.2-.1 0-.1-.1.3-.1.4-.2c.1 0 .1-.2.2-.2s.2-.1.3-.1c.1 0 .3.2.3.2.1.1.1.1.1.2s.1.2 0 .2zm-1.9-16c.1 0 .1 0 .1.1v.1s0 .1-.1.1-.2.1-.3 0c-.1-.3.2-.4.3-.3zm-.8 8.8c.1 0 .1 0 0 0 .1.1 0 .2 0 .2s-.1 0-.1-.1.1-.1.1-.1zm.3.4c.2-.1.1.1.3.1.1 0 .2-.2.3-.2s.3 0 .4-.1l.3-.3c.1-.1.3-.1.4 0 .1.1.1.1 0 .3-.1.1-.1.3-.3.4-.2.1-.7.1-.9.2-.2.1-.1.2-.3.3-.1.1-.3.1-.4.1h-.1s-.1 0 0-.1c0-.2.2-.6.3-.7zm-.3 4.6c.1-.1.3-.1.4-.2.1-.1 0-.2 0-.3 0-.1.1-.3.2-.4.1-.1.2-.1.3-.1s.2 0 .3.1c.1.1.1.3.1.4s-.2.1-.4.2c-.1.1-.1.4-.3.5-.2.1-.4.1-.6.1-.2 0-.2-.2-.2-.3.2 0 .2.1.2 0zM31.2 54.4v.3c0 .1-.2.3-.3.2-.1-.1-.2-.1-.1-.3 0-.1.2-.2.2-.3 0-.1.1-.2.2-.3s.2 0 .3.1c-.1.2-.3.2-.3.3zm.9-6.4c-.1.1 0 .2-.1.4s-.2.3-.3.4c0 .1-.2.2-.2.3v.2c0 .1-.2.1-.2.2v.2c0 .1-.1.1-.1.1s-.1 0-.1-.1v-.4c0-.1.2-.1.2-.2v-.2c.1-.1.2-.1.2-.2.1-.1-.1-.3 0-.4.1-.1.2-.3.3-.4.1-.1.1-.4.3-.3s.1.3 0 .4zm.8 2.9v.4c0 .1-.2.1-.2.2v.2c0 .1-.1.1-.2.2s0 .3-.1.3-.1-.1-.1-.2.1-.4.2-.5c.1-.1.2-.3.3-.4.1-.1 0-.3.1-.4 0-.1.1-.1.2-.2.1 0 .3 0 .3.1s-.4.2-.5.3zm1.4-2.5c-.1.1-.3.4-.4.6s0 .1-.1.2c0 .1-.1.1-.1.1-.1 0-.1 0-.1-.1v-.4c0-.1.2-.2.2-.2.1-.1 0-.1.1-.2s.2-.3.3-.3c.3 0 .3.1.1.3zm1.1-2.1c-.1.1-.4.1-.4 0-.1-.1.2-.1.2-.2v-.2c0-.1 0-.1.1-.1s.1 0 .1.1.1.3 0 .4zm.4-1.5c-.1-.1-.1 0-.1-.1v-.8c0-.2.2-.1.2-.2v-.2c0-.1 0-.1.1-.1s.1 0 .1.1v.4c0 .1-.2.1-.2.2s.2.1.2.3v.4c0 .1-.2.1-.3 0zm-2.6 55.8c0 .1-.1.1-.2.1v.2s0 .1-.1 0l-.1-.1c0-.1.1 0 .2-.1s0-.2 0-.3c0-.1 0-.1.1-.1s.1.1.1.2v.1zM37.1 43c-.1 0-.3 0-.4-.1 0-.1-.1-.1 0-.3.1-.1.4-.1.5-.1s.1.2.1.3c0 .2-.1.2-.2.2zm2.6-10.6c.1-.1.1-.3.3-.3.1 0 .2.2.1.3-.1.1-.1.3-.3.3-.2 0-.2-.2-.1-.3zm.3 7.1c-.1.1-.3.4-.3.6-.1.1-.1.1-.1.3 0 .2-.1.3-.2.5-.1.1-.1.3-.2.4-.1.1-.2.1-.3-.1s.1-.1.2-.3c0-.1-.2-.1-.2-.3v-.4l.3-.3c.1-.1.3 0 .4-.2s0-.3 0-.4c0-.1-.2-.1-.2-.3 0-.1.2-.1.3-.1.1 0 .3.2.4.3s0 .1-.1.3zm.2-.9c-.1.1-.2 0-.3 0s-.1-.1-.2-.2-.1 0-.1 0v.1s0-.1 0 0c0 0 0 .1-.1.1h-.1c-.1 0-.1-.1 0-.1 0-.1.1 0 .2-.1.1 0 0-.1 0-.1.1-.1.2-.1.2-.2v-.3c0-.1-.2-.1-.2-.2v-.1h-.1.1s-.1 0-.1-.1c0 0-.1 0 0-.1s.1-.1.1 0c.1 0 0 .1.1.2s.4-.1.5 0l.3.3c.1.1.1.3 0 .4s-.1.3-.3.4zm-2.3 43.5c-.1.1-.1.1-.2.1s-.1-.1-.1-.2v-.4c0-.1.2-.1.2-.2.1-.1.1-.1.2-.1s.1.1.1.2v.4c0 .1-.1.2-.2.2zm2.6-32.3c0 .1 0 .1-.1.2s-.1.3-.2.2c-.1-.1-.1-.4 0-.6.1-.1.2-.1.3-.1.1 0 .1.1.1.1 0 .1 0 .1-.1.2zm1.2-20.4c-.1.1 0 .1 0 .2s-.2.1-.2.3v.4l-.3.3c-.1.1-.1.1-.2 0-.1 0-.3-.2-.3-.3s.1-.3.3-.3c.2-.1.3-.1.3-.3 0-.2.2-.2.2-.3V29c0-.1-.2-.1-.2-.2s.1-.1.2-.2 0-.1 0-.2l.3-.3c.1 0 .3-.1.4 0s.2.2.1.3c-.1.1-.2.3-.2.5s-.2.2-.2.4c0 0-.1 0-.2.1zm.3 16.2c0 .1 0 .2-.1.3s-.4.2-.4 0c0-.1.2-.1.2-.2s0-.2.1-.3.4-.2.4 0-.1.1-.2.2zm.2 6.6c-.1 0-.1 0-.1-.1-.1-.1 0-.3 0-.4 0-.1 0-.1.1-.1s.1 0 .1.1.1.1.2.1.1 0 .2.1.1.1.1.3h-.6zm1.3-26c-.1.1-.1.1-.2.1s-.1-.1-.1-.2v-.2c0-.1.1-.1.2-.2s.1-.1.2-.1.1.1.1.2v.2c0 .1-.2.2-.2.2zm2.4-5.9c0-.1.2-.2.3-.3.1 0 .1 0 .2.1 0 .1.1.1 0 .2 0 .1-.2.2-.3.3s-.1 0-.2-.1v-.2zm-.6 1.6c0-.1.2-.2.3-.3.1 0 .1 0 .2.1 0 .1.1.1 0 .2l-.3.3c-.1 0-.1 0-.2-.1v-.2zm-.4 38.6c0 .1-.2.1-.2.2v.2c0 .1 0 .1-.1.1s-.1 0-.1-.1v-.4c0-.1.2-.1.2-.2v-.2c0-.1 0-.1.1-.1s.1 0 .1.1c.1.1.1.3 0 .4zm4-13.9c-.1.1-.2.1-.2.3-.1.2-.1.8-.2 1.1-.1.2-.2.3-.3.5 0 .2-.1.4-.2.5s-.2.4-.3.5c-.1.1 0 .1-.1.3l-.3.3c-.1.1 0 .3-.1.4 0 .1-.2.2-.2.3s.1.1.2.2c0 .1-.1.3-.2.4s-.1.2-.1.2c-.1.4 0 .8-.1 1.2 0 .1.1.1-.1.2s-.2.4-.1.6c.1.2-.3.1-.4.3-.1.1 0 .1 0 .2s.2.1.2.2v.2c0 .1-.2.1-.2.2s.1.1.2.2v.4c0 .1-.1.1-.2.2s-.1.2 0 .3c.1.1.2.2.1.3 0 .1-.1.1-.1.2-.1.1-.1.2-.2.2s-.1-.1-.2-.1-.1-.1-.2 0-.3.2-.4.3c-.1.2-.1.4-.1.6 0 .2.2.1.3.2s.1.2.1.3c0 .1.1.2.2.3s0 .2 0 .3-.1.1-.2.2v.3c0 .1-.2.3-.3.2-.1-.1-.1 0-.1-.1 0-.2.1-.4 0-.6s-.4-.5-.5-.7c-.1-.2.1-.3.1-.4s.1-.1.1-.1c.1-.3.1-.9.1-1.1.1-.3.2-.3.3-.5.1-.2.2-.2.2-.3v-.4c0-.1-.2-.1-.2-.2s.2-.1.2-.3V54c0-.1.1-.1.2-.2s.1-.1.1-.3c0-.2 0-.6.1-.8 0-.2.2-.2.2-.4 0-.1.1-.2.2-.3.1-.1.1 0 .2-.1s.3-.2.3-.3-.2-.1-.2-.2V51c0-.1.2-.2.2-.3.1-.1 0-.3.1-.4.1-.1.2-.2.3-.4 0-.1.1-.2.2-.3.1-.1.1-.1.1-.2.1-.4.1-.8.1-1.2 0 0 0-.1.1-.1 0-.1.1-.1.2-.2 0-.1.1-.3.2-.4.1-.1.1-.2.2-.3s.2-.2.2-.3 0-.1.1-.2l.3-.3c.1-.1 0-.2 0-.2 0-.1 0-.1.1-.1s.1 0 .1.1-.1.3-.1.4zm1.4-28.3c-.1.1-.2.4-.2.5-.1.2-.1 0-.1.2s.1.6.1.9c-.1.2-.3.3-.4.5s-.2.2-.2.3c0 .1-.1.3-.2.4 0 .1 0 .2-.1.3s-.1.2-.1.3c0 .1-.1.2-.2.3 0 .1.1.3 0 .4-.1.2-.4.4-.5.5-.1.1-.1 0-.2.1s-.2.2-.2.3c0 .1-.1.1-.2.2s.1.3 0 .4c-.1.1-.2.3-.2.5 0 .1-.1.1-.1.2s-.1 0-.2 0-.1 0-.1.1v.2c0 .1-.2.2-.2.2v.2l-.3.3c-.1 0-.1.1-.3 0-.1-.1-.2-.2-.1-.4l.3-.6c.1-.2.2-.3.3-.4.1-.1.3-.2.3-.3.1-.1 0-.1 0-.3.1-.1.2-.1.2-.3s.1-.3.2-.4c0-.1.1-.2.2-.4 0-.1.1-.3.2-.5.1-.1 0-.3 0-.4 0-.1.2-.2.2-.3v-.2c0-.1.1-.1.2-.2s-.1-.1 0-.2.1-.3.2-.5.6-.6.7-.8c.1-.2 0-.2 0-.3.1-.1.2-.1.2-.3s0-.2.1-.3.1-.1.1-.2 0-.4.1-.5c.1-.1.1 0 .3 0s.2.2.1.3.1.1.1.2zm.1-5.4c.2 0 .2.3 0 .4-.1-.1-.1-.4 0-.4zm3.4-.8c0 .1-.1.2-.2.3v.2c0 .1-.2.1-.2.3 0 .1.1.3 0 .4s-.1.3-.2.5-.1.3-.2.5c-.1.1-.2.3-.2.5s0 0-.1.1-.1 0-.2 0l-.3.3v.4c0 .1.2.1.2.3 0 .1-.1.1-.2.3 0 .2-.1.3-.3.3-.2.1-.2.2-.3.4s0 .2-.1.3c-.1.1 0 .2-.1.3-.1.1-.1.3-.3.3-.1 0-.3-.1-.3-.2-.1-.1-.1-.2-.1-.3l-.2-.2c-.1-.1-.1-.4-.1-.5 0-.1.1-.1.1-.2v-.3c0-.1.1-.2.2-.3h.4c.1-.1.1-.2.1-.3 0-.1-.2-.1-.2-.3 0-.1-.1-.1 0-.3.1-.1.4 0 .5.1s0 0 .1 0 .1-.1.2-.1.2 0 .3-.1c.1-.1 0-.1 0-.2v-.1-.1c0-.1.1-.1.1-.2.1-.1 0-.3 0-.4-.1-.1-.1 0-.1-.2s.1-.3.2-.3H52.9l.3-.3c.1-.1 0-.1 0-.3 0-.1.2-.1.2-.3s-.1-.6 0-.8c.1-.2.2-.2.3-.1.1 0 .3.2.3.3-.1 0-.2.2-.2.3zm-1.9 56.3c-.2 0-.2-.4 0-.4s.2.5 0 .4zm3.4-5.3c0 .2-.4.1-.4 0s0 .3-.1.4-.2.1-.2.2 0 .3-.1.4-.2.1-.2.3c0 .2-.1.8-.1 1s-.2.2-.3.2 0 .3 0 .4c-.1 0-.1.1-.1.1-.1 0-.1-.1-.1-.2s.1-.1.1-.2.3-.1.2-.1.1-.3 0-.4l-.4-.4c-.1-.2.1-.3 0-.5s-.2-.4 0-.6c.2-.1.5.1.6 0 .2 0 .1-.1.2-.2s.1-.3.1-.4.4 0 .4 0 .1-.4 0-.4l-.4-.4c-.1-.1 0-.2 0-.3 0-.1 0-.1.1-.1s.3 0 .5.1c.1.1.2.3.3.5.1.1-.1.4-.1.6zm1.8 6.6v.6c0 .1 0 .1-.2.1s-.3-.2-.3-.3v-.3c.1-.1.2-.2.3-.2.1-.1.2 0 .2.1zm-.3-3.4c0-.1.1 0 .2-.1s0-.2 0-.3c0-.1.1-.1.1-.1s.1.1.1.2 0 .1-.1.2c0 .1-.1.1-.2.1v0s0 .1-.1.1h-.1c.1 0 .1-.1.1-.1zM55 88.7c0 .1-.1.1-.2.1v0s0 .1-.1.1h-.1s-.1-.1 0-.1c0-.1.1 0 .2-.1s0-.2 0-.3c0-.1.1-.1.1-.1.1 0 .1.1.1.2.1.1.1.2 0 .2zm.5 5.5c-.1 0-.1-.1-.2-.2s-.1 0-.2-.1c-.1 0-.1 0-.2-.1v-.2c0-.1.2-.2.3-.3h.2c.1 0 .2.2.2.2h.2c.1.1.1.3.1.4l-.3.3h-.1zm.9.7c-.1.1-.3 0-.4 0s-.2-.1-.1-.2.2 0 .3-.1c.1-.1.2-.3.4-.3s.2.2.1.3l-.3.3zm.4-1.2c-.1-.1.2-.1.2-.2s-.2-.1-.2-.2.2-.1.3-.1.2.2.3.3c0 .1.1.2 0 .3s-.5 0-.6-.1zm2.3-32.9c-.1 0-.1 0-.1-.2s0-.6.1-.8.2-.3.3-.3c.1 0 .1 0 .1.2s0 .6-.1.8-.2.2-.3.3zm1.2.4s.1.3.1.4c0 .1-.1 0-.1-.1 0 0-.1-.3 0-.3zm-.2 3.8c.1 0 .1 0 .1.1v.4c0 .1-.1.1-.1.1-.1 0-.1 0-.1-.1v-.4c0-.1.1-.2.1-.1zm0 1.2c-.2 0-.2-.4 0-.4.1.1.1.4 0 .4zm1.2-6.3c-.1 0-.3 0-.3.1-.1 0-.2.2-.3.2s-.1.1-.2 0 0-.2 0-.3c0-.1.1-.1.2-.2 0-.1.2-.5.4-.6.1-.1.2 0 .2 0 .1 0 0 0 .1.1 0 .1.1.4.1.5v.2c-.1-.1-.1-.1-.2 0zm1.4-17.5c0 .1-.2.1-.2.1v.3s0 .1-.1.1-.1-.1-.1-.2.1-.1 0-.2.2-.1.2-.1v-.3s0-.1.1-.1.1.1.1.2v.2zM62 58.3c-.1.1-.1.1 0 0-.1 0-.1 0-.1-.1v-.4c0-.1 0-.1.1-.1s.1 0 .2.1v.4c0 .1-.2.1-.2.1zm.8-1.5c-.1.1-.2.1-.2.1-.1 0-.1 0 0-.1 0-.1.2-.2.2-.3v-.2-.1s0 .1.1.1c0 0 .2 0 .2.1-.1.2-.3.3-.3.4zm.2 2.4c-.1.1-.1.2-.2.3-.1 0-.2-.1-.2-.2v-.1c.1-.1.1-.2.2-.2.2-.1.2.1.2.2zm.3-1.8c0-.1.1-.2.2-.3.1-.1.3-.1.3-.3 0-.2.1-.1.2-.3s0-.2-.1-.3c0-.1-.2-.1-.2-.2s.1-.1.2-.2c0-.1-.1-.1 0-.2s.1-.2.3-.3c.1-.1.3-.1.4-.1.1 0 .2.1.1.3s-.1.3-.2.4-.1.2-.1.3c0 .1-.1.2-.2.3v.2c0 .1-.1.1-.2.2 0 .1.1.2 0 .4 0 .1-.2.2-.3.3-.1.1-.1.1-.2.1s-.2-.1-.2-.3zm.4 6.6c0-.1.1-.1.2-.1v.2s0 .1-.1.1-.1-.1-.1-.1h-.1s-.1 0-.1-.1h.2s-.1 0 0 0c0 .1 0 0 0 0zm-.4-.8s-.1 0 0 0c0-.1 0-.1.1-.1s.1.1.1.1c0 .1-.1.1-.2 0h.2c-.1.1-.2.1-.2 0zm1 1.5c-.1.1-.1.4-.2.5-.1.1 0 .1 0 .2s0 .3-.1.4c-.1.1 0 .2-.1.3-.1.1-.2.1-.3 0s.1-.1.1-.2-.2-.1-.2-.2-.1-.2-.1-.3c0-.1.1-.2.2-.3.1-.1.3-.1.3-.2s0-.2-.1-.3-.3-.1-.3-.2.1-.1.3-.1c.1 0 .4.1.4.2s.2.1.1.2zm0-.7c-.1.1-.2 0-.2.1H64s.1 0 .1-.1c0 0-.1.1-.1 0s.1-.2.1-.3c.1-.1 0-.2 0-.2 0-.1-.2-.1-.2-.2.1-.1.2-.1.3 0 .1 0 .3.1.4.2.1.1.1.2.1.3-.2 0-.3.1-.4.2zm.9-46c-.2 0-.5-.3-.6-.4-.1-.1-.2-.3-.1-.5 0-.2.1-.2.3-.1s.2.4.2.5c.1.1.2.1.2.2s.2.3 0 .3zm1.1 40.8c0 .1 0-.1 0 0-.1.2-.1.6-.2.7s-.3.3-.3.4c-.1.1-.2 0-.2 0s0 .5-.1.5-.1.1-.1.1c-.1 0-.1 0-.1-.1s0-.4.1-.4.2-.1.2-.1 0-.3.1-.4c.1 0 .2-.1.2-.2v-.4c0-.1.1-.1.2-.2.1 0 0-.1 0-.1l.1-.1v.1s.1-.1.1 0c.1.1 0 .2 0 .2zm.8-35.4v-.1c0-.1 0-.1.1-.1 0 0 .1 0 .2.1v.1c0 .1.1.1 0 .2-.2 0-.3-.1-.3-.2zm1 13.8c0-.1-.1-.4 0-.5 0-.1.1-.1.2-.1s0-.1 0-.1l.1-.1v.1s.1-.1.1 0 0 .1-.1.2v.6c-.1-.1-.1 0-.3-.1 0 .1.1.1 0 0zM68 41s-.1 0 0-.1c0-.1.1-.1.2-.1s0 0 0 .1c-.1 0-.1.1-.2.1.1 0 .1.1 0 0zm-.1 28.2c0 .1-.3.2-.4.1-.1-.1.1-.1.1-.2s-.1-.1 0-.2c0-.1.3-.2.4-.1s-.1.1-.1.2v.2zM85 29.1c.1-.1.2 0 .3.1.1.1 0 .1-.1.2-.1 0-.1.2-.2.2-.2-.1-.1-.4 0-.5zm-.6 2.9c0-.1 0-.1 0 0 .2-.1.2-.1.3-.1s.1-.2.2-.2.3.2.3.3-.2.1-.3.1-.2.1-.3.2c0 0-.1-.2-.2-.3zm-.3 5.3V37c0-.1 0-.1.1-.1.1-.1.2-.3.2-.4 0-.1.2-.1.2-.1v-.3l.1-.1c.1 0 .1.1.1.2s-.1.1 0 .2-.2 0-.2.1v.6c0 .1-.2.1-.2.3 0 .1.2.1.2.3-.1.2-.3.3-.4.4-.1.1 0 .1-.1.2s-.2.3-.2.4c-.1.2-.5.4-.6.6-.1.1-.1.2-.1.3s-.2.1-.2.1v.3l-.1.1c-.1 0-.1-.1-.1-.2s.1-.1 0-.2c0-.1.2 0 .2-.1V39c.1-.1.2-.2.2-.3v-.2c.1-.1.2-.1.2-.3v-.6c0-.1.3-.1.4-.1.2.1.3-.1.3-.2zm-7.2 4.8c.1-.1.1-.4.3-.5s.2 0 .3 0c.1 0 0-.1 0-.1l.1-.1v.1s.1-.1.1 0-.1.1-.1.1h-.1c-.1 0 0 .2-.1.4-.1.1-.3.2-.4.4-.1.1 0 .3 0 .5 0 .1-.1.2-.2.1s-.3-.2-.2-.3l.3-.6zm-2.4 6.2c0-.1.1 0 .2-.1v-.3c0-.1.1-.1.2-.2s0-.1 0-.1l.1-.1v.1s.1-.1.1 0-.1.1-.1.1h-.1c0 .1-.1.2-.1.3s-.1.2-.2.1c-.1 0 0 0 0 0v0s0 .1-.1.1c0 0 0 .1-.1 0 .1.2.1.2.1.1zm-3.6 34.1c-.1.1-.2.4-.4.4s-.2-.3-.1-.5c.1-.1.2-.4.4-.4.1.1.2.4.1.5zm2.7-6c-.1.2-.2.5-.3.7-.1.2-.2.4-.2.6s-.1.2-.2.3c-.1.1 0 .2 0 .3-.1.1-.2.2-.3.4 0 .2.1.4 0 .6-.1.2-.2.3-.4.5-.1.1-.2.1-.3.1-.2 0-.5-.2-.4-.4s.1-.4.3-.5.4-.3.4-.5.2-.2.2-.4v-.6c0-.2-.3-.2-.3-.3 0-.2.2-.2.2-.4.1-.1-.1-.2 0-.3s.2-.4.4-.4c.2-.1.4-.1.6 0s.4.1.3.3zm1.3-11.9c-.1 0-.1 0-.1-.1s-.1-.4-.1-.5.1-.2.2-.2.1 0 .1.1c.1.1.1.4.1.5 0 .1-.1.2-.2.2zm.8-14.8h-.2c-.1.1-.3.2-.3.3 0 .1.1.2.2.3s0 .2 0 .3c.1.1.3.1.3.2.1.1 0 .1-.1.2h-.4c-.1.1-.1.2-.2.3 0 .1-.1.2-.2.3-.1.1-.1.4.1.5s.1-.2.3-.1c.1.1.1.2.1.3-.1.1-.3.1-.4.2-.1.1-.3.2-.3.3s0 .3-.1.4-.2.1-.3.1c-.1 0-.1-.2-.2-.2s-.1-.1-.2 0-.3.2-.3.3c-.1.1 0 .2 0 .4s.1.2.2.2h.3c.1 0 .1.2.1.3-.1.1 0 .1-.1.1-.2 0-.5 0-.7.1s-.2.4-.3.5c-.1.2-.2.3-.4.3-.2.1-.6 0-.8 0s-.2 0-.2-.1.2-.3.3-.4c.1-.1.2 0 .3-.1.1-.1.3-.2.3-.3v-.2c.1-.1.2-.2.2-.3v-.2c.1-.1.2-.1.2-.3.1-.1 0-.3.1-.4.1-.2.3-.5.4-.7.1-.2 0-.3.1-.4.1-.2.2-.3.3-.5 0-.2.2-.1.2-.4 0-.2 0-.8.1-1s.2-.2.2-.3c.1-.2 0-.3 0-.4.1-.1 0-.1.1-.1s.5 0 .7-.1c.2-.1.1-.4.2-.5.1-.2.2-.3.2-.5s.1-.1.2 0l.1.1c.1.2.1.6.2.8.1.2.2.5.3.6.1.1 0 0 0 .1s0 .1-.1.1h-.1-.3c-.1 0 0-.1-.1-.1zm-.6 23.6c-.1.1-.1.2-.2.1-.1 0-.1-.1-.1-.2V73c0-.1.2-.2.3-.3.1-.1.1-.2.2-.1s.1.1.1.2v.2c0 .1-.3.2-.3.3zm2.4-26.5l-.4.4c-.1.2 0 .3 0 .5 0 .1.2.1.2.3v.4c0 .1-.2.2-.2.3v.2c0 .1-.1.1-.1.1-.1 0-.1 0-.1-.1v-.2c0-.1-.2-.2-.2-.2v-.2c-.1-.1-.2-.3-.3-.3H76c-.1 0 0 .1 0 0s-.1-.4 0-.6c.1-.2.6-.4.6-.7.1-.3-.3-.3-.3-.5v-1.1c0-.2 0 0 .1-.2s.5-.4.6-.6c.1-.2-.2-.1-.1-.3s.4-.4.5-.5c.1-.1.1.1.1-.1.1-.1 0-.4 0-.5s.3-.3.4-.4c.1-.1.2-.2.3-.4l.3-.6c.1-.2.2-.2.2-.3v-.3c0-.1.1-.2.2-.2s.1 0 .2-.1l.3-.3c.1-.2 0-.5 0-.7.1-.2.3-.2.4-.4.1-.2.1-.3.2-.4.2 0 .2-.1.3-.2 0-.1.1-.1 0-.2 0-.1.2-.1.2-.1v-.4l.2-.1s-.1-.5 0-.6c.1-.1.3-.1.4-.2l.3-.3c.1-.1 0-.1.1-.3s.5-.4.6-.6c.1-.2 0-.3.1-.5.1-.1.2-.2.2-.3.1-.1 0-.1 0-.2s.2-.2.2-.2c.1-.1-.1-.2 0-.2.1-.1.1-.4.3-.2.2.1.6.6.7.8.1.2-.1.1-.1.3v.4c0 .1-.2.2-.2.3-.1.1.1.1-.1.3s-.5.4-.6.6c-.1.2-.1.3-.2.4-.1.1-.1.2-.1.4s-.2.2-.3.3c-.1.2 0 .4 0 .5-.1.1 0 .1-.1.1-.1.1-.3-.1-.3-.2V38c0-.1.2-.2.2-.3 0-.1 0-.2-.1-.3-.1-.1-.3-.1-.5 0-.1 0-.2.2-.2.3 0 .1-.2.1-.2.1v.4l-.2.1s-.1.5 0 .6.3.2.4.2 0 .2 0 .3.2.1.2.2v.3c0 .1-.1.2-.2.2s0 .5 0 .4c0-.1.5 0 .5 0 .1 0 .1.1.1.2v.6c-.1.2-.2.3-.3.3h-.1c-.1 0-.2 0-.2-.2v-1c0-.1-.1 0-.2-.1 0-.1-.1-.2-.2-.2s-.1-.1-.2 0-.3.1-.3.4c-.1.3 0 .8-.1 1.1-.1.3-.3.2-.4.4-.1.2 0 .4-.1.5-.1.2-.3.3-.4.4s-.1.3-.2.4c-.1.1-.1.2-.2.4s-.5.4-.6.6c-.1.2 0 .1-.1.3s.2.1.2.3c0 .1-.2.1-.2.3v.4c-.1.1-.2.2-.2.3s-.1.3-.2.4c0 .3 0 .4-.1.5zm2.6-4c0-.1.2-.2.2-.2v-.2c0-.1.2-.1.3-.1.1 0 .1.1.1.2v.4c0 .1-.2.1-.2.2v.3c0 .1 0 .2-.1.3-.1.1-.2.2-.3.2s-.1-.3-.1-.4c0-.1.2-.2.2-.3V43c0-.1-.1-.1-.1-.2zm-.4 1.6c0 .1-.2.1-.2.2v.2s0 .1-.1.1-.1 0-.1-.1v-.4c0-.1.2-.1.2-.2V44s0-.1.1-.1.1 0 .1.1c.1.1.1.3 0 .4zm-1.3 2c0 .1 0 0 0 0-.1.2-.2.4-.1.5.1.1-.2.2-.2.2v.4s-.2.2-.2.1v.3l-.1.1c-.1 0-.1-.1-.1-.2s.1-.1 0-.2c0-.1.2 0 .2-.1 0 0 .1-.3 0-.3 0-.1.3-.1.3-.1v-.5c0-.1.1-.2.2-.2s0-.1 0-.1l.1-.1v.1s.1-.1.1 0-.2.1-.2.1zm-.6 21c-.1.1-.2 0-.2-.1-.1-.1-.1-.2 0-.3.1-.1.2-.3.4-.4.1-.1.2 0 .2.1.1.1.1.2 0 .3l-.4.4zm.8-2.3c-.1.1-.2 0-.2-.1-.1-.1-.1-.2 0-.3.1-.1.2-.4.4-.4.1-.1.2 0 .2.1.1.1.1.2 0 .3l-.4.4zm0 8.4s0 .1-.1 0c-.1 0-.1-.1-.1-.2s.1-.1.2-.1 0 .1 0 .1v.2zm0-.4s.1-.2.2-.1 0 .2-.1.3-.1-.2-.1-.2zm.2.1s-.1 0 0 0c-.1 0 .1-.2.1-.2s-.1.1-.1.2zm5.7-11.9c-.1.1-.3.6-.3.7-.1.1-.1.1-.1.2 0 .4.1 1 0 1.3-.1.3-.4.5-.5.7l-.1.1c.1 0 .2-.2.3-.2h.4c.1 0 .2.1.2.2s.2-.1.2 0c.1.1.2.1.1.3-.1.2-.4.5-.6.6s-.5 0-.6 0c-.2 0-.1 0-.2.1s-.1.1-.2.1-.1-.1-.1-.2c0 0 .1-.2 0-.2s-.1.2-.1.3c0 .1-.1.3-.2.4s-.1.3-.1.4c0 .2-.2.2-.3.4s.1.4 0 .6c-.1.2-.5.6-.7.8-.2.2-.2 0-.3.1-.1.1-.1.3-.2.5 0 .2-.2.2-.2.3 0 .2.1.4 0 .6-.1.2-.3.5-.3.7 0 .2-.1.2-.2.2-.1.1-.2 0-.3.1-.1.1-.1 0-.1.1v.3c0 .1-.2.2-.3.4-.1.1.1.2 0 .3-.1.1-.2.4-.4.4-.2.1-.2.1-.3 0-.2-.1-.3-.3-.1-.5.1-.2.3-.7.4-.9s.3-.4.4-.6.4-.3.5-.5c.1-.2 0-.2 0-.4.1-.2.2-.2.3-.4 0-.2.2-.4.3-.7.1-.2.2-.4.2-.6s.2-.5.3-.7c.1-.2 0-.4 0-.6.1-.2.2-.3.3-.4.1-.1 0-.2 0-.3.1-.1.2-.2.3-.4.1-.2-.1-.1.1-.4s.1-.4.3-.7c.2-.3.8-.9 1.1-1.3.1-.1 0-.2 0-.3 0-.1.2-.2.3-.4 0-.1 0-.3.1-.4s.2-.1.2-.3c0-.2 0-.6.1-.7.1-.1.2-.1.4-.1.1 0 .2.2.2.3-.2.6-.1.5-.2.7zm.3-7.2c-.2 0-.3-.5 0-.5.2 0 .3.4 0 .5zm1-23.9c-.1-.1 0-.1 0-.2l.3-.3c.1-.1.1 0 .2 0s.1.2.2.2.2-.1.3-.2c.1-.1 0-.2 0-.3 0-.1-.2-.1-.2-.3 0-.1-.1-.1 0-.3s.5-.4.6-.6c.1-.1.1-.3.2-.4s.1 0 .3 0c.1-.1.3-.4.5-.3s.4.2.5.1 0-.1 0-.2-.1-.1-.1-.2-.1 0-.1-.1v-.2c0-.1 0-.1.1-.1h.6c.1 0 .1.1.2.2s0 .2-.1.3h-.2c-.1 0-.2 0-.1.1s.2.4.1.5c-.1.1-.2 0-.3.1-.1.1-.1.3-.2.4l-.3.3c-.1.1-.2 0-.3 0-.4.3-.8.7-1.2 1.1 0 0-.1-.1-.1 0s.1.2-.1.4c-.1.2-.5.5-.7.6s-.1 0-.1-.1.1-.4 0-.5zm6.1 8.3c0 .1-.2.1-.2.1v.3l-.1.1s-.1-.1-.1-.2.1-.1 0-.2.2-.1.2-.1v-.3l.1-.1c.1 0 .1.1.1.2.1.1 0 .2 0 .2zm.4-10.2c-.1.1-.1-.1-.3 0-.2.1-.6.6-.8.7-.1.1 0 .1-.1.2s-.3.1-.4.1c-.4.4-.9.7-1.3 1.1-.1.1 0 .2 0 .2s-.2.1-.2.2v.2c0 .1-.2.1-.2.2-.1.1 0 .1-.1.3-.1.1-.4.3-.5.5-.1.1-.2 0-.2 0v.6l-.2.2c-.1.1.1.1 0 .2l-.3.3h-.6c-.2 0-.4.4-.4.5s-.1.1-.1.1c0 .1-.1 0-.1 0s.1.5 0 .6l-.2.2v.1s0 .2-.1.2-.1 0-.1-.1v-.5c.1-.1.3-.3.2-.4 0-.1.2-.1.2-.1s.1-.6 0-.7l-.4-.4c-.1-.1.2-.2.2-.3v-.2c.1-.1.2-.1.3-.1.1 0 .2-.1.3-.2s.1 0 .2 0 .1-.2.2-.2.2.2.2.2c.1 0 0 0 0 0l.2-.1h.2l.2-.2h.1v-1c.1-.1.4-.1.4-.3 0-.2-.3-.2-.5-.1-.1 0-.2.1-.3.2s-.2 0-.3-.1c-.1-.1-.1-.1-.1-.2s0-.1.1-.2h.2c.1 0 .1-.2.3-.2.1 0 .3.1.5 0 .6-.5 1.1-1 1.7-1.5 0 0 .1.1.2 0s.2-.4.3-.5 0 0 .1-.2c0-.1.1-.2.3-.2h.4c.1-.1.2-.3.4-.3s.3.2.3.3c.2.8.2.8.1.9zM98 34c-.1 0 0 0 0 0-.1.1-.1.4-.1.5 0 .1 0 .1-.1.1s-.1 0-.1-.1V34c0-.1.1-.1.2-.1s0-.1 0-.1l.1-.1v.1h.1c0 .1-.1.2-.1.2zm2.3-17.1c-.2-.1-.4-.3-.5-.5-.1-.2-.1-.4 0-.5.1-.1.2-.1.3-.1.1.1.1.4.1.5s.1.2.2.3.1.3-.1.3zm1.4 4.3c-.1.1-.3.1-.3 0v-.1c0-.1 0-.1.1-.1h.2s.1 0 0 .2c.1-.1.1-.1 0 0zm.1-1.2c-.2 0-.1-.2-.1-.3 0-.1 0-.1.1-.1s.4 0 .5-.1c.1-.1.1-.2.1-.3.1-.1.2-.3.3-.3h.3c.1 0 .2 0 .2.2s0 .3-.1.4c-.1.1-.3.1-.4.1s-.3.3-.5.4c0 .1-.3.1-.4 0zm1.8 2c0 .1 0 .1-.1.1s-.1-.2-.2-.2-.2 0-.3.1c-.1.1-.3.1-.4 0l-.2-.2c-.1-.1-.1 0 0-.1s.4-.1.5-.1c.1 0 .2-.2.3-.2h.3c.1 0 .2.2.2.3-.1.2-.1.3-.1.3zm.3-6.1c-.2 0-.2.2-.3.2h-.4c-.1 0-.1 0-.1-.1s-.1 0 0-.1.4-.4.5-.4c.2 0 .1.1.2.1s.2-.1.3-.1h.4c.1 0 .2-.2.3-.2.1-.1.3 0 .3.1s.1.1 0 .2-.2.2-.4.3-.6 0-.8 0zm.8 4.4c-.1.1-.1.1-.2.1-.1-.1-.1-.1-.1-.2v-.3c0-.1.3-.1.4 0 .1.1 0 .2 0 .3 0 0-.1 0-.1.1zm.5-.8c0-.1 0-.1.1-.2s.1-.1.2-.1 0-.1 0-.1l.1-.1v.1s.1-.1.1 0-.1.1-.1.1h-.1c0 .1 0 .2-.1.3 0 .1-.1.1-.1.1-.1.1-.2 0-.1-.1zm.2 2.9c-.1.1-.3.1-.4 0-.1-.1 0-.2 0-.3s.2-.1.2-.2 0-.2.1-.3c.1-.1.3-.1.4 0 .1.2 0 .3 0 .5-.1.2-.2.2-.3.3z"/><path class="st0" d="M83.4 64.4c-.1 0-.1.2-.1.2v.1l.1-.1v-.2zM70.8 89.7zM71 90.9c-.1 0-.1.1 0 0 0 .1 0 0 0 0zM33 100.7zM111.7 22.2c-.1-.1-.1-.2-.3-.1s-.5.5-.7.6c-.1.1-.2.1-.2.2s0 .2.1.2c.1.1.3.1.5 0s.4-.3.5-.5c.2-.1.2-.2.1-.4zM70.4 42.5h.2c.1-.1.3-.1.3-.3.1-.5.1-.9.1-1.4 0 0-.1-.1-.2-.1s-.2-.1-.3.2c0 .3-.1 1-.1 1.3 0 .2-.2.1-.2.3.1-.1.2-.1.2 0zM57 97.5c-.1-.1-.3 0-.4-.1-.1-.1-.3-.3-.5-.2-.2.1-.3.2-.3.3 0 .2.1.3.3.3.2.1.6.1.8 0s.1 0 .2-.1c0 0 0-.1-.1-.2zM104.9 30.3c-.1-.1-.1-.1-.2-.1s-.1.1-.2.2c-.1 0-.2 0-.3.1 0 .1-.1.4 0 .5.1.1.5.1.6 0s0-.4.1-.5v-.2zM76 41.4c.1 0 .1-.1.1-.2s0-.2-.1-.3c-.1-.1-.1-.2-.2-.2h-.4c-.1 0-.1.1-.1.2s0 .2.1.3c.1.1.1.2.2.2h.4zM100.4 34.7c.1-.1 0-.1 0-.2s.2-.1.2-.2 0-.1-.1-.1c-.1-.1-.5-.1-.6 0-.1 0-.1 0-.1.1v.3c0 .1.2.2.3.3 0 0 .2-.1.3-.2zM90.1 58.1c-.2 0-.2.2-.3.3-.1.1-.1.2 0 .3l.3.3c.1.1.2.1.3-.1.1-.1.1-.4 0-.5 0-.1-.1-.3-.3-.3zM74.1 39.5c-.2 0-.3.2-.2.3l.3.3c.1.1.2.1.3 0s.1-.5 0-.6c-.2-.1-.2 0-.4 0zM73.6 44.5c-.1-.1-.2.2-.3.3-.1.1-.1.4 0 .5.1.1.2.1.3 0 .1 0 .4-.3.3-.4-.2-.1-.2-.3-.3-.4zM95.2 42.8c-.1 0-.3-.1-.4 0-.1 0-.2.2-.1.3.1.1.2.3.3.3.1 0 .2-.2.3-.3.1-.1.1-.3-.1-.3zM91.4 55.3c-.2 0-.3.2-.4.4 0 .1-.1.4.1.4s.3-.2.4-.4c0 0 .1-.3-.1-.4zM83.6 24.3c.1 0 .1.1.2 0 .1 0 .2-.2.1-.3-.1-.1-.1-.3-.3-.3-.1 0-.3.1-.3.3 0 .1.2.3.3.3zM74.4 38.5c-.1 0-.2 0-.3.1-.1.1 0 .2 0 .2 0 .1.2.3.3.3.1 0 .3-.1.3-.3.1-.1-.2-.2-.3-.3zM108.6 15.5v-.4c0-.1 0-.1-.1-.1s-.4-.1-.5 0c-.1.1-.1 0-.1.1.1.1.3.4.4.5.3 0 .3 0 .3-.1zM87.1 21.7c.1 0 .3-.2.3-.3s0-.1-.1-.1-.3-.1-.4 0c-.1.1-.1.3 0 .4.1.1.1.1.2 0zM98.4 40.8c-.1 0-.1 0-.2.1s-.2.1-.2.2-.1.1 0 .2.3.1.4 0c.1-.1 0-.2 0-.3v-.2zM100.5 37.4c-.1 0-.2-.1-.3 0-.1.1-.1.3 0 .4s.2 0 .3 0c.1 0 .2-.1.2-.2.1-.1.1-.1.1-.2h-.3zM110.2 23.5h-.2c-.1 0-.2 0-.2.1s0 .1.1.2.1.2.2.2h.2c.1 0 .2 0 .2-.1s0-.1-.1-.2c0-.1-.1-.2-.2-.2zM77.1 39.6c0-.1.2-.1.2-.2s-.3-.1-.4 0c-.1.1 0 .1 0 .2s0 .2.1.2c0-.1.1-.1.1-.2zM74.5 43.9c.1 0 .1 0 .2-.1 0-.1.2-.1.2-.2s-.3-.1-.4 0c-.1.1 0 .1 0 .1-.1.1-.1.2 0 .2zM101.6 35.5c.2 0 .2-.4 0-.4-.1.1-.1.4 0 .4zM108.2 26.1c.2 0 .2-.4 0-.4-.1 0-.2.4 0 .4zM102.6 33.3s0 .1 0 0c-.1.1-.1.2 0 .2s.1 0 .1-.1 0-.1-.1-.1zM106.7 15.5s0-.1-.1-.1-.1 0-.1.1.1 0 .2 0zM108.6 14.4c.1-.1.1-.2 0-.2s-.1 0-.1.1c0 0 0 .1.1.1zM49.6 54.5c-.1 0-.1.1-.1.1s0 .1.1.1v-.2zM91.5 49.1s0-.1-.1-.1-.1 0-.1.1c0 0 0 .1.2 0-.1.1-.1 0 0 0zM94.1 50.1s0 .1.1.1.1 0 .1-.1c0 0-.1-.1-.2 0 0-.1 0-.1 0 0zM94.7 48.1c-.1 0-.1.1 0 0-.1.1-.1.2 0 .2s.1 0 .1-.1l-.1-.1zM92.7 47.4s0 .1.1.1.1 0 .1-.1c0 .1 0 0-.2 0 .1 0 .1 0 0 0zM93.1 46.9c-.1 0-.1 0 0 0-.1.1-.1.2 0 .2s.1 0 .1-.1l-.1-.1zM99.3 36.9c-.1.1-.1.2 0 .2s.1 0 .1-.1c0 0 0-.1-.1-.1zM99.4 36.5c0 .1.1.1 0 0 .1.1.2.1.2 0s0-.1-.1-.1-.1.1-.1.1zM76.3 40.6s0-.1-.1-.1-.1 0-.1.1c.1 0 .1.1.2 0 0 .1 0 0 0 0zM80.6 32.5c0 .2 0 .1.1.1s.3.1.4 0l.3-.3c.1-.2 0-.4 0-.6s0-.1.2-.2.3.1.4 0c.2-.1.4-.3.5-.5.1-.2.1-.1 0-.3-.1-.1-.2-.3-.4-.3-.2-.1-.5-.1-.7 0-.2.2 0 .5 0 .7 0 .1 0 .1-.1.1h-.1c-.1-.1-.2-.4-.4-.4s-.1.2-.2.3-.2 0-.2.3.2.9.2 1.1zM80.2 32.8c.1-.1.2-.2.1-.3-.1-.1-.1-.1-.2 0-.1 0-.3.2-.3.3 0 .1-.1.2 0 .3.1.1.3.1.4 0 0-.2-.1-.3 0-.3zM77.2 44.4c-.1.1 0 .1 0 .2s-.2.1-.2.3c0 .2-.1.5 0 .6s.2.1.2 0v-.2c0-.1.2-.1.2-.2s0-.1.1-.3c.1-.1.2-.3.3-.5.1-.2.4-.3.4-.5s0-.2-.1-.3c-.1-.1-.4-.1-.5 0s0 .4-.1.5c-.1.3-.2.3-.3.4zM83.1 35.8c.1 0 .1-.1 0 0 .1-.1.3-.2.2-.3-.1-.1-.2-.1-.3-.1-.1.1 0 .3.1.4 0 .1 0 0 0 0zM82.4 37s.1 0 0 0c.1-.1 0-.2-.1-.2 0 0-.1 0-.1.1s.1.1.2.1zM87.1 32.7c-.1 0-.1.1-.1.1s0 .1.1.1c0 0 .1 0 0-.2 0 .1 0 0 0 0zM177.1 47.5h-.3c-.2-.2-.4-.5-.6-.7 0-.4.1-.9.1-1.3 0-.2 0-.2-.3-.3-.1 0-.2-.1-.3-.1-.1-.1-.2-.3-.3-.4l.3-.3c0-.1 0-.2.2-.3.1 0 .3.1.4 0V44c.1-.6.1-1.2.2-1.8 0-.1-.1-.1-.1-.2-.2 0-.3 0-.5-.1-.1-.1-.2-.3-.3-.4v-.2c.1-.1.2-.1.3-.2v-.3c-.2-.1-.2-.3-.2-.5-.1-.1-.1-.2-.2-.3 0-.3.1-.5-.2-.7 0-.2 0-.4-.2-.5 0-.2.1-.5.1-.7-.1-.2-.2-.4-.4-.4s-.3-.1-.5-.1c-.1-.1-.1-.2-.2-.2-.2 0-.4-.1-.5-.3-.2 0-.3-.1-.5-.1-.2-.3-.5-.6-.7-.8-.2-.1-.3-.2-.4-.2 0-.2 0-.3.1-.5.3-.2.5-.4.8-.6v-.1c-.2-.2-.3-.5-.6-.6-.1 0-.2 0-.2-.1-.1 0-.1-.1-.1-.2-.1 0-.2 0-.4-.1-.1 0-.1-.1-.1-.1 0-.1.1-.1.2-.1s.1 0 .2.1c.1 0 .1.1.1.2h.1c.3-.2.7-.5 1-.7v-.3c-.3-.4-.6-.7-.9-1.1v-.2c-.1-.1-.1-.2-.2-.3v-.2c-.2-.2-.4-.5-.6-.7-.1 0-.3 0-.5-.1l-.3-.3h-.2c-.1-.1-.2-.3-.3-.4 0-.1.1-.2-.1-.3-.1-.1-.2-.1-.3-.1-.1-.1-.1-.2-.3-.2-.1 0-.3 0-.4-.1-.3-.2-.5-.6-.7-.8h-.2c-.1-.1-.2-.3-.3-.4v-.2c-.1-.1-.1-.2-.2-.3V27c-.3-.3-.5-.7-.8-1-.3 0-.5-.1-.8-.1-.1-.1-.2-.2-.2-.3-.1 0-.2 0-.2-.1l-.3-.3c-.2 0-.3 0-.5-.1-.2-.3-.4-.5-.7-.8-.2 0-.5-.1-.7-.1-.2-.2-.3-.4-.5-.6-.8-.1-1.7-.3-2.5-.4-.1-.1-.1-.2-.2-.2-.2-.1-.4-.1-.5-.3 0 0-.1-.1-.2-.1s-.2-.1-.3-.1c-.1-.1-.1-.2-.2-.2-.6-.1-1.2-.2-1.7-.3l-.3-.3c-.3 0-.7-.1-1-.2l-.3-.3h-.2c-.1-.1-.2-.2-.2-.3-1.3-.2-2.5-.4-3.8-.6-.1.1-.2.1-.3.2-.3 0-.5-.1-.8-.1-.2.1-.3.2-.5.4-.2 0-.3 0-.5-.1-.1-.2-.3-.4-.5-.5h-.2c-.1.1-.2.1-.3.2-.2 0-.5-.1-.7-.1-.1.1-.2.1-.3.2-.2 0-.3 0-.4-.1-.2 0-.2.2-.3.1l-.2-.2c-.1.1-.2.1-.3.2-.2-.1 0-.4-.2-.5-.5-.1-1-.2-1.5-.2-.2.2-.5.3-.7.5v.2c-.2.2-.5-.1-.7.1-.1 0-.1.1-.2.1-.2 0-.3 0-.5-.1-.1.1-.2.1-.3.2h-.2c-.1.1-.2.1-.3.2-.2 0-.5-.1-.7-.1-.1.3-.5.1-.7.3v.5c-.1.1-.2.1-.3.2.1.2.3.4.4.6 0 .3-.3.3-.5.5-.1 0-.2 0-.2-.1l-.2-.2c-.2-.1-.4-.1-.5-.3h-.1c-.1.2-.4.1-.5.2-.1 0-.1.1-.1.2s0 .1-.1.2h-.3c-.1.1-.2.1-.3.2-.1 0-.2 0-.4-.1v.4c-.2.1-.4.2-.5.3-.1.2-.1.3-.2.4h-.3l-.2-.3c-.2 0-.4-.1-.6 0 0 .1-.1.1-.1.1h-.1c-.1-.1-.1-.1 0-.2s.1-.1.2 0v-.4c.1-.1.2-.1.3-.2v-.3c-.1-.1-.2-.1-.3-.2-.3.2-.5.3-.8.6 0 .2 0 .5-.1.7l-.2.2c0 .2-.1.3-.1.5l-.2.2c-.1.3.1.6-.2.8h-.2c-.4.3-.7.5-1.1.8h-.3c-.3.2-.5.4-.8.6h-.3l-.2.2h-.1c-.2.2-.5.4-.7.5-.3-.2 0-.4-.1-.6.1-.1.3-.2.4-.3.1.1.2.3.4.3 0-.3.1-.6.1-.8l.1-.1c.1 0 .1 0 .1.1v.1c0 .1 0 .2.1.2 0 0 .1-.1.2-.1 0-.2.1-.5.1-.7.3-.2.6-.4.8-.6.1-.3.1-.3.4-.3.1 0 .1-.1.2-.1v-.2c.2-.2.5 0 .7-.1.2-.2.5-.3.6-.5-.1-.2-.3-.3-.4-.5v-.3c.2-.2.4-.3.7-.5h.3c.3-.2.6-.4.8-.6h.3c.1-.2.3-.2.5-.2.2-.1.3-.2.4-.3v-.3c.1-.1.2-.2.3-.2 0-.1 0-.2-.1-.3-.1.1-.2.1-.3.2h-.2c-.3.2-.5.4-.8.6-.2 0-.4 0-.6.2-.1-.1-.2-.2-.2-.3-.2 0-.1.4-.3.4l-.2-.2c-.2.2-.5.3-.7.5v.3c-.2.1-.3.2-.5.4-.1.1 0 .3-.2.4-.2 0-.3 0-.5-.1-.1.1-.1.3-.2.4l-.3.3h-.3c-.2.1-.3.2-.4.3v.3c.1.1.2.3.3.4h.1c.1 0 .1-.1.2-.1.2.4.1.5-.3.5-.2.1-.3.2-.5.4-.1 0-.2 0-.2-.1 0-.3.1-.6.1-.9 0 0 0-.1-.1-.1-.3.1-.4.3-.7.4-.3.2-.5.4-.8.5h-.3c-.2.1-.3.2-.5.4-.3 0-.3 0-.4.2v.1c-.9.6-1.7 1.2-2.6 1.8-.1.1-.3-.1-.4.1v.2c-.1.1-.2.2-.3.2-.1.3-.1.3-.3.3-.1 0-.3 0-.3.1s0 .2-.2.3c-.1 0-.2 0-.4-.1v.1c-.6.4-1.2.9-1.8 1.3h-.1v.2c0 .2-.1.2-.3.2h-.2v.4c-.2.1-.4.3-.7.4h-.2c-.1 0-.1-.1-.1-.1.3-.2.6-.5 1-.7h.1v-.1c.1-.1.3-.2.4-.3h.1v-.4c.1-.1.2-.1.3-.2 0-.2 0-.3.1-.5 0-.1.2-.1.2-.2s-.2-.1-.4-.2c-.1.1-.2.2-.4.3v.2c-.5.3-.9.7-1.3.9-.2.2-.1.4-.3.5-.1.1-.3.2-.4.3v.2c-.1.2-.3.1-.4.1-.2.2-.5.3-.7.5.1.2-.3.3-.3.5 0 .1-.1.2-.2.3-.5.3-1 .7-1.5 1.1 0 .2-.1.4-.3.4v.2c-.1.1-.2.1-.3.2v.2c-.1.2-.4 0-.5.2v.2c-.2.2-.4.3-.6.5v.4c-.1.1-.2.2-.3.2v.4c-.3.2-.6.4-.8.6 0 .2 0 .3-.1.5-.3.2-.5.4-.8.6 0 .1-.1.2-.1.3-.2.1-.3.2-.5.3 0 .1 0 .3-.1.3h-.5c-.1 0-.2.1-.2.1 0 .2-.2.3-.3.5 0 .2-.3.3-.3.5 0 .3-.3.3-.5.5-.1.1-.3.2-.4.3 0 .2-.1.5-.1.7-.1.1-.2.1-.3.2v.5c-.1.1-.2.1-.2.1-.1.1-.1.4-.3.4 0 0 0 .1-.1.1 0 .1 0 .3-.1.4-.2.1-.3.2-.5.4 0 .2-.1.5-.1.7-.1.1-.2.1-.3.2v.5c-.1.1-.2.2-.3.2.1.3-.2.3-.3.4 0 .2-.1.4-.1.5-.3.1-.2.5-.5.6 0 .2-.1.4-.3.4 0 .1 0 .3-.1.3-.2.1-.5-.2-.7.1v.2c-.1.1-.2.2-.3.2 0 .2-.1.4.1.6h.1c.3 0 .3.3.2.4-.1.1-.2.2-.3.4 0 .1-.2.2-.3.3v.4c-.1.1-.2.2-.3.2v.2c.2.2.2.2.5.1v-.2c.2-.2.4-.3.5-.4.2-.4.1-.6.2-.8.1-.1.2-.1.3-.2.1-.1.1 0 .2.1 0 .1 0 .3-.1.5-.1.1-.2.1-.3.2v.5c-.1.1-.2.1-.3.2v.2c-.1.1-.2.2-.3.2v.2c.2.2.4.5.5.7.2 0 .3.1.5.1l.3.3c.1 0 .2.1.3.2-.1.2 0 .4-.2.6-.2-.1-.5 0-.8-.2l-.2-.2h-.1c-.2 0-.3-.2-.4-.3-.2 0-.4-.1-.6-.1-.2 0-.3 0-.3.1v.4c0 .1-.1.1-.3.1-.2 0-.2 0-.3.2 0 .1-.1.3-.2.2-.1 0-.1-.2-.1-.3 0-.2.1-.5.1-.7 0-.1-.1-.1-.2-.2-.2-.1-.3-.1-.5-.1-.1 0-.1-.1-.1-.2-.1 0-.3 0-.4-.1-.1.1-.1.3-.2.4-.2.1-.3.2-.5.4 0 .2 0 .3-.1.5-.1.1-.2.1-.3.2v.2c-.1.1-.2.2-.3.2 0 .2-.1.5-.1.7-.1.1-.2.2-.3.2 0 .3-.1.6-.1.9v.1c-.1 0-.1.1-.2.2v.4c0 .1-.1.1-.1.1-.3.2-.5.4-.8.5.1.2.2.2.3.2l.3.3c.1 0 .2 0 .2.1.1 0 .1.1.1.2s0 .2-.1.2c0 .1-.1.1-.2.1 0 .1 0 .2-.1.2 0 .1-.1.1-.2.1l-.1-.1V58l-.1-.1c-.1.1-.3.2-.4.2v.2c.1.1.2.2.2.3 0 .2 0 .3-.1.5-.3.2-.5.4-.8.6.1.1.1.2.2.3 0 .2-.1.5-.1.7-.2.1-.4.3-.5.4.2.2.3.3.4.5-.1.1-.2.1-.3.2 0 .2 0 .4-.1.7-.1.1-.2.1-.3.2 0 .2-.1.5-.1.7-.1.1-.2.1-.3.2v.2l.2.2v.1c-.1 0-.1.1-.2.2-.1.5-.1 1-.2 1.5-.1.1-.2.1-.2.2s0 .3-.1.5c.1.1.3.3.4.5v.2c-.1.1-.2.1-.3.2v.2c-.1.1-.2.2-.3.2 0 .2-.2.3-.3.4-.2 1.9-.4 3.9-.6 5.8v.1c-.1 0-.1.1-.2.1-.1.2 0 .3.2.4.1 0 .2.1.2.2 0 .2 0 .5-.1.7-.2.1-.4.3-.5.4 0 .2 0 .3-.1.5.1.1.2.2.2.3 0 .3-.1.5-.1.7l-.2.2c0 .1 0 .2-.1.3v.4c0 .2 0 .3-.1.5v.3c.2.2.4.5.6.7.1 0 .3 0 .5.1l.2.2c.1.1.3.1.5.1.1 0 .1.1.2.2v.3h-.3l-.3-.3c-.2 0-.4-.1-.6 0 0 .1-.1.2-.1.3-.2.1-.3.2-.5.4 0 .2 0 .5-.1.7.1.2.3.4.4.6-.1.1-.2.2-.3.2v.4c.2.3.4.6.5.7.2.1.5 0 .6.2v.2c.1.1.1.2.2.3 0 .2 0 .3-.1.5-.1.1-.2.1-.3.2v.2c-.1.1-.2.2-.3.2 0 .2-.1.3-.1.5 0 0-.1 0-.1.1-.2 0-.3-.1-.5-.1-.1 0 0 .2-.1.3-.2.1-.3.2-.5.4v.2c.1.1.2.3.4.4.2 0 .4.1.5.1.1.1.2.3.3.3.2 0 .3.2.4.3h.2c.1 0 .1.1.1.2l-.1.1c-.2 0-.3 0-.5-.1l-.3-.3c-.3 0-.3 0-.4.3-.2.1-.4.3-.5.4 0 .2 0 .3-.1.5.1.1.2.3.3.4.2 0 .3.1.5.1l.3.3h.2l.3.3c.1.1.2 0 .3.2-.1.1-.2.1-.3.2 0 .2-.1.5-.1.7.1.1.2.2.2.3 0 .3-.1.6-.1.9.1.2.4.1.4.3-.3.3-.3.3-.1.7v.4c.1.1.1.2.2.3v.2c.1.1.1.2.2.3v.2c.1.1.2.2.2.3 0 .4-.1.8-.1 1.2.1.1.2.2.2.3v.4c.2.3.4.5.5.7.1 0 .2.1.3.1.1.1.2.3.3.4-.2.1-.4.3-.6.4v.1c0 .2.3.3.2.5.1.1.1.2.2.3.4.5.9 1 1.3 1.5.1 0 .2 0 .3.1.1.1.2.3.3.4-.1.1-.2.1-.3.2v.2c-.1.1-.2.2-.3.2 0 .3-.1.6-.1 1 .1.1.2.3.3.4h.2c.1.1.2.2.2.3.1 0 .2 0 .3.1.1.1.2.3.3.4-.1.2-.4 0-.5.2.1.1.2.3.3.4.1 0 .2 0 .3.1.1.1.2.2.3.5 0-.1 0 0 0 0 0 .3 0 .3.4.4.1.3.6.2.7.5.1 0 .2.1.3.1.2.2.3.4.5.6 0 .1 0 .1-.1.2h-.1c-.1 0-.2 0-.2.1 0 0 0 .1.1.2s.2.3.4.3c.1 0 .2.2.3.2.1.1.3 0 .4.2 0 .2-.1.5-.1.7-.1.2-.4-.1-.5.1.2.3.4.5.5.7.4.1.4.1.4.4.2.2.3.4.5.7 0 0 .2 0 .2.1 0 0 .1 0 .1.1l1.8 2.1h.3c.2.1 0 .4.2.5.1.3.4.2.6.4v.2c.1.1.2.3.3.4.3.1.3.1.4.4.1.1.2.3.3.4h.3c.3.4.6.7.9 1.1 0 0 .2 0 .3.1.2.2.3.4.5.6h.2c.2.2.3.4.5.6.1 0 .3 0 .4.1.2.3.4.5.7.8h.2l.3.3c.2 0 .3.1.5.1l.3.3c.2 0 .3.1.4.3.1.1.2.1.3.1.1.2.3.3.4.5.2 0 .5.1.7.1.1.1.2.2.3.4.1.1 0 .3.1.4h.2c.1-.1.2-.1.3-.2.2.3.4.5.7.8.2 0 .5.1.8.1.1-.1.2-.1.3-.2h.3c.1.2.2.4.3.5h.2c.1 0 .2.2.3.2.1.1.3.1.4.2 0 .2 0 .3-.1.5.1.2.4.1.6.2.2-.1.4-.3.6-.4.1.1.2.2.2.3.1-.1.2-.1.3-.2.2.1.4 0 .6.2-.1.1-.2.1-.3.2 0 .1-.1.2.1.3.2.1.4.1.6.1l.1-.1c0-.3.1-.6.1-.9 0 0 .1 0 .1-.1.1 0 .3 0 .3.2-.3.3-.3.3-.1.5.2 0 .3.1.5.1.1-.1.2-.1.3-.2.1 0 .2 0 .2.1.2.2.4.4.5.7 0 .3 0 .3.1.4.1.1.3.1.3 0 .1-.1.1-.2.1-.3 0-.1-.2-.1-.1-.3.2-.1.4-.3.6-.4h.1l.1.1v.5c.1.1.2.2.2.3 0 .2.1.3.1.4.1-.1.2-.1.3-.2.1.1.2.2.2.3h.3c.1-.1.1-.2.2-.3 0-.1.1-.1.2-.1s.1.1.1.2v.1l.2.2h.2c.1-.1.2-.2.4-.3 0-.1-.1-.1-.1-.1-.1-.1-.1-.1-.1-.2s.1-.1.2-.1c.5.1.9.1 1.4.2.1.1.2.2.2.3.1-.1.2-.2.4-.2s.3-.2.5-.2.5.1.7.1c.1-.1.2-.2.4-.1.1.1.2.2.2.3h.2c.1 0 .1-.1.2-.1 0-.1 0-.2.2-.3.1 0 .2 0 .4.1 0-.1 0-.2.1-.2s.2 0 .3.1c.1.1.1.1.1.2h.1c.1.2.3.3.4.5.1.1.1.1.2 0v-.2c-.1-.1-.1-.2-.2-.3.3-.1.3-.1.6.2.1 0 .2 0 .3.1.1-.1.2-.1.3-.2.2 0 .5.1.8.1.1-.1.2-.2.4-.3-.1-.1-.1-.2-.2-.3.1-.1.3-.3.4-.3h.5c.1 0 .1-.1.1-.1.1-.1.2-.2.4-.3.2-.1.1-.4.3-.4h.2c.1-.1.2-.1.3-.2h.2c.1-.1.2-.2.4-.2.1 0 .1 0 .2-.1.2-.2.5 0 .6-.2h.5c.1 0 .1 0 .2-.1s.2-.1.4 0c.1-.1.2-.1.3-.2.2 0 .3 0 .5.1.1.1.2.2.2.3.1 0 .1-.1.1-.2 0-.2.1-.3.3-.2.1 0 .2 0 .2-.1s0-.3.1-.5c-.1-.1-.1-.2-.2-.3v-.2c.1-.1.3-.2.4-.3l.2.2h.2c.1.1.2.2.2.3.1 0 .2 0 .4.1v-.1c.5-.3.9-.7 1.4-1 .1-.2.1-.3.2-.3.5-.2.7-.4.9-.5 0-.2 0-.3.2-.4.1 0 .1-.1.1-.2-.1-.1-.2-.2-.1-.5.1-.1.2-.2.4-.3.1-.1.3-.1.4-.1.1-.1 0-.3.1-.3s.2.1.3.2c.3 0 .6.1 1 .1.1 0 .1-.1.1-.1s0-.1-.1-.1-.3 0-.3-.1.1-.2.2-.2.1-.1.2-.1l.3.3c.1.1.3 0 .3-.2-.2 0-.2-.1-.2-.2s.1-.1.2-.1c0 0 .1-.1.1 0 .1-.1.2 0 .2 0l-.1.1h-.1c0 .1-.1.2-.1.2.1 0 .2 0 .4.1.1-.1.2-.2.3-.2.1-.1.2-.3.3-.4.2-.2.3-.3.5-.4h-.2c-.1.2-.1.2-.3.3 0 .1-.1.1-.1.1h-.1c-.1-.1-.1-.1 0-.2s.1-.1.2 0c.1-.2.1-.2.3-.2 0-.4.1-.7.1-1 .3-.2.7-.5 1-.7h.2c.3-.1.5-.5.9-.4.2-.1.3-.2.5-.4.1.1.2.2.2.3.2 0 .3 0 .5.1.1.1.2.2.2.3.1-.1.2-.1.3-.2.2-.2.4-.5.7-.7h-.1s-.1-.1-.1-.2c.1 0 .1-.1.2-.1.1-.1.1-.3 0-.4-.2.1-.4.3-.6.4-.1-.1-.2-.3-.3-.4.1-.1.2-.1.3-.2v-.2c.2-.1.4-.3.5-.4.1-.4.5-.5.8-.7.3 0 .3 0 .4-.3.1-.1.2-.1.3-.2-.2-.2-.2-.2-.5-.1 0 .1 0 .2-.1.3H155.2c-.1.1-.1.2-.1.3-.2.2-.5.3-.7.5-.1 0-.3 0-.4-.1v.1c-.1.1-.2.1-.3.2v.3c-.2.2-.4.3-.7.5-.2.1-.1.3-.2.3-.2.1-.3.2-.4.3h-.3c-.2.1-.3.3-.6.4-.1-.1-.2-.3-.3-.4v-.1c-.1 0-.3 0-.4-.1-.1-.1-.2-.3-.3-.4.1-.1.2-.1.3-.2-.1-.2-.4-.1-.5-.3.3-.2.5-.4.8-.6v-.1l-.1-.1h-.2c-.2.1-.4.3-.6.4-.3-.1-.6 0-.8-.2v-.4h-.1c-.3.2-.5.4-.8.6H148.2c-.3.2-.5.4-.8.6h-.1c-.1.2-.2.3-.4.2l-.1-.1v-.1h.1c.1 0 .2 0 .4.1v-.1l-.2-.2v-.4h-.1c-.1.1-.2.1-.2.2h-.3c-.1.1-.2.1-.3.2-.2 0-.3-.1-.5-.1 0-.1-.1-.2-.1-.3.1-.2.3-.3.5-.4.3.1.4-.1.6-.2.1 0 .3 0 .4.1.4-.2.4-.2.6 0-.1.1-.2.1-.3.2v.1c.1 0 .3 0 .4.1 0-.1.1-.1.1-.2.2-.3.2-.4.6-.4.1 0 .2-.1.3-.2.1-.1.3.1.4-.1v-.2l2.1-1.5c.1-.1.1-.3.2-.4.3-.2.7-.5 1-.7 0-.2 0-.3.1-.5-.1-.1-.2-.2-.3-.2-.1 0-.2.1-.2.1 0 .1 0 .3-.1.4-.3.2-.6.4-.9.7h-.1c-.2-.1-.4 0-.6-.2.1-.1.2-.1.3-.2v-.2c.8-.6.8-.6.9-.8.3-.2.6-.4.9-.7.1.1.2.2.2.3.2 0 .3 0 .5.1.1-.1.2-.1.3-.2h.2c.2-.1.1-.5.4-.5v-.2c-.1-.1-.1-.2-.2-.3.1-.1.2-.1.3-.2v-.2c.1-.1.2-.2.3-.2 0-.2.1-.3.3-.4.1-.1.1-.2.1-.3.2-.1.3-.2.5-.4v-.2c.1-.1.2-.1.3-.2v-.4c-.1-.1-.2.1-.3.1-.2.1-.3.2-.3.4 0 0-.1 0-.1.1 0-.1-.1-.1-.1-.2 0-.2 0-.4.1-.6h-.1c-.1.1-.2.1-.3.2-.1 0-.2 0-.3-.1-.1-.1-.1-.1-.1-.2h-.1c-.1.1-.2.1-.3.2-.2-.2 0-.4-.1-.6.1-.1.2-.2.4-.3.1 0 .3.1.4-.1v-.2c.1-.1.1-.1.2-.1s.2 0 .3-.1c-.2-.1-.2-.3-.2-.5 0-.1 0-.1.1-.2.3-.2.5-.4.8-.6 0-.2 0-.3.1-.5l.6-.3c0-.2 0-.3.2-.4.2-.1.1-.3.2-.4.1-.1.2-.1.2-.2 0-.2.2-.3.3-.3.1-.1.2-.1.3-.2 0-.2.1-.5.1-.7.1-.1.2-.1.3-.2 0-.2 0-.3.1-.5.2-.1.3-.2.3-.4 0-.1.2-.2.2-.2 0-.2.1-.3.1-.5.1-.1.2-.1.2-.2s-.1-.1-.1-.2c-.2 0-.3-.1-.4-.1-.3.2-.5.3-.7.5v.3c-.2.1-.3.2-.3.4-.2.1-.3.2-.5.4 0 .2-.1.4-.3.4-.1.3-.1.3-.5.3l-.9.6c0 .1-.1.2-.1.3l-4.2 3h-.3c-.4.2-.8.6-1.2.8h-.3c-.3.2-.5.4-.8.6h-.3c-.2.1-.4.3-.6.4h-.3c-.2.1-.3.2-.5.4h-.4c-.2.1-.3.2-.5.4h-.3c-.1.1-.2.1-.3.2h-.2c-.1.1-.3.2-.4.3-.2.2-.4 0-.6.2-.1.1-.2.1-.3.1-.2 0-.2.2-.4.2s-.3.1-.4.2h-.3c-.1.1-.2.1-.3.2h-.2c-.1.1-.2.1-.3.2-.3-.1-.4.1-.6.2-.1 0-.3 0-.4-.1-.2.1-.3.2-.4.2-.2 0-.3.1-.4.2-.2 0-.3 0-.5-.1-.1.1-.2.1-.3.2-.2 0-.3 0-.5-.1-.1.1-.2.1-.3.2-.2 0-.3-.1-.5-.1-.1.1-.2.1-.3.2-.2 0-.5-.1-.7-.1-.1.1-.2.1-.3.2-.3 0-.5-.1-.8-.1-.1 0-.1.1-.2.1-.4 0-.7-.1-1.1-.1-.1 0-.1.1-.2.2-.5-.1-1-.2-1.5-.2-.1.1-.2.1-.3.2-1.3-.2-2.7-.4-4-.6-.1-.1-.2-.2-.2-.3-.4-.1-.8-.1-1.2-.2l-.3-.3c-.2 0-.5-.1-.7-.1l-.3-.3c-.2 0-.3 0-.5-.1l-.3-.3c-.2 0-.4-.1-.5-.1-.1-.1-.2-.3-.3-.3-.2 0-.3-.2-.4-.3h-.2c-.2-.2-.3-.4-.5-.6-.1 0-.2 0-.3-.1-.6-.8-1.3-1.6-1.9-2.3v-.3c-.1-.2-.3-.3-.4-.5 0-.1 0-.2-.1-.3-.1-.1-.2-.3-.2-.4 0-.1-.1-.2-.2-.3V99c-.1-.1-.1-.2-.2-.3 0-.2 0-.3.1-.5-.1-.1-.2-.2-.2-.3v-.5c-.1-.1-.2-.3-.3-.4-.2 0-.5-.1-.7-.1-.1-.1-.2-.2-.2-.3h-.1c-.1 0-.2 0-.2-.1s.1-.1.1-.1c.1 0 .3 0 .4.1.1 0 .2 0 .2-.1-.1-.1-.1-.2-.2-.3l.1-.1h.4c.2 0 .3 0 .3-.2s0-.4.1-.5c-.1-.1-.2-.2-.2-.3 0-.1 0-.2-.1-.3-.2 0-.5-.1-.8-.1-.1.1-.2.1-.3.2-.2-.1-.4 0-.6-.2 0-.2 0-.4.1-.6h.6l.9-.6s0-.1 0 0c-.1-.2-.2-.3-.3-.4h-.3c-.1.1-.2.1-.3.2-.1-.1-.2-.1-.3-.1V93v-.1c0-.1.1-.3 0-.3-.1-.1-.2.1-.3.1l-.1-.1c0-.2 0-.5.1-.7.1-.1.2-.2.3-.2-.3-.2-.1-.6-.4-.7v-.1c0-.1.1-.2.2-.2s.2 0 .3-.1c0-.4.1-.8.1-1.2 0 0 0-.1-.1-.1-.1-.1-.3 0-.4-.2.1-.2.4.1.5-.2-.1-.1-.1-.2-.2-.3 0-.3.2-.6 0-.8-.1 0-.3 0-.3-.1V87c0-.1.1-.1.1-.1.1 0 .1.1.1.2v.1c0 .1.1.1.1.1s.1 0 .1-.1c.1-.6.1-1.1.2-1.6.1-.1.2-.2.3-.2.1-.5.1-1.1.2-1.6.1-.1.2-.2.3-.2 0-.3.1-.6.1-.9-.1-.7-.1-1.3 0-2 0 0-.1 0-.1.1 0 .4-.1.8-.1 1.2-.1.1-.2.1-.3.2v.2c.1.1.1.2.2.3l-.3.3c0 .1 0 .2-.2.3h-.3c-.2-.2-.4-.4-.5-.7.1-.1.2-.1.3-.2 0-.2 0-.5.1-.7.1-.1.2-.1.3-.2 0-.2.1-.5.1-.7.1-.1.2-.1.3-.2v-.2c.1-.1.2-.2.3-.2 0-.2.1-.4-.1-.6-.1.1-.2.1-.3.2-.1 0-.2 0-.4-.1v.3s-.1.1-.2.1-.1-.1-.1-.2 0-.1.1-.2c0-.1.1-.1.2 0 0-.2 0-.4.1-.5 0-.1.1-.2.3-.1v-.3c-.1-.1-.1-.2-.2-.3.1-.1.2-.2.3-.2 0-.2.1-.5.1-.7l.2-.2c.2-.3 0-.7.2-1 .1 0 .1-.1.2-.2 0-.2.1-.3.3-.4 0-.2 0-.3.1-.5.1-.1.2-.1.3-.2v-.2c-.1-.1-.2-.3-.3-.4-.1 0-.3 0-.5-.1-.1 0-.1-.1-.1-.2l.1-.1h.2c.1-.1.2-.1.3-.2.2 0 .4.1.6 0 0-.1-.1-.1-.1-.2-.2-.1-.5-.1-.7-.1l-.1-.1c.2-.1.4-.3.5-.4v-.2c.2-.1.3-.2.5-.4.1-.1 0-.3.2-.4.1 0 .2.1.4-.1 0-.1 0-.3.1-.5-.1-.2-.3-.4-.4-.6.1-.1.2-.1.3-.2v-.2c.2-.2.4-.2.5-.4 0-.2 0-.5.1-.7.2-.1.3-.2.5-.4v-.2c-.1-.1-.1-.2-.2-.3v-.2c.1-.1.2-.2.3-.2 0-.3 0-.3-.3-.4-.3-.4-.3-.4-.3-.6.1-.2.4-.3.6-.4v-.2c.3-.2.7-.5 1-.7.1 0 .1-.1.1-.2 0-.2 0-.3.1-.5 0-.1 0-.1.1-.2.1 0 .1-.1.2-.1v-.2c.2-.1.4-.3.6-.4v-.5c.1-.1.2-.1.3-.2-.2-.2-.3-.3-.1-.5.2-.1.3-.2.5-.4v-.2c.2-.1.4-.3.6-.4 0-.3 0-.3.4-.3 0 0 .1.1.1.2.1-.3.3-.5.5-.7-.1-.1-.2-.1-.3-.1-.1 0-.2-.3-.1-.4.2-.1.3-.3.3-.4.5-.4 1.1-.8 1.6-1.1 0-.1.1-.2.1-.3.2-.1.3-.2.5-.4v-.2c.4-.2.7-.5 1.1-.8-.1-.4.3-.4.4-.5.2 0 .3 0 .4-.1v-.3c-.1-.1-.1-.2-.2-.3v-.2c.2-.1.4-.3.5-.3.1-.2.2-.3.2-.4.2 0 .4.1.5.1.4-.3.8-.6 1.2-.8 0 0 0-.1.1-.1-.1-.1-.1-.2-.2-.3 0-.2 0-.5.3-.6v-.1c0-.3.3-.3.5-.5.3 0 .7.1 1 .1.3-.2.5-.4.8-.6.1.1.2.2.2.3h.2c0-.1.1-.1.1-.2s0-.1.1-.2c0-.1.1-.1.2-.2-.1-.1-.1-.2-.2-.3v-.2c.1-.1.2-.1.3-.2v-.2c.2-.2.5-.3.7-.5.2 0 .3.1.5.1.2.2.3.4.5.5.2-.1.4-.3.6-.4 0 0 0-.1.1-.1v-.2c-.1-.1-.2-.1-.3-.1-.1 0-.1-.1-.1-.2.2-.1.3-.2.5-.4.1-.3.1-.3.5-.3.2-.1.3-.2.5-.4l.3.3c.3-.3.7-.5 1.1-.8h.1l.2.2c.2-.2.4-.3.7-.5 0 0 0-.1.1-.2.2-.2.5-.4.7-.5.2 0 .3 0 .4.1l.2.2c.1.1.2.1.3.2.1-.1.3-.2.4-.3V48l-.2-.2.3-.3h.1l.2.2c.1 0 .1 0 .2-.1s.2-.1.4 0l.9-.6c.2 0 .4.1.5.1l.2-.2c.4 0 .9.2 1.3.1.1-.1.1-.1.2-.1h.3c.1-.1.2-.1.3-.2.1 0 .1-.1.1-.2s-.1-.1-.2-.1-.2 0-.2-.1c0 0 .1-.1.1-.2 0 0 .1 0 .1-.1v-.1-.2c0-.2.1-.3.3-.2.2 0 .4.1.6.1.3.4.4.4.8.1.6.1 1.1.2 1.7.3 0 0 .1 0 .1.1l.2.2c.1 0 .2 0 .3.1.1.1.2.2.2.3.2 0 .3.1.5.1.1-.1.2-.1.3-.2.4.1.7.1 1 .2.1.1.1.2.2.2.2.1.4.1.5.3 0 0 .1 0 .1.1.2 0 .3 0 .5.1.1.2.3.3.4.5.2 0 .3 0 .5.1s0 .4.2.5h.2c.3.3.6.7.8 1v.2c.1.1.1.2.2.3 0 .3-.1.6-.1.9l.2.2v.1c0 .4-.1.9-.1 1.3 0 0 0 .1-.1.1-.2.1-.3.2-.5.4v.2c.1.1.1.2.2.3 0 .2-.1.5-.1.7-.1.1-.2.1-.3.2v.5c-.2.2-.4.3-.6.5 0 .1.1.2.1.3.1 0 .3 0 .4.2 0 .2 0 .4-.1.5-.1 0-.1.1-.2.2 0 .5-.1.9-.2 1.4 0 0-.1.1-.2.1h-.2c-.2.1-.3.2-.5.4-.1-.1-.2-.2-.2-.3 0 0-.1.1-.1.2v.2c.1.1.2.3.3.4.4.1.4.1.6.2-.1.1-.2.1-.3.2v.2c-.2.1-.4.3-.6.5 0 .4-.1.9-.1 1.4-.1.1-.2.2-.3.2 0 .2-.1.3-.1.5-.1.1-.2.1-.2.2-.1.2-.1.3-.3.4v.2c-.2.1-.4.3-.6.4-.1.3-.1.3-.3.3-.2 0-.3.1-.3.2v.1c-.3.2-.5.4-.8.6l.4.4c.2 0 .3.1.4.3.2 0 .3 0 .5.1.2-.1.5-.2.5-.5 0 0 0-.1.1-.1.4-.3.8-.6 1.2-.8h.3c0-.1.1-.1.1-.2s0-.2.1-.3c0 0 .1 0 .1-.1h.4s.1-.1.1 0c.1-.1.2 0 .2 0l-.1.1h-.1c-.1.2-.1.4-.1.6l.1.1c.3-.2.3-.2.6 0-.1.1-.2.1-.3.2 0 .1 0 .3-.1.5.4-.2.5-.3.7-.5 0 .1 0 .2.1.3-.2.1-.4.3-.6.4-.1.1-.1.1-.2.1-.1-.1-.1-.1-.1-.2V65c0-.1-.1-.1-.1-.1-.1.1-.2.1-.3.2h-.3c-.1.1-.3.2-.4.3v.5c-.3.2-.3.2-.6-.2-.3.1-.4.3-.7.4v.1l.1.1h.2c.1.1.2.2.2.3.1-.1.2-.1.3-.2h.5c.2-.3.6 0 .7-.3.7-.5 1.3-.9 2-1.4.2-.1.1-.3.2-.4 0 0 .1 0 .1-.1h.2c.3-.1.4-.3.7-.3l.2.2c.2 0 .3-.2.5-.1l.2-.1c0-.2.1-.5.1-.7-.1-.3-.5-.4-.4-.8.1-.2.4-.3.6-.4v-.2c.2-.2.5-.3.7-.5h.4c.1 0 .2 0 .2.1.1.1.1.3 0 .3-.2.1-.2.3-.3.5 0 0-.1 0-.1.1h-.2c-.1.1-.3.2-.4.3l.4.4c.5-.3 1-.7 1.5-1v-.2c.1-.1.2-.1.3-.2v-.5c.2-.1.3-.2.5-.4 0-.1.1-.2.1-.3.1-.1.2-.2.3-.4 0-.1.2-.2.3-.2-.1-.1-.1-.2-.3-.3l.6-.3c0-.2-.1-.3-.1-.4-.2.1-.4.3-.6.4l-.1-.1c.1-.5.1-1.1.2-1.7.1 0 .2-.1.3-.2V57c.1-.1.2-.1.3-.2v-.2c.2-.1.4-.3.5-.3.2-.5.1-1 .3-1.4l.3.3c.1 0 .3 0 .4.2 0 .3-.1.7-.1 1.1v.1l.2.2c-.2.3-.5 0-.5 0-.3.2-.4.2-.5.3 0 .3-.1.5-.1.7-.1.1-.2.2-.3.2 0 .2-.1.4.1.6.1 0 .2 0 .3.1.1.1.2.2.2.3 0 0 .1 0 .1-.2 0 .4-.1.7-.1 1-.1.1-.2.1-.3.2 0 .2 0 .4-.1.6.1 0 .2 0 .4.1.1.1.2.2.3.4v1s0 .1.1.1c0 0 .1 0 .1-.1.1-.1 0-.3.2-.4.2-.1.1-.3.2-.4.1-.1.1-.1.2 0V61c-.1-.1-.1-.2-.3-.3l.6-.3c0-.1 0-.2.1-.3.1-.1.2-.2.3-.2 0-.2.2-.3.3-.5V59l.2-.2c0-.2.1-.3.1-.5.1-.1.3-.2.4-.3 0 0 .1 0 0-.1.1.2.1.3 0 .4.1.1.2.2.2.3v.3c-.2.2-.5.4-.8.6v.4l-.3.3c0 .2-.1.3-.3.4-.1.1-.1.2-.1.3-.2.1-.2.3-.3.4 0 .1-.1.1-.2 0v.4c.2.2.4.2.7.2.1 0 .1-.1.2-.1.2.1.2.1 0 .8-.1.1-.2.2-.3.2 0 .2-.1.4.1.6.1-.1.1-.3.2-.4.1-.1.2-.1.2-.2 0-.2.2-.2.3-.3v-.2c.1-.1.2-.1.3-.2v-.2c.1-.1.2-.1.3-.2 0-.3.1-.5.1-.7-.1-.1-.1-.2-.2-.1 0 .1 0 .1-.1.2 0 .1-.1.1-.1.2 0-.1-.1-.1-.1-.2 0-.3.1-.6.1-.8 0 0 0-.1.1-.1.1-.1.2-.2.4-.3 0 .1 0 .3.1.4-.1.1-.2.2-.3.2.2.2.2.2.4.1.1-.2 0-.4.2-.6.1.1.2.2.2.3.1-.1.2-.1.3-.2h.1s.1-.1.1 0c.1-.1.2 0 .2 0l-.1.1h-.1c-.1.2-.1.4-.1.6 0 0 0 .1.1.1.1.1.3.1.5.1.1 0 .2-.1.2-.1 0-.1-.1-.1-.2-.1s-.2 0-.2-.2c.1-.1.3-.2.4-.3h.3l.3.3c.2 0 .4.1.6 0-.1-.1-.1-.2-.2-.3 0-.2.1-.5.1-.8l.6-.3v-.3c-.1-.1-.2-.3-.3-.4h-.3l-.3-.3c-.1-.1-.2 0-.3-.2.2-.1.4-.3.5-.4.1-.1.1-.2.2-.4.1 0 .3 0 .4.1.2 0 .3 0 .3-.1s.1-.2.2-.3c.2-.2.2-.2 0-.5-.1-.1-.1-.2-.1-.3.1-.1.2-.1.3-.2-.1-.1-.1-.2-.2-.3v-.2c.1-.1.2-.1.2-.2.1-.1.1-.2.2-.4l.3.3c.1-.1.2-.2.4-.3-.1-.1-.1-.2-.2-.3 0-.1.1-.3-.1-.3-.1 0-.1.1-.2.2-.1-.1-.1-.2-.2-.2-.1-.1-.4 0-.4.1 0 .2 0 .4-.1.6 0 .1-.1.1-.1.2h-.3c-.1.1-.1.3-.2.4-.1.1-.1.1-.2-.1V55c-.1-.1-.2-.2-.2-.3 0-.1 0-.3.1-.3s.2.1.3.2c.2 0 .2-.2.2-.3-.1-.1-.1-.2-.2-.3 0-.2.1-.5-.1-.7 0-.2 0-.4-.2-.5v-.1-.2c0-.1 0-.2.1-.2.1-.1.2 0 .3 0l.3.3c.4.1.7.1 1 .2l.2.2c.2.1.4.1.6.2.1.1.1.2.2.2s.2 0 .4.1c.2 0 .2 0 .3-.2v-.1c.2-.1.3-.2.5-.4v-.2c.1-.1.2-.1.3-.2 0-.2 0-.2-.1-.4-.3 0-.5-.1-.8-.2-.1-.2-.2-.3-.3-.4 0-.3.1-.5.1-.7.1-.1.3-.2.4-.3l.3.3c.2 0 .3.1.5.1.1.1.2.2.2.3l.9-.6s0-.1.1-.1c-.4-2.6-.4-2.8-.4-2.9zm-76.9 22.3c-.1-.1-.2-.3-.3-.4 0-.4.1-.4.4-.3.1.1.2.3.3.4 0 .4 0 .4-.4.3zm.5-13.4c-.2-.2-.1-.3.1-.5.1.2.1.4-.1.5zm5.9-8.2v-.4c.2-.1.3-.2.4-.3h.1c-.1.4-.2.5-.3.5v.1c0 .1 0 .2-.1.2 0 .1-.1 0-.1-.1zm-3.7 8.2c.1-.1.2-.2.3-.2 0-.1 0-.1.1-.3.2-.1.4-.2.5-.3v-.3c.1-.1.2-.1.3-.2v-.2c.1-.1.2-.2.3-.2.1-.2 0-.4.2-.5.1.1.2.2.2.3h.3c0 .1.1.2.1.3-.2.2-.4.3-.6.5v.2c-.2.1-.4.3-.6.4v.2c-.1.1-.3.2-.3.3 0 .1-.2.2-.2.2-.1.1-.1.2-.1.3-.1.1-.2.1-.2.2s0 .2-.2.3c-.3-.3-.1-.6-.1-1zm-.8 2.4v-.3l.1-.1c.1 0 .2 0 .1.1 0 .3-.1.6-.1.9l-.1.1c-.1 0-.1 0-.1-.1.1-.2.1-.4.1-.6zm-.8 2.9c-.1-.3 0-.5.1-.8.1 0 .1-.1.2-.1.1-.1 0-.3.1-.4 0-.1.1-.1.1-.2.1.2.3.3.4.5.1.1.3.1.5.1.1 0 .2.1.2.3 0 .3-.1.6-.1.9 0 .1 0 .2-.1.2s-.3 0-.3-.1l-.2-.2c-.3-.1-.6 0-.9-.2zm6.3 48.4v.2c-.1.1-.3.2-.4.3-1-1.1-1.6-1.8-1.7-2.1-.2-.1-.2-.1-.2-.3-.2-.1-.2-.1-.2-.3-.2-.1-.2-.1-.2-.3h-.1c-.1-.1-.1-.2-.1-.3-.4-.6-.7-.9-.9-1.2v-.2c-.2-.2-.2-.3-.2-.5-.1-.2-.3-.3-.4-.5 0-.1 0-.2-.1-.3-.3-.2-.1-.6-.4-.7v-.2c-.1-.1-.2-.2-.2-.3v-.2c-.1-.1-.2-.2-.2-.3v-.2c-.1-.1-.3-.2-.2-.4v-.1c0-.1-.1-.1-.2-.2 0-.2 0-.4.1-.5.2-.1.2-.3.3-.4.1-.1.3-.2.4-.3.4.1.4.1.3.4-.1.1-.2.1-.3.2 0 .2 0 .3-.1.5.1.1.2.2.2.3 0 .2 0 .3-.1.5.2.3.4.5.7.8v.4c.1.1.2.2.2.3.1.1 0 .2.1.3l.2.2v.2c.1.1.1.2.2.3v.2c.1.1.2.2.2.3v.2c.1.1.2.2.2.3v.2c.2.3.4.5.5.7.1 0 .3 0 .4.2-.1.2-.3.3-.5.4.1.2.2.2.2.4.2.1.2.1.2.3.2.1.2.1.2.3.1 0 .2 0 .4.1.1.1.2.2.2.3h.2c.1.1.2.2.2.3h.2l.3.3c.2 0 .3.1.5.1.1.1.2.3.3.4 0-.2-.1-.2-.2-.1zm41.2 2.8v-.1s.1-.1.2-.1v.1h.1l-.1.1h-.2v.3c-.2.2-.2.2-.5 0 .3-.3.3-.3.5-.3zm-2.1 1.4c.1-.1.1-.1.2 0v-.4c.1-.1.3-.2.4-.3.2 0 .3 0 .4.1v-.1s.1-.1.2-.1l-.1.1c.1-.1.1 0 .1 0l-.1.1h-.1c0 .1 0 .1-.1.1-.2.2-.5.3-.7.5h-.1v0c0 .1-.1.1-.1.2h-.1c0-.1 0-.1.1-.2zm5-7.1c-.1.1-.3.2-.4.3-.1 0-.3 0-.4-.1 0-.2.3-.3.4-.4.2 0 .4 0 .4.2zm-2.3.6c.3-.2.6-.5 1-.7h.1v-.4c.1-.1.3-.2.4-.3h.1c.1-.2.1-.2.3-.2v-.1s.1-.1.2-.1c0 0 0 .1-.1.1.1-.1.1 0 .1 0l-.1.1h-.1c-.1.2-.2.2-.3.2v.4c-.1.1-.3.2-.4.3h-.1v.3c0 .1.1.2.2.2.1-.2.1-.2.3-.2-.1.2-.1.2-.3.2v.1c-.2.2-.4.3-.7.5-.2 0-.5 0-.6-.2v-.2zm-3.8 9.7c-.2 0-.3 0-.5-.1-.1 0-.1-.1-.1-.2l.1-.1h.3c.1-.1.2-.1.3-.2.1.4.1.4-.1.6zm-.3-1.5c.2 0 .3 0 .4.2-.1.1-.3.2-.4.3-.1 0-.3 0-.4-.1 0-.2.2-.3.4-.4zm-1.5.9c0-.2 0-.2.2-.2h.2c.2-.1.4-.3.6-.4h.1c0 .2 0 .4-.1.6-.1 0-.1.1-.2.1s-.2 0-.4-.1c-.1 0-.2 0-.2.1-.1.1-.1.1-.2 0v-.1zm-2.5 2.6c.2 0 .3 0 .5.1.1.1.1.1.1.2l-.4.3c-.1-.1-.2-.2-.3-.4.1-.1.1-.2.1-.2zm-14.1 3.5c.2-.1.4-.1.5.1-.2.1-.3.1-.5-.1zm.6-5.2c.1-.1.1-.1.2-.1l.1.1c0 .2 0 .5-.1.7-.1.1-.1.1-.2.1l-.1-.1c0-.3.1-.5.1-.7zm-.8 1.4c.3 0 .5.1.8.1.1.1.2.3.3.4 0 .3 0 .3-.3.3-.1 0-.2 0-.2.1 0 0-.1 0-.1.1h-.1c-.2-.2-.4-.4-.6-.7.1-.1.1-.2.2-.3zm0 1.3c-.2.1-.4.1-.5-.1.2-.1.3-.1.5.1zm-1-.7c.1 0 .2.1.3.2-.1.1-.3.1-.5.1-.1 0-.2-.1-.3-.2.1-.2.3-.1.5-.1zm-5.1 2s-.1.1 0 0h-.8c-.1-.1-.1-.1-.1-.2l.1-.1c.2 0 .5.1.7.1.1.1.1.2.1.2zm2 .6s-.1 0 0 0c-.4 0-.8 0-1.1-.1-.1-.1-.2-.2-.2-.3h-.2c-.1 0-.1-.1-.1-.2l.1-.1c.2 0 .3 0 .5.1.1.1.2.2.2.3.2 0 .5.1.7.1.1 0 .1.1.1.2zm1.6-6.9c.4.1.6.1.9.1v.2c-.2.2-.4.3-.6.5h-.3c-.2-.4 0-.6 0-.8zm-.5 2.8c.2 0 .3 0 .5.1l.1.1c0 .1 0 .1-.1.1h-.2c-.1.1-.2.1-.3.2-.2-.3-.2-.3 0-.5zm-.2 1.2c.1 0 .1.1.1.1 0 .1-.1.1-.2.1s-.2 0-.4-.1c-.1.1-.2.1-.3.2-.1-.2-.3-.4-.4-.5.8-.1.8-.1.8 0 .2.1.3.1.4.2zm-1.3-.4c.1 0 .1-.1.2-.1s.2 0 .3-.1c.1 0 .1-.1.2-.1s.2.1.3.2c-.4.1-.7.1-.9.2h-.1v-.1zm0 .2h-.1.1c0 .1-.1.1-.1.1h-.4c-.2.1-.3.1-.3.1-.3.2-.5.1-.5-.2 0-.1 0-.2-.1-.2h-.1c-.1 0-.1.1-.2.1h-.2s-.1 0-.1.1c-.1 0-.1.1-.2.1-.1-.1-.2-.2-.2-.3-.1 0-.2 0-.2-.1-.1-.1-.2-.2-.2-.3-.4-.1-.4-.1-.6-.2.1-.1.3-.2.4-.2l.2.2c.2 0 .5.1.7.1.1 0 .2-.1.3-.2.1.1.2.2.2.3.4.1.8.1 1.2.2.1.1.1.2.2.3.2 0 .2.1.2.1zm-1.5-4.4c.2 0 .3 0 .5.1.1-.1.2-.1.2-.2h.3c.1.1.1.2.1.3 0 .1.1.2.2.3 0 .1 0 .1-.1.1h-.2c-.1.1-.2.1-.3.2-.3 0-.5-.1-.7-.1-.1-.1-.1-.2-.1-.3 0-.1 0-.3.1-.4zm-2.5 1.4c.1-.1.3-.2.4-.3.2 0 .3 0 .5.1.1.1.2.2.2.3h.2c.1-.1.2-.1.3-.2h.2l.3.3c.4.1.8.1 1.2.2.2.2 0 .4 0 .6 0 0 0 .1-.1.1h-.1l-.2-.2c-.2 0-.3.2-.5.3v.4c-.1.1-.2.1-.4.1-.1-.1-.2-.2-.2-.3-.1.1-.2.1-.3.2l-.2-.2c-.1-.1-.3-.1-.5-.1-.1 0-.1-.1-.2-.1.1-.2-.2-.1-.2-.2-.1-.4-.1-.4-.4-.7-.1 0-.2.2-.3.1.2-.1.2-.3.3-.4zm-2.3-80.2c.2.2.1.3-.1.5-.1-.2-.1-.3.1-.5zm-1.5 4.6c-.2-.3-.2-.3 0-.5h.2c.2.3.2.3 0 .5h-.2zm.1.4c-.2.1-.4.1-.5-.1.2-.1.3-.1.5.1zm-1-2.4c.2-.1.4-.2.5-.3v-.3c.1-.1.2-.1.3-.2v-.2c.1-.1.1-.1.2 0s.2.2.3.4c-.2.1-.3.2-.3.4-.2.1-.4.3-.5.4 0 .1 0 .1-.1.2 0 .1-.1.1-.3.1-.2 0-.2-.1-.2-.2s.1-.2.1-.3zm-1 4.3v-.3c.1-.1.2-.1.5-.3h.4c.3.2.4.5.6.7-.2.1-.3.2-.5.3-.1.1 0 .3-.3.4h-.2c-.1-.1-.2-.2-.2-.3h-.2c-.1-.1-.2-.3-.3-.4 0 0 .1-.1.2-.1zm-.4 68.9c.2 0 .5.1.7.1.1-.1.2-.1.3-.2.1.1.2.2.2.3h.2l.1.1c0 .1 0 .1-.1.1-.8-.1-1.7-.2-2.5-.4-.1 0-.1-.1-.1-.2s0-.2.2-.3c.2 0 .5.1.7.1.1.2.2.3.3.4zm-1.3-67.5c.2-.1.3-.2.5-.3.1 0 .2 0 .3.1.1.1.2.3.3.4v.3c-.2.1-.4.2-.6.4v.4l-.2.2c-.1.1-.1.2-.2.3-.2 0-.4-.1-.5-.1-.1-.1-.3-.3-.4-.5v-.1c0-.2.3-.2.3-.3 0-.1 0-.2.2-.3.1-.1 0-.4.3-.5zm-.9-.7c.1-.1.3-.2.4-.3.1.2.1.2 0 .6-.1.1-.3.2-.4.3-.1-.2-.1-.2 0-.6zm-1.6 68.3c-.3-.3-.3-.3-.4-.5h-.1.1c-.1 0-.2-.1-.2-.1v-.1c.1-.1.1-.1.2 0s.1.1 0 .2c.2 0 .3 0 .4.1.1.2.1.2 0 .4zm0-62.3c-.1-.1-.2-.3-.3-.4v-.7c.1-.2.4-.3.6-.5v-.2c.1-.1.3-.1.4-.2 0-.1.1 0 .1.1 0 .2 0 .5-.1.7-.2 0-.4.1-.5.1.2.3.4.5.6.8v.1c0 .1-.1.2-.1.3-.2-.1-.4-.1-.7-.1zm6.4 69.6c-.2 0-.4 0-.6-.1-.1-.1-.1-.1-.1-.2h-.1.1c-.1 0-.2-.1-.2-.1v-.1c.1-.1.1-.1.2 0s.1.1 0 .2c.2 0 .4.1.6.1.1 0 .1.1.1.2 0-.1 0 0 0 0zm.6-1.8l-.3-.3c-.2 0-.3-.1-.5-.1-.1-.1-.2-.3-.4-.3-.1 0-.2-.1-.3-.3-.1 0-.3 0-.4-.1l-.3-.3c-.1 0-.2 0-.2-.1-.2-.2-.3-.4-.5-.6-.1 0-.2 0-.3-.1-.1-.2-.3-.3-.5-.3-.1-.2-.3-.3-.4-.5-.2 0-.4-.1-.5-.3-.1 0-.2 0-.3-.1-.2-.3-.5-.6-.7-.8-.1 0-.2-.1-.3-.1-.2-.2-.4-.4-.5-.7.1-.1.2-.1.3 0l.3.3h.2l.3.3c.3.1.7.1 1 .1l.3.3c.1-.1.2-.1.2-.2.1 0 .3 0 .5.1.1 0 .1.4.4.3l.3.3c.2 0 .3 0 .5.1l.3.3h.2c.1.2.3.3.4.5.2.1.4.1.6.1.1 0 .1-.1.2-.1.2.1.2.3.5.3l.3.3h.2c.2.3.2.3-.2.6.1.2.3.4.4.5-.1.4-.5.6-.8.9zm2.4.1c.1.1.1.1.1.2v.3l-.1.1c-.1 0-.2-.1-.3-.2-.3-.2-.6 0-.9-.3.3-.2.6 0 .8 0 .1 0 .1 0 .2-.1h.2zm0-79.9c-.2.1-.3.2-.5.3v.1c-.1.3-.1.3-.4.2-.1.1-.2.1-.3.2-.2-.3 0-.5 0-.8.2-.1.4-.3.6-.4v-.2c.2-.1.3-.2.3-.4.1-.1.2-.1.3-.2.1-.1.1-.1.2 0V36.6c0 .6.1.7.2.8-.3 0-.4.1-.4.3zm.7-1.5c0 .1 0 .2-.2.3h-.3c.1-.2.2-.3.3-.5.1-.1.3-.2.4-.3.1.1.1.2.1.3-.1 0-.3 0-.3.2zm.4-1.9c-.1.1-.2.2-.4.3h-.2c-.1 0-.1-.1-.1-.1.2-.2.4-.3.7-.5h.1v-.1s.1-.1.2-.1v.1h.1l-.1.1c-.3.1-.3.2-.3.3zm5.3.8c-.2.1-.3.3-.3.4-.2.2-.5.3-.7.5-.1 0-.2 0-.4-.1-.1.2-.1.2-.3.2 0-.2.1-.2.3-.2 0-.2.2-.2.3-.4v-.1c.3-.2.6-.5 1-.7 0 .1.1.1.1.2v.2zm1.4-1.5c-.1.1-.2.2-.4.3-.1-.1-.2-.3 0-.4.1-.1.2-.2.4-.3.1.2.1.3 0 .4zm2.1-4.7c-.1 0-.1.1-.2.1-.2 0-.4-.1-.6-.1 0 .3-.1.5-.1.8-.4.3-.8.6-1.3.9-.1 0-.3 0-.5-.1-.1-.1-.2-.2-.2-.3l-.4-.1v.2c0 .2-.1.2-.3.2h-.2v.2c0 .1 0 .2.1.2s.1 0 .2-.1c0 0 .1 0 .1-.1.2.1.1.2.1.4-.2.1-.3.2-.5.4-.1.2-.1.3-.3.4 0 .1 0 .2-.1.3-.3.2-.6.4-.8.6 0 .1 0 .2-.1.3-.3.2-.5.4-.8.6v.2c-.4.3-.9.6-1.3.9 0 0-.1-.1-.1-.2v-.4c0-.1-.1-.1-.1-.2-.1.1-.3.2-.4.3v.2c-.1.1-.2.1-.3.2 0 .1-.1.2.1.3.1 0 .1 0 .2-.1l.1-.1c.1 0 .3 0 .3.1.1.1.1.2 0 .3l-.1.1c-.3-.1-.4.1-.5.3 0 .1-.1.1-.2.1v.4c-.1.1-.3.2-.4.3-.2-.1-.1-.2-.1-.4.2-.1.3-.3.5-.3v-.4l-.5-.5c0-.1 0-.2.1-.3.2-.1.2-.3.3-.4.1-.1.2-.2.3-.4 0-.2.3-.2.3-.3V33c0-.1.1-.1.1-.1l.2.2.1-.1c0-.3.1-.6.1-.9.3-.2.6-.4.8-.6 0-.1 0-.2.1-.3.4-.3.8-.6 1.2-.8h.1c.1.1.1.1.1.2s0 .2.1.2h.1c.3-.2.5-.4.8-.6h.1v-.1c.1-.1.3-.2.4-.3h.1v-.1c-.1-.1-.2-.2-.2-.3.1-.1.2-.1.3-.1.1 0 .2-.1.2-.2.1-.3.1-.3.3-.2h.2v-.4c.1-.1.3-.2.4-.3.2.1.1.2.1.4-.2.1-.3.3-.5.3v.1c-.1.1-.2.1-.3.2.1.1.2.3.3.4.1-.1.2-.1.3-.2.2-.1.3-.2.4-.4v-.2c.2-.2.5-.3.7-.5h.1v-.2c0-.2.1-.2.3-.2h.2v-.1s.1-.1.2-.1l-.1.1c.1-.1.2 0 .2 0l-.1.1h-.1v.1c.3.7.3.8.4.9zm1.3-.9c-.2-.2-.1-.3.1-.5.1.2.1.3-.1.5zm22-4.9c-.1-.1-.1-.1-.1-.2s0-.2-.2-.3h-.3c-.3-.1-.3-.1-.3-.4.1-.1.3-.1.4 0l.2.2c.1 0 .2 0 .3.1.1.1.2.2.3.4 0 .1-.1.1-.3.2zM168.3 42c-.1.2 0 .4-.2.5-.1-.1-.2-.2-.3-.4-.1-.1-.1-.3-.1-.4-.1.1-.2.1-.3.2-.2-.2-.4-.5-.6-.7V41c0-.1.1-.1.2-.1.1.3.6.2.6.5.4.1.5.4.7.6zm-.6-2s-.1.1 0 0c-.2.1-.3 0-.3 0-.1-.1-.2-.3-.3-.4.1-.2.3-.2.4-.3h.2c.2.3.1.5 0 .7zm-.3-6.2h.1s.1.1.1.2h-.1v.1c-.1 0-.1-.1-.1-.1v-.2c-.3 0-.4-.1-.6-.1-.1 0-.2-.1-.1-.3-.1 0-.2 0-.4-.1-.1-.1-.2-.2-.2-.3h-.1c-.2-.1-.3-.1-.3-.3v-.1l.1-.1c.1.1.2.2.2.3.1 0 .1 0 .3.1.1.1.2.3.3.4v.1c.2 0 .4 0 .6.1.1.1.2.2.2.3zm-1-2.5v-.2c.2-.2.4 0 .6 0 .2.1.3.3.4.4-.1.1-.3.2-.4.3-.1-.1-.2-.2-.2-.3-.3.2-.7.5-1 .7v.4c-.2-.1-.3-.3-.4-.4.2-.4.6-.6 1-.9zm-.9 15.1v-.1c0-.1 0-.2.1-.2s.1 0 .2.1c0 .2 0 .5-.1.7 0 0-.1.1-.2.1-.1-.1-.2-.3-.3-.4.1-.1.2-.1.3-.2zm-6.3-2.3c-.2 0-.3 0-.5-.1-.1-.1-.2-.2-.2-.3-.1 0-.2 0-.4-.1v0c0 .1-.1.1-.1.2h-.1c-.1-.1-.1-.1 0-.2s.1-.1.2 0v-.4c.3-.1.3-.1.6.2.1 0 .3 0 .5.1.1 0 .1.1.1.2.1.2.1.3-.1.4zm.2-18c-.2-.3-.2-.3 0-.5l.7.1c.2.3.2.3 0 .5l-.7-.1zm.9 33.1v.4c-.1.1-.3.2-.4.3h-.1v0c0 .1-.1.1-.1.2h-.1c-.1-.1-.1-.1 0-.2s.1-.1.2 0v-.4c.1-.1.3-.2.4-.3h.1c.1-.2.1-.2.3-.2-.1.2-.1.2-.3.2zm1.3-.4c-.3.1-.2.4-.4.5h-.2c-.1-.1-.2-.3-.4-.3v-.4c.1-.1.3-.2.4-.3.1 0 .3 0 .5.1.1 0 .2.1.1.3v.1zm1-6.2c-.3.2-.1.5-.2.8-.1.1-.2.1-.3.2v.2c-.1.1-.2.1-.3.2 0 .2 0 .3-.1.5-.1.1-.2.1-.3.1-.1 0-.2.1-.3.2l-.1-.1c0-.1 0-.2-.1-.3-.2-.3-.2-.3.1-.5.1-.1.1-.3.2-.4.1-.1.2-.2.2-.4 0 0 .1-.1.2-.1s.3 0 .3-.1c0-.3.1-.6.1-.9-.2-.2-.3-.4-.5-.6.2-.1.3-.2.3-.4 0-.1 0-.3.2-.4.1.1.2.2.2.3.2-.1.1-.2.2-.3-.1-.2-.4-.1-.5-.3v-.2c.1-.1.2-.1.3-.2 0-.4.1-.8.1-1.2.1-.1.1-.1.2-.1s.3 0 .3-.1c.1-.5.1-1.1.2-1.6.1-.1.2-.1.2-.2.2-.2 0-.5.2-.6l.1.1c0 .3 0 .6-.1 1 .1.1.1.2.2.3-.1.7-.2 1.4-.2 2.1.1.1.2.2.2.3 0 .3-.1.6-.1.9-.1.1-.2.1-.3.2 0 .2-.1.5-.1.7-.1.2-.4 0-.5.2l.2.2c.1.2 0 .4 0 .5.1.1 0 0-.2 0zm.9 4.4h-.5c-.1 0-.2-.1-.2-.2 0-.5.1-.9.1-1.4 0-.1.1-.1.2-.1l.1.1v.5c.1.1.2.2.2.3v.5c.1.1.1.2.2.3h-.1zm.3-.6c-.2-.2-.1-.3.1-.5.1.2.1.3-.1.5zm1.6-4.1c0 .5-.1.8-.1 1.3-.2.1-.4.2-.6.4v.2c.1.1.1.2.2.3 0 .1-.1.2-.2.3l-.3-.3h-.1c0 .3-.1.5-.1.8 0 0-.1.1-.2.1l-.1-.1c0-.3 0-.5.1-.8 0-.1.1-.1.2 0 0-.2.1-.4.1-.6l-.1-.1c-.1 0-.2.2-.3.1-.1-.1-.1-.2-.1-.4.1-.1.2-.1.3-.2v-.1c-.1 0-.2 0-.4-.1-.1 0-.1-.1-.1-.1 0-.1.1-.1.2-.1s.1 0 .2.1c.1 0 .1.1.1.2h.2c0-.1.1-.1.1-.2 0-.3.1-.5.1-.8.2-.1.3-.2.4-.3h.1v-.1s.1-.1.2-.1l-.1.1c.1-.1.2 0 .2 0l-.1.1h-.1c0 .1-.1.1 0 .1.1.2.2.3.3.3zm.6-1.9c-.1.1-.2.1-.3.2-.1-.1-.2-.3-.3-.4.2-.1.4-.3.5-.4-.1-.1-.2-.1-.3-.2-.1 0-.2-.1-.1-.2 0-.3.1-.6.1-.9-.1-.1-.1-.2-.2-.3.1-.1.1-.1.2-.1s.3.1.3.2c0 .3-.1.6-.1.9.1.1.1.2.2.2.2 0 .3.1.3.2v.2c0 .2 0 .2.3.4.1 0 .1.1 0 .2-.3.1-.5.1-.6 0zm.4 2.5s0-.1 0 0c-.1-.2-.1-.3-.1-.3.1-.1.2-.1.3-.2-.1-.1-.1-.2-.2-.3.2-.1.3-.2.5-.4-.1-.1-.1-.2-.2-.3 0-.1 0-.3.1-.4 0-.1.1-.1.2-.1s.1 0 .3.2c0 .3-.1.6-.1.9-.1.1-.2.1-.3.2 0 .2 0 .4-.1.6 0 .2-.1.2-.4.1zm-.1 4.3h-.1V57c-.1-.3-.1-.4-.2-.5 0-.2.1-.5.1-.7.1-.1.2-.1.3-.2 0-.1 0-.3.1-.3s.2.1.2.2l.1.1s0 .1.1.1v.4c.1.1.1.2.2.3-.1.2-.4-.1-.5.2.1.1.1.2.2.3-.3.1-.4.2-.5.3zm.7 1c-.1.1-.2.2-.4.3-.1-.1-.2-.3-.1-.4.1-.1.2-.2.4-.3.2.2.2.3.1.4zm.7-.9c-.3.1-.3.1-.5-.1v-.5c.1-.1.3-.2.4-.3l.1.1v.8zm.9-3.9c-.1-.2 0-.3 0-.5 0-.1-.1-.1-.1-.2 0 .1-.1.1-.1.2 0 .4-.1.7-.1 1.1 0 .1 0 .2-.1.3-.1.1-.3.1-.4.1-.1-.3 0-.6 0-.8-.1-.1-.1-.2-.2-.3 0-.2 0-.2.3-.4 0-.1 0-.3.1-.5-.1-.1-.1-.2-.2-.3.2-.1.2-.1.5.1 0 .1-.1.2.1.3 0 0 .1 0 .2-.1s.1-.1.2-.1c.2.1.3-.1.4-.2 0 .1.1.1.1.2 0 .4-.1.8-.1 1.1-.2.2-.4.1-.6 0 .1.1.1.1 0 0zm1.1 2V55.7c-.2.1-.2.3-.3.4-.1.1-.1.1-.2-.1l-.1-.1c-.1-.3-.1-.4-.1-.4.1-.1.3-.2.4-.3.2-.1.1-.3.2-.4.1 0 .1-.1.2-.2-.1-.1-.1-.2-.2-.3.1-.1.2-.1.2-.2v-.2c-.1-.1-.1-.2-.2-.3.1-.1.2-.1.3-.1.1 0 .2.1.2.2 0 .3-.1.6-.1.9.1.1.1.2.2.3-.1.1-.1.1-.2.1-.3.1-.3.2-.3.4zm1.1 1.2c-.1.1-.2.1-.3.2v.2c.1.1.1.2.2.3 0 .1 0 .2-.1.2l-.1.1c-.2 0-.3 0-.6-.1-.1-.1-.2-.2-.3-.4.1-.2.3-.2.5-.4 0-.1 0-.3.1-.5-.1-.1-.1-.2-.2-.3.1-.1.2-.1.3-.2v-.2c.1-.1.2-.1.3-.1.1 0 .2.1.2.2.1.4 0 .7 0 1zm0-6.8c0 .1 0 .3-.1.3s-.2-.1-.2-.2l-.1-.1s0-.1-.1-.1c0-.2 0-.3.1-.5l.1-.1c.1 0 .1 0 .2.1v.2c-.1.3 0 .4.1.4zm.2 1.6s.1.1.1.2c-.1 0-.1-.1-.1-.2.1.2 0 .2 0 .2-.1 0-.1-.1-.1-.1v-.1c-.2-.1-.2-.2-.4-.4l.3-.3h.1l.1.1c0 .2 0 .4-.1.6h.1zm.2 3.6c0 .1-.1.1-.2.1l-.1-.1v-.2c-.1-.1-.1-.2-.2-.3.1-.1.2-.2.3-.2 0-.2 0-.3.1-.5-.1-.1-.2-.3-.3-.4-.2-.2-.1-.3.1-.5 0 0 .1 0 .1-.1 0-.2 0-.4.1-.7 0 0 .1-.1.2-.1.2.2 0 .4 0 .6.1.1.1.2.2.3-.1.6-.2 1.4-.3 2.1zm.1-16.3c-.1-.1-.2-.3-.3-.4v-.2c-.1-.1-.2-.3-.3-.4-.2 0-.3 0-.5-.1l-.3-.3c-.4-.1-.4-.1-.3-.4.1-.1.2-.1.3 0 .1.1.2.2.2.3.2 0 .3 0 .5.1.2.2.4.4.5.7v.2c.1.1.1.2.2.3.2 0 .2.2 0 .2z"/><path class="st0" d="M107.4 47.1c.1 0 .1.1.1.2s0 .1-.1.2c0 .1-.1.1-.2 0v-.3c0-.1.1-.1.2-.1zM124.4 117.4s.1 0 0 0c.1.1 0 .1 0 .2h-.4c.1-.3.2-.3.4-.2zM123.8 117.6c.1-.1.1-.1.2 0 0 .1-.1.1-.1.2h-.1c-.1-.1-.1-.2 0-.2zM122.7 36.3c-.1 0-.1.1 0 0-.2 0-.2-.1-.1-.1.1-.1.1-.1.2 0l-.1.1z"/><path class="st0" d="M122.7 36.3c.1-.1.1-.1 0 0 .1-.1.1-.1 0 0zM170.7 47.5c0-.1-.1-.1-.1-.2-.1-.1-.2 0-.1.1.1 0 .1.1.2.1-.1.1 0 0-.3-.2h.1v-.2c-.1-.1-.1-.1-.2 0v.1c.1 0 .1 0 .4.3zM127.2 28v-.1h-.2c-.1 0-.1.1 0 .2.1 0 .1 0 .2-.1 0 .1 0 0 .2-.3-.1 0-.1 0-.2.1s0 .1.1.1.1-.1.1-.1c.1 0 0-.1-.2.2zM113.4 118.2c0-.1-.1-.1-.1-.2-.1-.1-.2 0-.1.1 0 .1 0 .2.2.1-.1.1 0 0-.3-.2h.1v-.2c-.1-.1-.1-.1-.2 0v.1c0 .1 0 .1.4.3zM106.3 50.5h.2c0-.1.1-.1.1-.2s0-.2-.1-.2c0 0-.1 0-.2.1 0 .1 0 .2-.1.4.1 0 .1-.1.1-.1h-.2c-.1 0-.1.1 0 .2h.1c.1 0 .1 0 .1-.2zM164 57.8h-.2c0 .1-.1.1-.1.2s0 .2.1.2c0 0 .1 0 .2-.1 0-.1 0-.2.2-.5-.1 0-.1 0-.2.1s0 .1.1.1.1-.1.1-.1c.1 0 0 0-.2.1zM167.7 42.9c0-.1-.1-.1-.1-.2-.1-.1-.2 0-.1.1 0 .1 0 .1.2.1-.1.1 0 0-.2-.2 0-.1 0-.2-.1-.2s-.1-.1-.2-.1-.2 0-.2.1l.1.1c.1.1.2.1.6.3zM147.9 116.5c0-.1-.1-.1-.1-.2-.1-.1-.2 0-.1.1 0 .1.1.1.2.1-.1.1 0 0-.2-.2 0-.1 0-.2-.1-.2s-.1-.1-.2-.1-.2 0-.2.1l.1.1c.2.1.3.1.6.3zM161.1 27.9c.3.1.5.2.7.1 0 0 .1 0 .1-.1 0 0 0-.1-.1-.1s-.1 0-.2-.1c-.1 0-.1-.1-.2-.1-.1-.1-.1-.1-.2-.1-.1.1-.1.3-.1.4zM161 59.7c0-.1-.1-.1 0 0-.1-.1-.2-.1-.3 0v.5s0 .1.1.1.1 0 .2-.1v-.5zM117.4 116.7c.1.1.2.1.3 0v-.5s0-.1-.1-.1-.1 0-.2.1v.5zM159.5 24.6c-.2 0-.3 0-.5-.1-.1 0-.1.1-.1.1s0 .1.1.1c.2 0 .3 0 .5.1.1 0 .1 0 0-.2.1.1 0 .1 0 0zM168 37c0-.1.1-.1 0 0 .1-.1.1-.2.1-.3 0 0 0-.1-.1-.1h-.1c-.1 0-.1.2.1.4-.1 0-.1 0 0 0zM165 50.8s-.1 0 0 0c-.2-.1-.2-.1-.3-.1 0 0-.1 0-.1.1v.1c0 .1.3.1.4-.1 0 .1 0 .1 0 0zM126.2 122.9h.1s.1 0 .1-.1c0 0 0-.1-.1-.2h-.1c-.1 0-.2 0-.2.1s.1.2.2.2zM127.6 123.9h-.1c-.1 0-.1.1-.1.1s0 .1.1.1h.1c.2 0 .3 0 .2-.1 0-.1-.1-.1-.2-.1zM106.1 54.8v-.1s0-.1-.1-.1-.1 0-.2.1v.1c0 .1 0 .2.1.2.1.1.2 0 .2-.2zM123.7 29.9s0 .1.1.2c0 0 .1 0 .1-.1s0-.1-.2-.1c.1-.1.1 0 0 0zM146.3 107.3s0-.1 0 0c-.2-.1-.2 0-.2.1l.1.1c.1-.1.1-.2.1-.2zM124.5 34.4c.1 0 .1.1 0 0 .2.1.2 0 .2-.1l-.1-.1c-.1.1-.1.2-.1.2zM148.9 108.3c.1 0 .1 0 .2-.1 0 0 0-.1-.1-.1 0 0-.1 0-.1.2-.1-.1 0 0 0 0zM109.8 114.2s-.1.1 0 0c0 .2 0 .2.1.2l.1-.1c-.1-.1-.1-.1-.2-.1zM129.7 25.4c.1 0 .1 0 .2-.1 0 0 0-.1-.1-.1s-.2 0-.1.2c-.1-.1-.1-.1 0 0zM109.2 115s0 .1 0 0c.2.1.2 0 .2-.1l-.1-.1c-.1.1-.2.1-.1.2zM160.4 27.1s0-.1-.1-.2c0 0-.1 0-.1.1 0 0 0 .1.2.1-.1.1-.1 0 0 0zM114.5 117.4s0 .1.1.2c0 0 .1 0 .1-.1 0 0 0-.1-.2-.1.1-.1.1 0 0 0zM111.9 117.3c0-.2 0-.2-.1-.2l-.1.1c0 .1.1.2.2.1zM144.7 20.3s-.1-.1 0 0c-.2-.1-.2 0-.2.1l.1.1c.1-.1.1-.2.1-.2zM113.7 118.4c0 .1-.1.1 0 0 0 .2 0 .2.1.2l.1-.1c-.1-.1-.1-.1-.2-.1zM116.2 119.9s0-.1-.1-.2c0 0-.1 0-.1.1 0 0 .1.1.2.1 0 .1 0 0 0 0zM118.3 120.9c0 .1 0 .1 0 0 .2.1.2 0 .2-.1l-.1-.1c-.1.1-.2.2-.1.2zM118.8 121s0 .1 0 0c.2.1.2 0 .2-.1l-.1-.1c-.1.1-.2.2-.1.2zM119.7 121.4c0-.1 0-.1 0 0-.1-.1-.2-.1-.2 0 0 0 0 .1.1.1 0-.1 0-.1.1-.1zM129.3 123.1s.1.1 0 0c.2.1.2 0 .2-.1l-.1-.1c-.1.1-.1.1-.1.2zM124 122.5c0 .1.1.1 0 0 .2.1.2 0 .2-.1l-.1-.1c-.1.1-.1.2-.1.2zM124.5 122.6s.1.1 0 0c.2.1.2 0 .2-.1l-.1-.1c-.1.1-.1.1-.1.2zM147.1 115.4s0 .1.1.2c0 0 .1 0 .1-.1s-.1-.1-.2-.1c.1-.1 0-.1 0 0zM128.3 27.9s0 .1.1.2c0 0 .1 0 .1-.1 0 0 0-.1-.2-.1.1-.1 0 0 0 0zM144.6 117.8s-.1 0 0 0c-.1.1-.1.2 0 .2 0 0 .1 0 .1-.1l-.1-.1zM130.6 115.9c0 .1-.1.1 0 0 0 .2 0 .2.1.2l.1-.1s-.1-.1-.2-.1zM119.5 114.7c.1 0 .1 0 .2-.1 0 0 0-.1-.1-.1s-.1 0-.1.2c-.1-.1 0-.1 0 0zM125.8 115.5s-.1 0 0 0c0 .2 0 .2.1.2l.1-.1c-.1-.1-.1-.2-.2-.1zM118 114.8c-.1 0-.1 0-.2.1 0 0 0 .1.1.1.1-.1.1-.1.1-.2.1 0 .1 0 0 0zM159.6 55.6s0-.1-.1-.2c0 0-.1 0-.1.1s0 .2.2.1c-.1.1 0 .1 0 0zM101 55.6s0 .1.1.2c0 0 .1 0 .1-.1s-.1-.1-.2-.1c0-.1 0-.1 0 0zM156.9 64.3c-.1 0-.1-.1 0 0-.2-.1-.2 0-.2.1l.1.1c0-.1.1-.1.1-.2zM167.7 56c.1-.1.1-.1 0 0 0-.2 0-.2-.1-.2l-.1.1c.1 0 .2.1.2.1zM163.5 54.8s0-.1-.1-.2c0 0-.1 0-.1.1 0 0 .1.1.2.1-.1.1 0 0 0 0zM161.4 58s-.1-.1 0 0c-.2-.1-.2 0-.2.1l.1.1c.1-.1.1-.1.1-.2zM159.3 60.5c0-.1.1-.1 0 0 0-.2 0-.2-.1-.2l-.1.1c.1 0 .1.1.2.1zM159.1 55.8s0-.1-.1-.2c0 0-.1 0-.1.1s0 .1.2.1c-.1.1-.1 0 0 0zM169.5 44.6s0-.1-.1-.2c0 0-.1 0-.1.1s0 .1.2.1c-.1.1 0 0 0 0zM166.1 42.9s0-.1-.1-.2c0 0-.1 0-.1.1 0 0 0 .1.2.1-.1.1 0 0 0 0zM100 98.5c-.1 0-.1 0-.2.1 0 0 0 .1.1.1s.2 0 .1-.2c.1.1.1.1 0 0zM117.9 35c-.1 0-.1 0-.2.1 0 0 0 .1.1.1s.1-.1.1-.2c.1.1.1 0 0 0zM165.8 51.2c-.1 0-.1 0 0 0-.1-.1-.2-.1-.2 0 0 0 0 .1.1.1-.1 0 0 0 .1-.1zM169.2 51.6s.1 0 0 0c0-.2 0-.2-.1-.2l-.1.1c.1.1.2.1.2.1zM98 90.3s-.1 0 0 0c0 .2 0 .2.1.2l.1-.1c-.1-.1-.1-.2-.2-.1zM119.5 94.5s-.1-.1 0 0c-.2-.1-.2 0-.2.1l.1.1c.1-.1.1-.1.1-.2zM120.4 77.9c.2-.3.5-.6.8-.9.2-.8.6-1.5 1.1-2.1v-.5c0-.2 0-.4.1-.6 0 .1 0 .1-.1.2 0 .1-.1.1-.3.1-.2 0-.2 0-.3.3-.1.1-.2.1-.3.2v.2c.1.1.1.2.2.3v.2c-.1.1-.2.2-.3.2.1.3-.2.3-.3.5v.4c-.2.1-.3.2-.3.4 0 .1 0 .2-.1.3-.1.1-.2.1-.2.2v.4c-.1.1 0 .2 0 .2zM155.8 103.1v-.4c.1-.1.2-.1.3-.2 0-.2 0-.3.1-.5.4-.3.7-.5 1.1-.8-.1-.1-.1-.2-.2-.3v-.2c.1-.1.2-.1.3-.2v-.2c.1-.1.3-.2.4-.3h.3c.1.1.2.3.3.5l-.2.2c0 .2 0 .4-.1.7-.1.1-.2.2-.3.2v.2c-.1.1-.2.1-.3.2v.2c-.1.1-.2.1-.3.2v.2c-.2.1-.3.2-.3.4-.1.1-.3.2-.4.3h-.1c0-.2 0-.3.1-.6 0-.1 0-.1-.1 0s0 .1.1.1.1-.1.1-.1-.1-.1-.2 0c-.2 0-.3.1-.4.2-.1.2-.1.2-.2.2zm1.3-1.2c-.1 0-.1 0-.2.1 0 0 0 .1.1.1s.1 0 .1-.2c.1.1 0 0 0 0zM170.3 59.3c0 .2 0 .4-.1.6-.1.1-.2.1-.3.2v.2c.1.1.1.2.2.3l-.2.2c0 .2-.1.3-.1.5-.1 0-.1.1-.2.2 0 .2-.1.3-.1.5-.1.1-.2 0-.4.1-.1.1-.2.1-.3.2-.2 0-.3-.1-.5-.1-.1-.1-.1-.1 0-.2.2-.1.3-.2.5-.3 0-.2.1-.5.1-.7.2-.1.4-.3.6-.4 0-.2 0-.3.1-.5.2-.1.3-.2.3-.4s.1-.5.4-.4zM125.2 26.4c.1 0 .2 0 .3.1.2.2 0 .4.1.6-.2.2-.4.3-.7.5h-.2c-.1 0-.2-.1-.1-.3V27c.2-.3.4-.4.6-.6zM138.1 21.1c-.1.1-.2.1-.3.2-.1-.1-.2-.3-.3-.4.3-.3.4-.3.7-.3.2-.1.3-.2.5-.3h.1c.1.1.2.2.3.4-.2.2-.4.3-.7.5-.1 0-.2-.1-.3-.1zM123.3 29c-.3 0-.6-.1-.9-.1-.2-.3-.2-.3.1-.5h.2c.2-.1.1-.4.3-.4.1 0 .2 0 .2.1.1.1.2.3.3.4-.1.1-.2.1-.3.2.1.1.1.2.1.3zM136.6 23.3h-.2c-.1-.1-.2-.3-.3-.4.2-.2.4-.3.6-.5.2 0 .5-.1.7.2v.2c-.1.1-.3.1-.3.3-.3 0-.4.2-.5.2zM129.5 24c-.1.1-.2.1-.3.2 0 .1 0 .2-.1.3l-.6-.6.1-.1c.1-.1.3-.2.5-.2 0 0 .1 0 .1-.1.1-.1.1-.1.2-.1.1.1.1.1.1.2v.4zM157.5 104c0-.4.1-.6.1-.8.2-.1.5-.3.7-.5.2.1 0 .3.1.5-.2.4-.5.5-.9.8zM157.1 105.2c0-.3.1-.5.1-.9.1-.1.2-.2.4-.2h.2c.1 0 .1.1.1.2-.1 0-.1.1-.2.1-.1.1 0 .3-.2.4-.2.1-.1.3-.2.4 0 .1-.1.1-.2 0zM157.3 108.3c-.2.1-.5.3-.7.5l-.1-.1v-.2c.1-.1.2-.1.2-.2s0-.1.1-.2.2-.1.3-.2c.1-.1.1-.1.2 0v.4zM152.8 111.7c-.2.2-.3.2-.4.3-.2-.2 0-.5-.3-.6v-.1c0-.1 0-.2.1-.2h.3c.1.1.2.3.3.4v.2zM165.8 61.5c-.1-.1-.2-.3-.3-.4 0-.2 0-.3.1-.4.1.1.2.2.2.3h.2c.1.3.1.3-.1.5h-.1zM122.1 71.5h-.2c-.2-.2-.1-.4 0-.6.1-.1.2 0 .3 0 .1.1.1.2.1.3 0 0 0 .2-.2.3zM151.8 113.6v-.4c.1-.1.2-.1.3-.1.1 0 .2-.1.3-.2.2.1.1.2.1.4-.1.1-.3.2-.4.3h-.3zM158.5 102.6h-.2c-.1 0-.1-.1-.1-.2.1-.1.1-.1.2-.1 0-.1 0-.1.1-.2 0-.1.1-.1.1-.2.4.1.4.1.3.4-.1.1-.2.2-.4.3zM159.7 95.6c.1-.1.3-.2.4-.3.2.1.1.2.1.4-.1.1-.2.1-.3.2v.5l-.1.1c-.1 0-.1 0-.1-.1-.1-.3-.1-.5 0-.8zM133.2 124.7v.4c-.1.1-.3.2-.4.3 0 0-.1 0-.1-.1 0-.2 0-.4.1-.6h.4zM173.4 51.2v.4c0 .1 0 .2-.1.2s-.1 0-.2-.1-.2-.2-.2-.3v-.3c.2-.1.4-.1.5.1zM174.2 57.6c0 .5 0 .8-.2 1l-.1-.1c0-.3 0-.5.1-.8.1 0 .1 0 .2-.1zM164.3 60.4c.1-.1.3-.2.4-.3.1.1.1.2.2.3.1 0 .2 0 .1.1l-.1.1c-.3 0-.3 0-.6-.2 0 .1 0 0 0 0zM155.9 106.5v.4c-.1.1-.3.2-.4.3-.2-.1-.1-.2-.1-.4.2-.1.3-.3.5-.3zM152 110.7c-.2 0-.3 0-.5-.1 0 0-.1-.1-.1-.2.1-.1.3-.2.4-.3.1.1.2.2.3.4 0 .1 0 .2-.1.2zM159.8 106.4c0-.2 0-.4.1-.6 0-.1.2-.1.3-.1.1 0 .2 0 .2.1v.1c-.2.1-.2.3-.3.4-.1.1-.2.1-.3.1zM156 104.8s.1 0 .1.1v.2c-.1.1-.2.2-.4.3 0 0-.1 0-.1-.1v-.2c.1-.1.2-.2.4-.3zM161.8 102.8s.1 0 .1.1v.2c-.1.1-.2.2-.4.3 0 0-.1 0-.1-.1v-.2c.1-.1.3-.2.4-.3zM165.3 59.6c-.1.1-.3.1-.3.3h-.1c-.1-.1-.1-.3-.1-.4 0-.1.2-.1.3 0 .2 0 .2.1.2.1zM173.4 60c.1.1.2.3.3.4-.1.2-.2.1-.4.1-.1-.2-.1-.4.1-.5zM156.7 104.3c-.3.1-.3.1-.5-.1.1-.1.2-.1.3-.2.1-.1.1-.1.2 0s.1.1.1.2c-.1 0-.1.1-.1.1zM166.8 62.9v.3c-.2.2-.2.2-.5 0 .3-.3.3-.3.5-.3zM155.9 109.4v-.3c.2-.2.2-.2.5 0-.3.2-.3.2-.5.3zM159.7 63.7c-.2-.2-.2-.4 0-.5.1 0 .3 0 .3.1s0 .1-.1.2l-.2.2zM154.6 111.8v-.3c.2-.2.2-.2.5 0-.3.3-.3.3-.5.3zM158.7 63.9c.2-.1.4-.1.5.1-.1.1-.3.1-.5-.1zM148.1 119.5c0-.1.1-.2.2-.2h.3c0 .1-.1.2-.2.2-.1.1-.2 0-.3 0zM123.2 69.8c-.2.1-.4.1-.5-.1.2-.1.4-.1.5.1zM160.5 64.1v.3c0 .1-.1.2-.3.1v-.3c.1-.1.2-.2.3-.1zM132.8 59.1c-.1.2-.2.3-.4.2l-.1-.1v-.1h.5zM126.4 65.4c.2.2.1.3-.1.5-.1-.2-.1-.4.1-.5zM144.7 49.4c-.2 0-.3-.1-.2-.2.1-.1.1-.1.2-.1h.1c.1.1.1.1.1.2l-.1.1h-.1zM175.3 54.6s0 .1 0 0c-.1.2-.4.1-.4 0v-.1l.1-.1c.1.1.2.1.3.2 0-.1 0 0 0 0zM154.8 103.2v-.3s.1-.1.2-.1.1.1.1.2 0 .1-.1.2h-.2zM160.2 64.5c-.1.2-.2.3-.4.2l-.1-.1v-.1h.5zM155.1 107.1c0 .1-.1.2-.2.2-.1-.1-.1-.1-.1-.2v-.1c.1-.1.1-.1.2-.1l.1.1v.1zM154.1 109.1c-.2 0-.3-.1-.2-.2.1-.1.1-.1.2-.1h.1c.1.1.1.1.1.2l-.1.1h-.1zM165.1 59.9c.1 0 .2 0 .2.1v.3c-.1.1-.1.1-.2 0-.1 0 0-.2 0-.4zM123.2 124.4c-.2 0-.3-.1-.2-.2.1-.1.1-.1.2-.1h.1c.1.1.1.1.1.2l-.1.1h-.1zM156.8 105.4v.3c0 .1-.1.2-.3.1v-.3c.1 0 .2-.1.3-.1zM165 63.3V63s.1-.1.2-.1.1.1.1.2 0 .1-.1.2h-.2zM172.9 58c.1.1.1.3 0 .4h-.1c-.2-.1-.1-.3.1-.4-.1 0-.1 0 0 0zM166.8 62.9v-.3s.1-.1.2-.1.1.1.1.2 0 .1-.1.2h-.2z"/><path class="st0" d="M156.2 106.1v.3c0 .1-.1.2-.3.1v-.3c.1-.1.2-.2.3-.1zM154 109.9c-.2.1-.4.1-.5-.1.2-.1.4 0 .5.1zM151.6 113.8c.1-.2.1-.2.3-.2-.1.2-.1.2-.3.2zM155.9 109.5s-.1 0 0 0c-.1.1-.1.1-.2.1-.1-.1-.1-.1 0-.2s.1-.1.2 0v.1zM155.2 110s.1.1 0 0c0 .1 0 .2-.1.2s-.2 0-.1-.1c.1 0 .1 0 .2-.1z"/><path class="st0" d="M155 110.3c0 .1 0 .1 0 0-.1.1-.1.1-.2.1-.1-.1-.1-.1 0-.2s.1-.1.2 0v.1zM156.2 110.7c0 .1 0 .2-.1.2s-.2 0-.1-.1c0-.1.1-.1.2-.1z"/><path class="st0" d="M156 111c-.1 0-.1 0 0 0-.1.1-.1.1-.2.1-.1-.1-.1-.1 0-.2s.1-.1.2 0v.1zM151 110.8s.1.1 0 0c0 .1 0 .2-.1.2s-.2 0-.1-.1c.1 0 .1 0 .2-.1zM151.4 111c0-.1.1-.1 0 0 .2 0 .2.1.2.1l-.1.1c-.1-.1-.1-.2-.1-.2zM150.6 111.2c.1-.2.1-.2.3-.2-.1.2-.1.2-.3.2zM150.5 111.3c0 .1 0 .1 0 0-.1.1-.1.1-.2.1-.1-.1-.1-.1 0-.2s.1-.1.2 0c.1 0 .1.1 0 .1zM154.3 112c.1-.2.1-.2.3-.2-.1.2-.1.2-.3.2zM153 112s-.1 0 0 0c-.1 0-.2 0-.2-.1s0-.1.1-.1c.1.1.1.1.1.2zM154.3 112.3c-.2 0-.2-.1-.2-.2.1-.1.1-.1.2 0v.2zM149.9 111.6s.1.1 0 0c0 .1 0 .2-.1.2s-.2 0-.1-.1c.1 0 .1 0 .2-.1zM152.4 112.3s.1 0 0 0c0 .1 0 .2-.1.2s-.2 0-.1-.1.1-.1.2-.1z"/><path class="st0" d="M152.2 112.5c0 .1 0 .1 0 0-.1.1-.1.1-.2.1-.1-.1-.1-.1 0-.2s.1-.1.2 0v.1zM147.6 112c-.1.2-.1.2-.3.2.1-.2.1-.2.3-.2zM144 121.7s-.1.1 0 0c-.1 0-.2 0-.2-.1s0-.1.1-.1c.1.1.1.1.1.2zM130.3 125.4c-.1 0-.1.1 0 0-.2 0-.2-.1-.2-.1l.1-.1c.1.1.1.2.1.2zM148.1 119.6c0 .1 0 .1 0 0-.1.1-.1.1-.2.1-.1-.1-.1-.1 0-.2s.1-.1.2 0v.1zM161.6 63c-.1 0-.1 0-.2-.1 0 0 .1 0 .1-.1.1 0 .1 0 .1.2.1-.1 0 0 0 0zM164.9 63.4c-.1.1-.1.1-.2.1-.1-.1-.1-.1 0-.2s.1-.1.2 0c.1 0 .1.1 0 .1zM132.6 58.7c0 .1 0 .1 0 0-.1.1-.1.1-.2.1-.1-.1-.1-.1 0-.2s.1-.1.2 0c.1 0 0 .1 0 .1zM160.3 63s0 .1 0 0c-.2 0-.2-.1-.2-.1l.1-.1c.1.1.2.1.1.2zM161.5 63.3s.1.1 0 0c0 .1 0 .2-.1.2s-.2 0-.1-.1.2-.1.2-.1zM161.1 63.7c.1-.2.1-.2.3-.2-.1.2-.1.2-.3.2zM156.5 63.1c-.1.1-.1.1-.2.1l-.1-.1c.1-.1.2-.1.3 0 0-.1 0 0 0 0zM161.1 63.7c-.1.2-.1.2-.3.2.1-.2.1-.2.3-.2z"/><path class="st0" d="M160.5 64.1c.1-.2.1-.2.3-.2-.1.2-.1.2-.3.2zM165.7 58.9c0 .1-.1.1 0 0-.1.1-.1.1-.2.1-.1-.1-.1-.1 0-.2s.1-.1.2 0v.1zM174 59.9c0 .1 0 .1-.1.1l-.1-.1h.2c-.1-.1 0 0 0 0zM170.4 59.1c.1 0 .1.1 0 0 0 .1 0 .2-.1.2s-.2 0-.1-.1.2-.1.2-.1zM172.9 61.2c.1 0 .1-.1 0 0 .2 0 .2.1.2.1l-.1.1c-.1-.1-.1-.1-.1-.2zM167.2 60.8s.1 0 0 0c0 .1 0 .2-.1.2s-.2 0-.1-.1.1-.1.2-.1z"/><path class="st0" d="M167 61.1s-.1 0 0 0c-.1.1-.1.1-.2.1-.1-.1-.1-.1 0-.2s.1-.1.2 0v.1zM172.6 58.8c-.1.1-.1.1 0 0-.2 0-.2-.1-.2-.1l.1-.1c.1.1.1.2.1.2zM166.6 61.5c0 .1 0 .1 0 0-.2 0-.2-.1-.2-.1l.1-.1c.2.1.2.2.1.2zM102.8 51.9s0 .1 0 0c0 .1 0 .2-.1.2s-.2 0-.1-.1c0 0 .1-.1.2-.1zM164.5 62.2s-.1.1 0 0c-.2 0-.2-.1-.2-.1l.1-.1c.1.1.2.1.1.2zM163.5 62.3s-.1 0 0 0c-.2 0-.2-.1-.2-.1l.1-.1c.1.1.1.1.1.2zM160.2 102.7c-.1.1-.1.1-.2.1l-.1-.1c.1-.1.2-.1.3 0-.1-.1 0 0 0 0zM155.5 103.3c.1-.2.1-.2.3-.2-.1.2-.1.2-.3.2zM160.6 105.1s.1.1 0 0c0 .2-.1.2-.1.1l-.1-.1h.2zM157.1 105.2c-.1.2-.1.2-.3.2.1-.2.1-.2.3-.2zM160.8 106.2s-.1.1 0 0c-.2 0-.2-.1-.2-.1l.1-.1c.1.1.1.1.1.2zM155.2 105.8s-.1.1 0 0c-.2 0-.2-.1-.2-.1l.1-.1c.1.1.1.2.1.2zM156.5 105.9c-.1.2-.1.2-.3.2.1-.2.1-.2.3-.2zM159.8 106.5s-.1 0 0 0c-.1.1-.1.1-.2.1-.1-.1-.1-.1 0-.2s.1-.1.2 0v.1zM157.8 107.3s.1.1 0 0c0 .1 0 .2-.1.2s-.2 0-.1-.1.1-.1.2-.1zM157.6 107.5c-.1.2-.1.2-.3.2.1-.2.1-.2.3-.2zM148.3 46.7c-.1.1-.1.1-.2.1l-.1-.1c.1-.1.2-.2.3 0-.1-.1 0-.1 0 0zM147.4 46.4c.1.1.1.1.1.2l-.1.1c-.1-.1-.1-.2 0-.3zM146.4 46.3c.1 0 .1 0 .2.1 0 0-.1 0-.1.1-.1 0-.2-.1-.1-.2-.1 0-.1 0 0 0zM119.2 78.2s-.1 0 0 0c-.1 0-.2 0-.2-.1s0-.1.1-.1.1.1.1.2zM149.7 44.8c-.1 0-.1 0-.2-.1 0 0 .1 0 .1-.1.1 0 .1 0 .1.2.1-.1 0 0 0 0zM162.7 50.2c-.2-.1-.1-.3-.1-.4 0-.1 0-.2.2-.3.2.1.1.3.1.4-.1.1-.1.2-.2.3zM121.6 33.1v-.3l.1-.1c.1 0 .2 0 .1.1 0 .3-.1.6-.1.9l-.1.1c-.1 0-.1 0-.1-.1 0-.2 0-.4.1-.6zM122.4 32.1v-.2c.3-.1.3-.1.5.1v.2c-.2.1-.2.1-.5-.1zM119.2 117.3c.4-.3.6-.4.8-.6 0 .1.1.1.1.2s0 .2-.1.2c-.1.1-.2.2-.4.3 0 0-.1-.1-.4-.1z"/></svg>